<?xml version="1.0" encoding="utf-8"?>
<!-- Generator: Adobe Illustrator 16.0.0, SVG Export Plug-In . SVG Version: 6.00 Build 0)  -->
<!DOCTYPE svg PUBLIC "-//W3C//DTD SVG 1.1//EN" "http://www.w3.org/Graphics/SVG/1.1/DTD/svg11.dtd">
<svg version="1.1" id="Ebene_1" xmlns="http://www.w3.org/2000/svg" xmlns:xlink="http://www.w3.org/1999/xlink" x="0px" y="0px"
	 width="130px" height="210px" viewBox="0 0 130 210" enable-background="new 0 0 130 210" xml:space="preserve">
<path fill="#F4D9BF" d="M57.207,187.493c-0.013-0.169-0.026-0.334-0.039-0.508c-1.131-15.761-0.237-23.962-0.237-23.962
	c-5.446,0.545-13.03-0.78-13.03-0.78c0.709,10.644,1.646,18.853,2.697,25.185C49.232,188.792,53.478,190.142,57.207,187.493z"/>
<path fill="#C5E2D0" d="M57.801,194.989c-0.181-2.164-0.386-4.646-0.594-7.496c-3.729,2.649-7.975,1.3-10.608-0.065
	c0.548,3.307,1.128,6.09,1.724,8.445C50.007,194.415,53.295,192.612,57.801,194.989z"/>
<path fill="#69A840" d="M48.322,195.873c3.058,12.088,6.536,12.713,8.322,12.335c2.259-0.479,1.953-3.736,1.157-13.219
	C53.295,192.612,50.007,194.415,48.322,195.873z"/>
<g>
	<path fill="#0077B3" d="M55.524,197.832l-0.949-1.816c0,0-2.7-0.287-5.384,1.417l0.261,1.849l0.272-1.608
		c0,0,3.396-0.857,4.494-1.173L55.524,197.832z"/>
	<path fill="#FCF9F8" d="M54.583,199.136c0,0-0.157,0.295-0.429,0.691c-0.138,0.198-0.298,0.423-0.48,0.659
		c-0.181,0.237-0.375,0.486-0.576,0.73c-0.203,0.239-0.396,0.488-0.597,0.706c-0.188,0.227-0.365,0.436-0.534,0.608
		c-0.298,0.363-0.541,0.599-0.541,0.599s0.069-0.322,0.264-0.779c0.107-0.219,0.24-0.472,0.402-0.733
		c0.168-0.25,0.361-0.514,0.559-0.767c0.417-0.497,0.878-0.95,1.261-1.248C54.29,199.293,54.583,199.136,54.583,199.136z"/>
	<path fill="#FCF9F8" d="M55.05,202.552c0,0-0.285-0.146-0.686-0.368c-0.404-0.218-0.923-0.511-1.455-0.762
		c-0.131-0.061-0.263-0.131-0.397-0.183c-0.136-0.047-0.259-0.122-0.391-0.16c-0.132-0.042-0.251-0.104-0.374-0.138
		c-0.12-0.032-0.234-0.083-0.343-0.109c-0.216-0.057-0.4-0.111-0.533-0.134c-0.131-0.029-0.211-0.055-0.211-0.055
		s0.074-0.024,0.208-0.06c0.138-0.043,0.336-0.071,0.578-0.08c0.121-0.011,0.251,0.007,0.39,0.016
		c0.143,0.009,0.285,0.038,0.433,0.072c0.298,0.061,0.597,0.18,0.891,0.308c0.285,0.147,0.562,0.306,0.799,0.487
		c0.24,0.176,0.444,0.365,0.608,0.539C54.896,202.266,55.05,202.552,55.05,202.552z"/>
	<path fill="#FCF9F8" d="M55.428,202.614c0,0-0.157,0.295-0.429,0.692c-0.136,0.199-0.3,0.426-0.48,0.663
		c-0.181,0.233-0.375,0.484-0.574,0.727c-0.207,0.241-0.397,0.489-0.599,0.708c-0.186,0.227-0.365,0.434-0.532,0.608
		c-0.299,0.362-0.542,0.6-0.542,0.6s0.069-0.323,0.264-0.782c0.107-0.218,0.24-0.471,0.402-0.73c0.168-0.253,0.36-0.516,0.559-0.769
		c0.415-0.497,0.877-0.95,1.262-1.25C55.134,202.774,55.428,202.614,55.428,202.614z"/>
	<path fill="#FCF9F8" d="M55.895,206.035c0,0-0.285-0.147-0.684-0.368c-0.404-0.218-0.922-0.513-1.455-0.763
		c-0.135-0.061-0.263-0.13-0.397-0.184c-0.134-0.046-0.261-0.12-0.391-0.161c-0.131-0.042-0.251-0.103-0.373-0.137
		c-0.121-0.031-0.234-0.085-0.341-0.109c-0.217-0.06-0.401-0.111-0.535-0.136c-0.131-0.031-0.211-0.051-0.211-0.051
		s0.074-0.026,0.208-0.063c0.137-0.042,0.336-0.072,0.578-0.079c0.124-0.013,0.252,0.007,0.391,0.017
		c0.14,0.006,0.284,0.038,0.431,0.07c0.298,0.063,0.597,0.182,0.891,0.311c0.285,0.147,0.562,0.304,0.798,0.487
		c0.24,0.176,0.445,0.365,0.608,0.537C55.742,205.747,55.895,206.035,55.895,206.035z"/>
</g>
<path fill="#F4D9BF" d="M73.676,187.493c0.011-0.169,0.024-0.334,0.037-0.508c1.129-15.761,0.237-23.962,0.237-23.962
	c5.446,0.545,13.031-0.78,13.031-0.78c-0.711,10.644-1.645,18.853-2.699,25.185C81.648,188.792,77.403,190.142,73.676,187.493z"/>
<path fill="#C5E2D0" d="M73.08,194.989c0.181-2.164,0.39-4.646,0.596-7.496c3.728,2.649,7.973,1.3,10.606-0.065
	c-0.547,3.307-1.127,6.09-1.723,8.445C80.873,194.415,77.586,192.612,73.08,194.989z"/>
<path fill="#69A840" d="M82.559,195.873c-3.058,12.088-6.536,12.713-8.324,12.335c-2.257-0.479-1.949-3.736-1.155-13.219
	C77.586,192.612,80.873,194.415,82.559,195.873z"/>
<g>
	<path fill="#0077B3" d="M75.356,197.832l0.95-1.816c0,0,2.699-0.287,5.384,1.417l-0.261,1.849l-0.273-1.608
		c0,0-3.396-0.857-4.494-1.173L75.356,197.832z"/>
	<path fill="#FCF9F8" d="M76.298,199.136c0,0,0.157,0.295,0.429,0.691c0.137,0.198,0.3,0.423,0.481,0.659
		c0.181,0.237,0.375,0.486,0.575,0.73c0.207,0.239,0.396,0.488,0.597,0.706c0.188,0.227,0.369,0.436,0.534,0.608
		c0.299,0.363,0.542,0.599,0.542,0.599s-0.07-0.322-0.262-0.779c-0.109-0.219-0.243-0.472-0.404-0.733
		c-0.17-0.25-0.359-0.514-0.561-0.767c-0.417-0.497-0.878-0.95-1.261-1.248C76.593,199.293,76.298,199.136,76.298,199.136z"/>
	<path fill="#FCF9F8" d="M75.831,202.552c0,0,0.287-0.146,0.685-0.368c0.404-0.218,0.923-0.511,1.455-0.762
		c0.135-0.061,0.263-0.131,0.397-0.183c0.136-0.047,0.261-0.122,0.391-0.16c0.131-0.042,0.253-0.104,0.374-0.138
		c0.12-0.032,0.234-0.083,0.343-0.109c0.216-0.057,0.4-0.111,0.533-0.134c0.133-0.029,0.213-0.055,0.213-0.055
		s-0.075-0.024-0.209-0.06c-0.138-0.043-0.335-0.071-0.578-0.08c-0.122-0.011-0.251,0.007-0.39,0.016
		c-0.141,0.009-0.283,0.038-0.429,0.072c-0.302,0.061-0.601,0.18-0.895,0.308c-0.284,0.147-0.561,0.306-0.797,0.487
		c-0.242,0.176-0.446,0.365-0.609,0.539C75.984,202.266,75.831,202.552,75.831,202.552z"/>
	<path fill="#FCF9F8" d="M75.454,202.614c0,0,0.157,0.295,0.429,0.692c0.135,0.199,0.298,0.426,0.479,0.663
		c0.183,0.233,0.375,0.484,0.575,0.727c0.206,0.241,0.396,0.489,0.599,0.708c0.186,0.227,0.364,0.434,0.532,0.608
		c0.296,0.362,0.542,0.6,0.542,0.6s-0.07-0.323-0.264-0.782c-0.107-0.218-0.242-0.471-0.404-0.73
		c-0.167-0.253-0.356-0.516-0.559-0.769c-0.415-0.497-0.878-0.95-1.261-1.25C75.747,202.774,75.454,202.614,75.454,202.614z"/>
	<path fill="#FCF9F8" d="M74.986,206.035c0,0,0.287-0.147,0.685-0.368c0.402-0.218,0.921-0.513,1.453-0.763
		c0.135-0.061,0.263-0.13,0.397-0.184c0.134-0.046,0.261-0.12,0.391-0.161c0.131-0.042,0.251-0.103,0.374-0.137
		c0.12-0.031,0.232-0.085,0.343-0.109c0.216-0.06,0.4-0.111,0.533-0.136c0.133-0.031,0.213-0.051,0.213-0.051
		s-0.075-0.026-0.209-0.063c-0.138-0.042-0.335-0.072-0.579-0.079c-0.122-0.013-0.251,0.007-0.389,0.017
		c-0.141,0.006-0.285,0.038-0.431,0.07c-0.299,0.063-0.597,0.182-0.892,0.311c-0.284,0.147-0.562,0.304-0.797,0.487
		c-0.242,0.176-0.446,0.365-0.609,0.537C75.138,205.747,74.986,206.035,74.986,206.035z"/>
</g>
<g id="right_x5F_arm">
	<path fill="#F4D9BF" d="M45.745,113.955c0,0-12.78,16.968-10.334,33.807c4.615-0.815,8.293,1.564,8.338,3.306
		c-0.044,1.522-4.394-1.044-7.18-0.521c5.7,3.175,6.613,6.614,5.875,7.398c-0.738,0.781-3.394-1.57-7.745-6.005
		c1.479,4.393,1.173,7.44,0.347,7.397c-0.827-0.043-2.437-2.35-3.697-6.267c-0.958,3.395-0.393,5.658-1.787,5.438
		c-1.39-0.218-1.26-3.872-1.172-6.221c-2.308,3.654-3.179,3.872-3.787,3.482c-0.611-0.392,0.96-5.562,4.287-7.056
		c-3.528-11.476-2.037-30.692,6.112-40.605C39.347,110.008,45.745,113.955,45.745,113.955z"/>
	<path fill="#DC9015" d="M59.718,90.86c0,0-10.455,15.076-13.443,24.173c-6.52-4.48-12.224-6.654-12.224-6.654
		S45.187,91.13,59.718,90.86z"/>
</g>
<g id="left_x5F_arm">
	<path fill="#F4D9BF" d="M81.152,113.585c0,0,12.78,16.968,10.334,33.807c-4.615-0.814-8.293,1.564-8.338,3.308
		c0.044,1.521,4.394-1.045,7.18-0.522c-5.7,3.175-6.613,6.614-5.875,7.397c0.739,0.782,3.395-1.568,7.745-6.005
		c-1.479,4.394-1.174,7.44-0.347,7.398c0.826-0.043,2.437-2.351,3.696-6.267c0.958,3.395,0.393,5.658,1.788,5.438
		c1.39-0.217,1.26-3.872,1.172-6.22c2.308,3.654,3.179,3.872,3.787,3.481c0.611-0.39-0.96-5.562-4.288-7.055
		c3.528-11.477,2.037-30.693-6.111-40.605C87.55,109.638,81.152,113.585,81.152,113.585z"/>
	<path fill="#DC9015" d="M67.178,90.491c0,0,10.456,15.076,13.443,24.173c6.52-4.481,12.224-6.655,12.224-6.655
		S81.709,90.761,67.178,90.491z"/>
</g>
<path fill="#F1C7A4" d="M59.302,89.948c0,0,0.339,1.358,0.813,3.325c0.476,1.971,2.445,3.193,4.822,2.784
	c2.376-0.405,2.307-1.357,2.307-3.122c0-1.767-0.134-3.394-0.134-3.394L59.302,89.948z"/>
<g>
	<path fill="#186D1C" d="M60.571,169.759c-1.034-0.178-2.052-0.303-3.027-0.392c-0.066,0.468-0.123,0.981-0.13,1.474
		C58.956,170.5,60.571,169.759,60.571,169.759z"/>
	<path fill="#186D1C" d="M44.976,170.234c-1.829,0.436-2.88,0.846-2.88,0.846c0.937,0.581,3.021,0.844,3.021,0.844
		C45.051,171.375,45.005,170.787,44.976,170.234z"/>
</g>
<g>
	<path fill="#186D1C" d="M64.368,169.936c2.6,0.205,7.422,0.015,7.422,0.015l-0.84-2.275
		C66.713,168.833,64.368,169.936,64.368,169.936z"/>
	<path fill="#186D1C" d="M91.184,165.022c-1.729,0.005-3.385,0.068-4.969,0.168c0.159,0.749,0.337,1.479,0.523,2.031
		C89.771,166.135,91.184,165.022,91.184,165.022z"/>
</g>
<g>
	<path fill="#75B73E" d="M89.983,154.127c-0.723-3.616-1.491-6.429-1.491-6.429c-1.636,0.006-3.396-0.267-5.329-0.699
		C84.044,149.713,85.977,153.498,89.983,154.127z"/>
	<path fill="#3B9B45" d="M83.164,147c-1.224-0.275-2.517-0.611-3.897-0.992c-15.965,2.721-25.909,2.184-29.999,1.722
		c-0.277,1.813-1.235,5.252-4.535,6.504c-2.354,8.599-2.637,16.846-2.637,16.846s7.935-3.111,18.476-1.321
		c-0.479-8.167,1.768-12.758,1.768-12.758c-0.25,5.924,2.028,12.935,2.028,12.935s10.298-4.85,26.816-4.913
		c0.135-3.189-0.508-7.415-1.2-10.895C85.977,153.498,84.044,149.713,83.164,147z"/>
	<path fill="#75B73E" d="M49.267,147.73c-1.44-0.164-2.161-0.316-2.161-0.316c-0.964,2.197-1.742,4.523-2.374,6.821
		C48.032,152.982,48.99,149.542,49.267,147.73z"/>
</g>
<path opacity="0.4" fill="#A1BF35" d="M46.148,154.957c0,0-1.972,4.638-2.602,14.573c0,0,5.937-3.371,15.92-0.583
	C59.467,168.947,47.471,163.965,46.148,154.957z"/>
<path fill="none" d="M62.881,150.695c0,0-1.031,7.573,1.641,17.075c0,0,10.781-3.833,19.694-3.214
	C84.216,164.556,66.309,163.72,62.881,150.695z"/>
<defs>
	<filter id="Adobe_OpacityMaskFilter" filterUnits="userSpaceOnUse" x="62.686" y="150.695" width="21.53" height="17.075">
		<feFlood  style="flood-color:white;flood-opacity:1" result="back"/>
		<feBlend  in="SourceGraphic" in2="back" mode="normal"/>
	</filter>
</defs>
<mask maskUnits="userSpaceOnUse" x="62.686" y="150.695" width="21.53" height="17.075" id="SVGID_1_">
	<g filter="url(#Adobe_OpacityMaskFilter)">
	</g>
</mask>
<path opacity="0.4" mask="url(#SVGID_1_)" fill="#A1BF35" d="M62.881,150.695c0,0-1.031,7.573,1.641,17.075
	c0,0,10.781-3.833,19.694-3.214C84.216,164.556,66.309,163.72,62.881,150.695z"/>
<path fill="#F1C7A4" d="M64.357,99.796c5.29-0.454,4.22-9.064,4.22-9.084c-0.377-0.04-0.667-0.064-0.843-0.07l-0.209-0.006
	c-5.342,0.626-8.969-0.079-8.969-0.079S57.44,100.393,64.357,99.796z"/>
<path fill="#E7B040" d="M83.763,120.335c-5.444-24.823-11.562-29.298-11.57-29.302c-1.818-0.542-3.236-0.763-4.119-0.86
	c0,0.021,1.01,8.629-4.042,9.09c-6.606,0.605-5.529-9.233-5.529-9.233c-4.25,6.069-7.025,10.509-9.236,14.97
	c-6.461,13.033-3.544,43.195-3.544,43.195s13.579,5.932,40.492,1.201l2.484-0.909C88.524,129.511,83.763,120.335,83.763,120.335z"/>
<path opacity="0.2" fill="#FFFFFF" d="M56.37,98.361c0,0-6.373,24.833-0.772,47.32c-6.893,1.101-6.898-0.448-6.898-0.448
	S42.586,119.199,56.37,98.361z"/>
<g id="head">
	<path fill="#4B8C3D" d="M24.819,49.174c2.079-1.804,5.086-3.702,5.086-3.702C11.542,50.44,6.361,59.506,7.935,66.177
		C8.921,57.203,17.873,51.939,24.819,49.174z"/>
	<path fill="#925F2D" d="M23.008,49.592c1.218,1.413,10.903-3.529,10.903-3.529s-3.354,3.365-2.652,4.647
		c0.705,1.281,6.125-2.553,6.125-2.553s-3.537,4.053-2.645,5.531c0.892,1.482,15.043-2.633,19.199-4.653
		c0,0-3.143,2.454-2.634,3.572c0.509,1.118,14.097-1.788,17.816-3.697c0,0-2.893,3.065-1.547,4.279
		c1.346,1.212,11.023-4.577,11.023-4.577s4.393,6.123,7.101,6.536c2.711,0.415,0.647-5.653,0.647-5.653s10.906,7.607,13.965,7.744
		c3.062,0.138-0.128-4.47-0.128-4.47s3.071,3.799,8.327,6.996c0,0,8.731,4.389,10.131,2.319c1.403-2.067-5.713-6.645-5.713-6.645
		s10.102-2.083,9.367-4.924c-0.734-2.84-9.523,0.24-9.523,0.24c-48.334-10.758-82.866-7.694-82.866-7.694
		S21.79,48.182,23.008,49.592z"/>
	<path fill="#F4D9BF" d="M103.872,67.402c0.583-2.883,1.593-6.116,1.637-9.685c-3.4-2.576-5.327-4.949-5.327-4.949
		s3.19,4.607,0.128,4.47c-3.059-0.136-13.965-7.744-13.965-7.744s2.063,6.068-0.647,5.653c-2.708-0.413-7.101-6.536-7.101-6.536
		s-9.677,5.79-11.023,4.577c-1.345-1.214,1.547-4.279,1.547-4.279c-3.719,1.91-17.307,4.815-17.816,3.697
		c-0.509-1.118,2.634-3.572,2.634-3.572c-3.495,1.698-14.053,4.875-17.856,4.966c-0.333,10.201-5.288,14.702-3.411,18.758
		c6.933,11.979,25.219,17.458,25.219,17.458s5.68,1.644,10.654,1.905c33.089,0.059,34.294-15.185,34.294-15.185
		C103.303,74.026,103.14,71.058,103.872,67.402z"/>
	<path fill="#925F2D" d="M106.822,64.344l1.687-4.58c-1.102-0.67-2.1-1.365-3-2.047c-0.036,2.816-0.67,5.419-1.222,7.811
		C104.95,64.98,105.791,64.508,106.822,64.344z"/>
	<path fill="#F4D9BF" d="M111.688,68.188c-1-4.252-4.866-3.843-4.866-3.843c-1.031,0.164-1.873,0.636-2.536,1.184
		c-0.148,0.64-0.291,1.266-0.415,1.875c-0.732,3.656-0.569,6.624-1.033,9.535C106.568,79.59,112.688,72.438,111.688,68.188z"/>
	<path fill="#F4D9BF" d="M35.923,56.259c-3.218-6.196-10.88-4.112-9.964,2.899c1.08,8.218,8.064,5.11,8.094,5.098
		C34.812,62.074,35.587,59.479,35.923,56.259z"/>
	<path fill="#4B8C3D" d="M75.189,1.995C31.102-2.214,29.905,43.061,29.905,43.061s5.486-0.485,15.14-0.389
		C49.542,3.183,70.045,1.727,75.189,1.995z"/>
	<path fill="#A1BF35" d="M76.365,2.108c-0.398-0.045-0.785-0.077-1.176-0.114c-5.144-0.268-25.647,1.188-30.145,40.677
		c11.852,0.116,29.99,1.109,51.989,4.958l0,0C101.56,5.391,76.365,2.108,76.365,2.108z"/>
	<path fill="#69A840" d="M76.365,2.108c0,0,25.195,3.282,20.668,45.521l0,0c5.052,0.882,10.307,1.918,15.737,3.125
		C112.771,50.755,119.508,7.009,76.365,2.108z"/>
	<path fill="#925F2D" d="M56.399,38.603c0,0,18.44,1.092,25.342,2.887c0,0,1.719-13.094-11.171-14.584
		C57.376,25.381,56.399,38.603,56.399,38.603z"/>
	<g>
		<path fill="#413000" d="M54.678,66.217c-0.341,2.868-1.65,5.072-2.918,4.918c-1.269-0.152-2.017-2.602-1.676-5.469
			c0.343-2.868,1.652-5.07,2.921-4.918C54.271,60.898,55.025,63.346,54.678,66.217z"/>
		
			<ellipse transform="matrix(0.9929 0.119 -0.119 0.9929 8.0869 -5.7865)" fill="#FFFFFF" cx="52.507" cy="64.837" rx="1.301" ry="2.605"/>
	</g>
	<g>
		
			<ellipse transform="matrix(0.9929 0.1191 -0.1191 0.9929 8.8081 -9.1052)" fill="#413000" cx="80.602" cy="69.158" rx="2.313" ry="5.23"/>
		
			<ellipse transform="matrix(0.9929 0.1187 -0.1187 0.9929 8.6488 -9.1013)" fill="#FFFFFF" cx="80.727" cy="68.053" rx="1.302" ry="2.603"/>
	</g>
	<path fill="#64421C" d="M47.975,60.197c0.471,0.196,1.368-3.39,4.625-3.726c3.261-0.338,4.318,4.78,4.805,4.676
		c0.451-0.096-0.497-6.384-3.959-6.749C49.223,53.949,47.482,59.994,47.975,60.197z"/>
	<path fill="#64421C" d="M76.3,63.426c0.471,0.196,1.366-3.39,4.625-3.728c3.261-0.338,4.317,4.779,4.804,4.676
		c0.451-0.096-0.495-6.382-3.96-6.75C77.548,57.177,75.806,63.222,76.3,63.426z"/>
	<path fill="#BF946F" d="M67.337,70.885c0,0-0.192-0.144-0.554-0.349c-0.357-0.207-0.9-0.46-1.573-0.609
		c-0.339-0.083-0.713-0.099-1.092-0.063c-0.375,0.031-0.792,0.173-1.108,0.364c-0.083,0.061-0.208,0.119-0.261,0.189
		c-0.056,0.072-0.114,0.138-0.173,0.204c-0.095,0.168-0.219,0.336-0.264,0.543c-0.15,0.391-0.146,0.841-0.083,1.267
		c0.044,0.213,0.078,0.431,0.171,0.633c0.043,0.101,0.074,0.208,0.124,0.305l0.166,0.281c0.224,0.374,0.513,0.702,0.836,0.975
		c0.144,0.155,0.343,0.24,0.506,0.365c0.162,0.126,0.343,0.218,0.525,0.298c0.346,0.192,0.709,0.298,1.045,0.399
		c0.164,0.062,0.332,0.091,0.489,0.118c0.157,0.034,0.307,0.063,0.448,0.092c0.282,0.072,0.535,0.074,0.742,0.094
		c0.417,0.042,0.655,0.066,0.655,0.066s-0.237,0.022-0.657,0.046c-0.212,0.008-0.47,0.04-0.763,0.008
		c-0.292-0.032-0.634-0.01-0.99-0.109c-0.358-0.077-0.752-0.155-1.144-0.33c-0.202-0.071-0.404-0.154-0.596-0.275
		c-0.194-0.115-0.409-0.215-0.582-0.378c-0.372-0.289-0.729-0.641-0.992-1.074l-0.195-0.325c-0.061-0.112-0.1-0.236-0.15-0.354
		c-0.109-0.233-0.155-0.488-0.21-0.741c-0.069-0.511-0.066-1.05,0.123-1.543c0.064-0.254,0.225-0.474,0.372-0.692
		c0.094-0.103,0.195-0.204,0.294-0.298c0.101-0.098,0.196-0.128,0.292-0.194c0.458-0.253,0.906-0.341,1.348-0.351
		c0.438-0.008,0.846,0.05,1.2,0.167c0.716,0.216,1.219,0.581,1.555,0.83C67.18,70.706,67.337,70.885,67.337,70.885z"/>
	<g>
		<path fill="#BF946F" d="M28.42,57.944c0,0,0.039-0.166,0.115-0.451c0.022-0.071,0.043-0.149,0.067-0.236
			c0.04-0.082,0.083-0.171,0.128-0.268c0.05-0.096,0.1-0.202,0.154-0.311c0.067-0.101,0.154-0.196,0.237-0.3
			c0.154-0.223,0.407-0.394,0.673-0.562c0.147-0.061,0.298-0.131,0.46-0.188c0.168-0.027,0.341-0.05,0.519-0.069
			c0.178,0.021,0.358,0.042,0.541,0.065c0.171,0.063,0.345,0.13,0.518,0.202c0.155,0.101,0.306,0.21,0.458,0.319
			c0.14,0.119,0.256,0.265,0.384,0.397c0.138,0.128,0.202,0.303,0.305,0.452c0.099,0.154,0.183,0.311,0.237,0.478
			c0.066,0.165,0.127,0.327,0.183,0.49c0.036,0.167,0.069,0.332,0.103,0.493c0.083,0.321,0.077,0.641,0.092,0.937
			c0.029,0.297-0.009,0.577-0.035,0.835c-0.028,0.254-0.035,0.49-0.096,0.692c-0.045,0.202-0.09,0.378-0.123,0.525
			c-0.071,0.289-0.119,0.449-0.119,0.449s-0.001-0.173,0.008-0.466c0.005-0.146,0.013-0.325,0.022-0.529
			c0.018-0.203-0.022-0.432-0.024-0.681c-0.009-0.247-0.011-0.516-0.064-0.792c-0.043-0.278-0.065-0.573-0.16-0.861
			c-0.037-0.145-0.079-0.293-0.117-0.442c-0.063-0.141-0.123-0.282-0.181-0.426c-0.05-0.149-0.126-0.282-0.213-0.41
			c-0.091-0.123-0.147-0.278-0.263-0.378c-0.105-0.109-0.197-0.233-0.309-0.333l-0.357-0.259c-0.134-0.053-0.263-0.112-0.391-0.173
			c-0.14-0.026-0.276-0.053-0.411-0.077c-0.136,0.009-0.269,0.022-0.404,0.025c-0.129,0.039-0.254,0.077-0.378,0.112
			c-0.122,0.042-0.221,0.128-0.333,0.184c-0.115,0.053-0.203,0.139-0.29,0.221c-0.084,0.082-0.175,0.157-0.25,0.235
			c-0.065,0.086-0.129,0.168-0.188,0.247c-0.061,0.08-0.118,0.154-0.169,0.225c-0.04,0.078-0.078,0.15-0.11,0.218
			C28.503,57.797,28.42,57.944,28.42,57.944z"/>
		<path fill="#BF946F" d="M29.74,59.621c0,0,0.07,0.066,0.179,0.192c0.055,0.064,0.119,0.147,0.208,0.203
			c0.09,0.061,0.166,0.143,0.289,0.188c0.056,0.022,0.112,0.058,0.173,0.077c0.064,0.01,0.128,0.025,0.194,0.042
			c0.063,0.025,0.136,0.003,0.203,0.006c0.071,0.002,0.141,0.003,0.215-0.021c0.144-0.016,0.282-0.091,0.43-0.144
			c0.134-0.085,0.279-0.158,0.396-0.274c0.136-0.093,0.235-0.23,0.344-0.349c0.088-0.138,0.195-0.26,0.256-0.407
			c0.082-0.136,0.122-0.281,0.173-0.419c0.048-0.141,0.059-0.28,0.093-0.41c0.013-0.13,0.013-0.252,0.022-0.362
			c0.013-0.112-0.013-0.208-0.014-0.289c-0.012-0.166-0.018-0.263-0.018-0.263s0.048,0.079,0.128,0.231
			c0.034,0.077,0.102,0.167,0.122,0.284c0.029,0.117,0.074,0.25,0.093,0.399c0.001,0.15,0.027,0.318-0.003,0.493
			c-0.028,0.171-0.044,0.362-0.128,0.538c-0.061,0.186-0.16,0.362-0.275,0.535c-0.128,0.157-0.25,0.333-0.42,0.46
			c-0.158,0.143-0.349,0.238-0.534,0.338c-0.2,0.075-0.398,0.136-0.606,0.144c-0.103,0.016-0.204,0.009-0.305-0.009
			c-0.096-0.02-0.192-0.02-0.279-0.064c-0.089-0.039-0.173-0.072-0.25-0.109c-0.075-0.048-0.136-0.106-0.198-0.154
			c-0.131-0.09-0.202-0.227-0.276-0.327c-0.078-0.103-0.102-0.199-0.131-0.277C29.769,59.713,29.74,59.621,29.74,59.621z"/>
	</g>
	<g>
		<path fill="#BF946F" d="M108.903,70.045c0,0-0.054-0.152-0.133-0.419c-0.024-0.141-0.123-0.279-0.212-0.436
			c-0.068-0.167-0.245-0.294-0.379-0.459c-0.184-0.119-0.368-0.258-0.606-0.314c-0.108-0.053-0.234-0.053-0.357-0.063
			c-0.064,0-0.126-0.014-0.187-0.009l-0.191,0.029l-0.193,0.029l-0.184,0.077l-0.184,0.074l-0.168,0.114
			c-0.113,0.075-0.232,0.146-0.319,0.261c-0.086,0.111-0.208,0.189-0.269,0.322l-0.224,0.364c-0.058,0.132-0.1,0.272-0.157,0.407
			l-0.071,0.202l-0.045,0.211c-0.027,0.141-0.053,0.282-0.083,0.419c-0.034,0.279-0.032,0.558-0.055,0.821
			c-0.009,0.264,0.029,0.514,0.033,0.75c0.016,0.23,0.022,0.448,0.058,0.637c0.03,0.189,0.054,0.356,0.075,0.494
			c0.04,0.275,0.055,0.436,0.055,0.436s-0.063-0.146-0.162-0.407c-0.048-0.131-0.109-0.292-0.176-0.477
			c-0.079-0.181-0.131-0.397-0.176-0.635c-0.042-0.24-0.123-0.497-0.134-0.778c-0.01-0.282-0.045-0.58-0.02-0.891
			c0.02-0.157,0.039-0.314,0.062-0.474l0.032-0.244l0.081-0.237c0.057-0.158,0.107-0.32,0.172-0.48l0.262-0.448
			c0.084-0.156,0.234-0.265,0.346-0.397c0.115-0.135,0.267-0.228,0.417-0.324c0.073-0.046,0.146-0.098,0.222-0.138l0.249-0.085
			l0.244-0.08c0.083-0.011,0.17-0.018,0.254-0.024c0.166-0.022,0.333-0.029,0.492,0.015c0.161,0.027,0.315,0.049,0.452,0.128
			c0.292,0.101,0.5,0.309,0.688,0.484c0.145,0.218,0.3,0.396,0.343,0.607c0.066,0.199,0.131,0.362,0.125,0.501
			C108.901,69.884,108.903,70.045,108.903,70.045z"/>
		<path fill="#BF946F" d="M107.859,71.516c0,0-0.241,0.165-0.654,0.282c-0.405,0.114-1,0.204-1.604-0.016
			c-0.149-0.042-0.288-0.149-0.423-0.234c-0.117-0.115-0.243-0.227-0.31-0.375c-0.035-0.071-0.076-0.136-0.098-0.206
			c-0.014-0.073-0.026-0.142-0.04-0.211c-0.038-0.135-0.022-0.259-0.006-0.372c0.014-0.112,0.019-0.215,0.054-0.298
			c0.032-0.083,0.061-0.154,0.087-0.211c0.047-0.115,0.083-0.178,0.083-0.178s0.013,0.076,0.031,0.194
			c0.005,0.061,0.015,0.131,0.023,0.215c-0.002,0.08,0.038,0.167,0.052,0.259c0.019,0.093,0.042,0.189,0.091,0.277
			c0.021,0.045,0.041,0.09,0.06,0.136l0.092,0.119c0.042,0.089,0.149,0.129,0.215,0.205c0.099,0.048,0.179,0.115,0.295,0.141
			c0.206,0.096,0.461,0.122,0.691,0.165c0.239,0.024,0.466,0.048,0.67,0.059C107.584,71.497,107.859,71.516,107.859,71.516z"/>
	</g>
	<path fill="#69A840" d="M35.923,56.259c0.077-0.721,0.133-1.471,0.159-2.258c-0.719,0.016-1.2-0.077-1.342-0.313
		c-0.893-1.479,2.645-5.531,2.645-5.531s-5.421,3.834-6.125,2.553c-0.702-1.282,2.652-4.647,2.652-4.647s-9.685,4.941-10.903,3.529
		c-0.477-0.551,0.476-1.669,1.811-2.829c-6.946,2.765-15.897,8.029-16.884,17.002c0.745,3.149,2.993,5.766,6.075,7.161
		c9.605,4.357,18.662,1.833,18.662,1.833c-1.086-2.346,0.114-4.845,1.382-8.503c-0.03,0.013-7.015,3.121-8.094-5.098
		C25.043,52.147,32.705,50.063,35.923,56.259z"/>
	<path fill="#EC675E" d="M58.353,88.884c1.673,0.958,3.824,1.671,6.589,1.916c2.124,0.189,3.936-0.083,5.473-0.625
		C65.121,83.665,59.992,87.378,58.353,88.884z"/>
	<path fill="#FFFFFF" d="M64.623,83.424c7.263,0.317,9.219-0.293,10.164-1.932c-7.21-2.34-14.277-2.13-18.442-1.672
		C56.787,81.031,58.441,83.157,64.623,83.424z"/>
	<path id="mouth" fill="#F29398" d="M77.941,82.681c-1.047-0.455-2.102-0.847-3.154-1.188c-0.945,1.639-2.901,2.249-10.164,1.932
		c-6.182-0.267-7.836-2.393-8.278-3.604c-2.348,0.259-3.777,0.596-3.777,0.596c0.355,1.948,1.509,6.01,5.786,8.467
		c1.639-1.505,6.768-5.219,12.063,1.292C76,88.208,77.941,82.681,77.941,82.681z"/>
	<path opacity="0.3" fill="#FFFFFF" d="M31.366,41.432c0,0,1.792-42.609,44.968-37.688c0,0-14.2,4.535-15.417,23.277
		c0,0-9.413,2.93-9.73,13.501C51.186,40.522,39.454,39.558,31.366,41.432z"/>
</g>
</svg>
