<?xml version="1.0" encoding="utf-8"?>
<!-- Generator: Adobe Illustrator 16.0.0, SVG Export Plug-In . SVG Version: 6.00 Build 0)  -->
<!DOCTYPE svg PUBLIC "-//W3C//DTD SVG 1.1//EN" "http://www.w3.org/Graphics/SVG/1.1/DTD/svg11.dtd">
<svg version="1.1" id="Ebene_1" xmlns="http://www.w3.org/2000/svg" xmlns:xlink="http://www.w3.org/1999/xlink" x="0px" y="0px"
	 width="130px" height="210px" viewBox="0 0 130 210" enable-background="new 0 0 130 210" xml:space="preserve">
<path fill="#F1C7A4" d="M72.347,140.97c0,0-5.11,37.956-9.398,53.271c0,0-2.077,10.68-0.825,11.574
	c4.782,3.403,10.719-9.021,15.008-21.957c4.285-12.931,10.717-42.546,10.717-42.546L72.347,140.97z"/>
<path fill="#FFD554" d="M71.922,191.962c-1-0.25-2.081-0.573-3.137-1.001c-0.559-0.212-1.103-0.466-1.621-0.759
	c-1.047-0.57-2-1.273-2.744-2.138c-0.487,2.087-0.974,3.997-1.451,5.648c0,0-2.215,11.04-0.88,11.963
	c3.864,2.664,8.432-4.061,12.412-13.288C73.632,192.316,72.767,192.176,71.922,191.962z"/>
<path fill="#DC9015" d="M67.21,201.594c-1.475,0.264-2.924-0.474-3.767-1.68c-0.719-1.033-0.942-2.131-1.007-3.264
	c-0.554,3.341-1.234,8.411-0.347,9.025c2.69,1.854,5.725-0.843,8.662-5.768C69.675,200.744,68.487,201.365,67.21,201.594z"/>
<path fill="#F4D9BF" d="M49.148,141.99c0,0,6.715,39.035,11.794,54.711c0,0,2.572,10.965,1.263,11.929
	c-4.984,3.68-11.726-8.954-16.729-22.167c-5-13.216-12.841-43.589-12.841-43.589L49.148,141.99z"/>
<path fill="#FFE754" d="M51.957,195.057c0.993-0.282,2.063-0.639,3.104-1.102c0.551-0.23,1.086-0.5,1.594-0.811
	c1.031-0.604,1.961-1.337,2.674-2.23c0.554,2.075,1.103,3.966,1.632,5.603c0,0,2.572,10.965,1.263,11.929
	c-3.775,2.789-8.559-3.786-12.83-12.878C50.261,195.464,51.12,195.297,51.957,195.057z"/>
<path fill="#E7B040" d="M56.976,204.532c1.482,0.216,2.907-0.569,3.71-1.8c0.689-1.056,0.874-2.165,0.901-3.297
	c0.663,3.319,1.506,8.37,0.637,9.011c-2.629,1.939-5.748-0.659-8.841-5.485C54.485,203.759,55.694,204.343,56.976,204.532z"/>
<path fill="#FBB925" d="M91.27,22.149c0,0,19.35,4.288,18.118,34.309c-1.197,13.181-3.846,21.426,0.8,25.833
	c-2.077,1.741-2.077,1.741-2.077,1.741s-3.006-3.264-4.538-8.58c0.387,8.66-1.132,10.34-1.132,10.34l-8.06-1.081
	c0,0,0.617-4.391,0.827-7.892c-1.562,6.619-2.661,8.182-2.661,8.182l-6.756-2.818c0,0,1.92-2.587,2.333-6.535
	c-2.781,5.565-4.7,6.625-4.7,6.625L77.773,79.5c0,0,5.858-8.445,5.731-14.963C85.166,52.646,91.27,22.149,91.27,22.149z"/>
<path fill="#A1BF35" d="M38.097,139.589c0.014-15.324,0.17-47.629,19.105-58.585c12.8-7.406,26.756,43.211,26.756,58.88
	C83.959,150.698,38.097,139.589,38.097,139.589"/>
<path fill="#F1C7A4" d="M55.683,82.037c0,0,0.353,1.415,0.847,3.461c0.495,2.051,2.543,3.32,5.018,2.897
	c2.472-0.423,2.402-1.414,2.402-3.25c0-1.838-0.142-3.532-0.142-3.532L55.683,82.037z"/>
<g id="face">
	<path fill="#F4D9BF" d="M87.606,32.392l-3.991-0.46c0,0,0.82-1.924-0.938-6.925c-0.025,2.554-1.095,7.052-1.095,7.052
		l-15.969,0.213c0,0-0.185-4.587,2.045-9.835c-4.456,3.481-3.527,9.625-3.527,9.625L52.17,32.945c0,0-1.194-4.487,0.426-9.958
		c-1.587,1.57-2.954,4.608-2.32,10.002c-6.13,0.739-17.048,3.117-17.048,3.117s-1.02-6.051,1.157-12.085
		c-4.008,5.178-2.889,12.163-2.889,12.163s0,0-6.093,0.926c4.603,11.23,0.244,23.333,0.244,23.333l-0.005,0.003
		c-0.105,0.647-0.231,1.364-0.383,2.17c-0.729,6.119,11.174,17.615,29.125,19.828c17.27,2.131,32.526-9.878,35.991-18.42
		c0.115-0.328,0.231-0.654,0.36-0.997C96.538,47.626,87.606,32.392,87.606,32.392z"/>
	<path fill="#FDCB68" d="M25.403,37.109c6.093-0.926,6.093-0.926,6.093-0.926s-1.119-6.985,2.889-12.163
		c-2.177,6.035-1.157,12.085-1.157,12.085s10.918-2.377,17.048-3.117c-0.633-5.395,0.733-8.432,2.32-10.002
		c-1.621,5.471-0.426,9.958-0.426,9.958l11.959-0.883c0,0-0.929-6.145,3.527-9.625c-2.23,5.248-2.045,9.835-2.045,9.835
		l15.969-0.213c0,0,1.07-4.498,1.095-7.052c1.759,5.001,0.938,6.925,0.938,6.925l3.991,0.46c0,0,8.932,15.234,3.129,30.634
		c12.508-8.973,13.381-13.684,12.562-28.624c-1.471-17.005-16.203-32.285-37.75-33.016c-21.545-0.73-29.991,8.456-29.991,8.456
		c-19.583,8.335-17.211,29.311-17.211,29.311s0,0,1.127-0.394c0.352,7.618,4.158,11.922,4.158,11.922
		c2.129,3.828,2.853,4.504,2.012,9.763l0.005-0.003C25.647,60.442,30.006,48.339,25.403,37.109z"/>
</g>
<path fill="#F4D9BF" d="M92.762,52.521c0,0-0.059,5.448-1.791,10.119c1.352,3.024,9.569,1.417,10.578-4.865
	C102.563,51.494,96.935,47.338,92.762,52.521z"/>
<path fill="#F1C7A4" d="M27.401,51.353c0,0-5.249-3.644-8.232,3.261c-2.174,6.258,3.141,10.559,6.158,8.656
	C26.142,58.942,27.564,52.943,27.401,51.353z"/>
<g>
	<path fill="#BF946F" d="M94.317,55.861c0.153-0.216,0.309-0.426,0.472-0.616c1.012-1.21,3.066-1.827,4.336-0.557
		c0.891,0.897,1.096,1.934,0.834,3.064c-0.017-0.704-0.212-1.411-0.641-1.937c-0.843-1.038-2.229-1.147-3.255-0.268
		c-0.896,0.764-1.042,2.248-0.249,3.111c0.146,0.24,0.342,0.45,0.57,0.547c0.162,0.066,0.343,0.093,0.534,0.09
		c0.53,0.12,1.04,0.003,1.466-0.317c-0.396,1-1.627,1.537-2.664,1.14c-0.537-0.206-0.995-0.653-1.327-1.19
		c-0.32,1.17-0.242,2.424,0.672,3.294c0.032,0.032,0.057,0.07,0.075,0.11c-0.798-0.221-1.447-1.821-1.571-2.388
		C93.257,58.479,93.777,57.188,94.317,55.861z"/>
</g>
<g>
	<path fill="#BF946F" d="M25.033,55.321c-0.083-0.206-0.173-0.41-0.269-0.597c-0.6-1.188-2.175-2.074-3.472-1.257
		c-0.914,0.577-1.285,1.394-1.291,2.377c0.15-0.58,0.45-1.127,0.91-1.483c0.899-0.704,2.065-0.537,2.741,0.376
		c0.59,0.8,0.42,2.051-0.405,2.617c-0.168,0.174-0.368,0.311-0.577,0.351c-0.146,0.023-0.305,0.01-0.46-0.027
		c-0.458,0.003-0.86-0.187-1.149-0.534c0.134,0.9,1.043,1.574,1.978,1.438c0.485-0.074,0.95-0.357,1.332-0.74
		c0.032,1.027-0.275,2.047-1.202,2.597c-0.032,0.02-0.06,0.046-0.083,0.076c0.704-0.033,1.554-1.237,1.765-1.683
		C25.396,57.681,25.22,56.515,25.033,55.321z"/>
</g>
<defs>
	<filter id="Adobe_OpacityMaskFilter" filterUnits="userSpaceOnUse" x="19.024" y="4.268" width="32.149" height="32.048">
		<feColorMatrix  type="matrix" values="1 0 0 0 0  0 1 0 0 0  0 0 1 0 0  0 0 0 1 0"/>
	</filter>
</defs>
<mask maskUnits="userSpaceOnUse" x="19.024" y="4.268" width="32.149" height="32.048" id="SVGID_1_">
	<g filter="url(#Adobe_OpacityMaskFilter)">
		<defs>
			<filter id="Adobe_OpacityMaskFilter_1_" filterUnits="userSpaceOnUse" x="19.024" y="4.268" width="32.149" height="32.048">
				<feFlood  style="flood-color:white;flood-opacity:1" result="back"/>
				<feBlend  in="SourceGraphic" in2="back" mode="normal"/>
			</filter>
		</defs>
		<mask maskUnits="userSpaceOnUse" x="19.024" y="4.268" width="32.149" height="32.048" id="SVGID_1_">
			<g filter="url(#Adobe_OpacityMaskFilter_1_)">
			</g>
		</mask>

			<radialGradient id="SVGID_2_" cx="102.9092" cy="-144.8311" r="31.3592" gradientTransform="matrix(1.0002 -0.2417 0.2491 0.9704 -52.758 172.8763)" gradientUnits="userSpaceOnUse">
			<stop  offset="0.0022" style="stop-color:#FFFFFF"/>
			<stop  offset="0.1645" style="stop-color:#FCFCFC"/>
			<stop  offset="0.2947" style="stop-color:#F2F2F2"/>
			<stop  offset="0.4138" style="stop-color:#E1E1E1"/>
			<stop  offset="0.5262" style="stop-color:#C9C9C9"/>
			<stop  offset="0.6341" style="stop-color:#AAAAAA"/>
			<stop  offset="0.7384" style="stop-color:#858585"/>
			<stop  offset="0.8401" style="stop-color:#585858"/>
			<stop  offset="0.937" style="stop-color:#252525"/>
			<stop  offset="1" style="stop-color:#000000"/>
		</radialGradient>
		<path mask="url(#SVGID_1_)" fill="url(#SVGID_2_)" d="M19.024,36.316c0,0,0.545-24.889,32.149-32.048
			c0,0-20.648,12.203-21.712,30.245L19.024,36.316z"/>
	</g>
</mask>
<path opacity="0.4" fill="#FFFFFF" d="M19.024,36.316c0,0,0.545-24.889,32.149-32.048c0,0-20.648,12.203-21.712,30.245
	L19.024,36.316z"/>
<g>

		<ellipse transform="matrix(0.9951 -0.0986 0.0986 0.9951 -5.2953 4.7506)" fill="#413000" cx="45.403" cy="55.936" rx="2.421" ry="5.359"/>
	<path fill="#FFFFFF" d="M45.115,54.351c0.095,0.95-0.175,1.75-0.603,1.794c-0.427,0.04-0.851-0.69-0.944-1.637
		c-0.094-0.947,0.177-1.75,0.604-1.794C44.598,52.67,45.021,53.404,45.115,54.351z"/>
</g>
<g>
	<path fill="#413000" d="M72.807,52.97c0.292,2.944-0.548,5.438-1.88,5.572c-1.329,0.133-2.646-2.151-2.936-5.095
		c-0.293-2.948,0.55-5.441,1.877-5.574C71.2,47.739,72.516,50.022,72.807,52.97z"/>

		<ellipse transform="matrix(0.9952 -0.0982 0.0982 0.9952 -4.7431 7.0608)" fill="#FFFFFF" cx="69.335" cy="51.7" rx="0.778" ry="1.722"/>
</g>
<g>
	<path fill="#BF946F" d="M55.467,58.602c2.107-1.851,4.57,0.879,4.57,0.879s-2.426-3.934-5.691-0.906
		c-3.266,3.021,1.075,7.372,6.026,4.794C55.488,65.086,52.729,61.012,55.467,58.602z"/>
</g>
<path fill="#F3903E" d="M49.533,51.364c0,0-6.57-13.771-9.703,0.533c0,0-0.483-6.752,3.431-8.385
	C47.172,41.878,49.533,51.364,49.533,51.364z"/>
<path fill="#F3903E" d="M76.461,48.152c0,0-7.074-13.66-11.063,0.827c0,0-0.352-6.782,4.153-8.542
	C74.052,38.68,76.461,48.152,76.461,48.152z"/>
<g id="mouth">
	<path fill="#EC675E" d="M53.351,78.987c2.36,0.656,5.228,0.863,8.708,0.296c2.674-0.434,4.82-1.337,6.543-2.483
		C60.045,70.445,54.894,76.623,53.351,78.987z"/>
	<path fill="#FFFFFF" d="M59.357,70.308c9.041-1.886,11.258-3.25,11.91-5.565c-9.607-0.623-18.245,1.851-23.228,3.719
		C48.959,69.815,51.665,71.911,59.357,70.308z"/>
	<path fill="#F29398" d="M75.523,65.22c-1.434-0.234-2.856-0.387-4.256-0.478c-0.652,2.314-2.869,3.679-11.91,5.565
		c-7.692,1.604-10.397-0.493-11.318-1.846c-2.811,1.053-4.464,1.913-4.464,1.913c1.049,2.288,3.741,6.932,9.776,8.613
		c1.543-2.364,6.695-8.542,15.252-2.188C74.862,72.631,75.523,65.22,75.523,65.22z"/>
</g>
<path opacity="0.6" fill="#FFFFFF" d="M44.889,131.796l-4.303-0.42c0.075-1.435,0.193-3.127,0.376-5.012l0.006-0.06
	c1.011-10.337,3.973-26.484,12.605-38.599c0,0-6.147,15.482-8.145,36.048C45.174,126.359,44.988,129.047,44.889,131.796"/>
<g id="skirt">
	<path fill="#8B1D59" d="M43.155,168.583c1.056,0.052,1.652,0.026,1.652,0.026c0.169-3.907,0.511-12.196,0.511-12.196
		L43.155,168.583z"/>
	<path fill="#8B1D59" d="M30.404,161.354c0.816,0.316,1.321,0.44,1.321,0.44l4.613-11.402L30.404,161.354z"/>
	<path fill="#8B1D59" d="M59.667,170.5L59.667,170.5c1.465-0.34,2.253-0.627,2.253-0.627l-2.556-12.458L59.667,170.5z"/>
	<path fill="#8B1D59" d="M77.315,167.517c1.223-0.571,1.896-0.967,1.896-0.967l-5.135-10.666L77.315,167.517z"/>
	<path fill="#8B1D59" d="M85.288,149.341l7.895,10.85l1.437,1.104c0.393-0.244,0.756-0.488,1.107-0.733
		C89.616,152.788,85.288,149.341,85.288,149.341z"/>
	<path fill="#8B1D59" d="M101.525,152.949c-0.088-0.103-0.175-0.198-0.27-0.309c-7.422-8.312-17.911-12.508-17.911-12.508
		c-24.222,6.441-45.367-0.288-45.367-0.288c-4.434,4.228-12.634,17.55-12.634,17.55c2.055,1.68,4.103,2.644,5.385,3.146
		l5.934-10.961l-4.612,11.402l-1.416,3.802c5.705,2.305,10.465,2.862,12.845,2.986l2.163-12.17c0,0-0.341,8.289-0.511,12.196v2.796
		c6.832,0.589,12.069-0.256,14.86-0.904l0,0l-0.303-13.085l2.556,12.458l0.405,1.531c6.854-0.508,12.277-2.624,14.991-3.888
		L74.4,155.07l5.136,10.666l1.021,1.581c8.926-2.797,12.949-7.94,12.949-7.94l-7.894-10.85c0,0,4.329,3.447,10.438,11.221
		C100.261,156.796,101.296,153.876,101.525,152.949z"/>
</g>
<path opacity="0.2" fill="#FFFFFF" d="M25.818,157.998c0,0,6.696-11.058,10.969-15.785c0,0-5.365,10.292-6.383,18.473
	C30.404,160.687,26.896,159.792,25.818,157.998z"/>
<path opacity="0.2" fill="#FFFFFF" d="M31.103,164.6l7.99-18.902c0,0-3.41,11.887,3.157,21.819
	C42.25,167.517,35.427,167.517,31.103,164.6z"/>
<path opacity="0.2" fill="#FFFFFF" d="M45.318,170.5l1.703-21.16c0,0,1.542,14.049,11.69,19.952
	C58.711,169.292,53.847,171.867,45.318,170.5z"/>
<path opacity="0.2" fill="#FFFFFF" d="M80.63,167.155l-8.701-17.419c0,0,6.996,8.234,19.616,9.896
	C91.545,159.632,88.118,165.125,80.63,167.155z"/>
<path opacity="0.2" fill="#FFFFFF" d="M95.726,159.55c0,0-6.141-8.233-12.28-11.793c0,0,10.575,4.511,17.053,5.897
	C100.498,153.654,99.101,157.585,95.726,159.55z"/>
<defs>
	<filter id="Adobe_OpacityMaskFilter_2_" filterUnits="userSpaceOnUse" x="58.751" y="150.95" width="17.276" height="19.474">
		<feFlood  style="flood-color:white;flood-opacity:1" result="back"/>
		<feBlend  in="SourceGraphic" in2="back" mode="normal"/>
	</filter>
</defs>
<mask maskUnits="userSpaceOnUse" x="58.751" y="150.95" width="17.276" height="19.474" id="SVGID_3_">
	<g filter="url(#Adobe_OpacityMaskFilter_2_)">
	</g>
</mask>
<path opacity="0.2" mask="url(#SVGID_3_)" fill="#FFFFFF" d="M62.499,170.369l-3.748-19.419c0,0,4.999,10.689,17.276,15.838
	C76.028,166.788,68.523,170.944,62.499,170.369z"/>
<g id="right_arm">
	<path fill="#F4D9BF" d="M40.391,106.767c0,0-13.297,17.658-10.753,35.183c4.805-0.85,8.632,1.626,8.675,3.44
		c-0.043,1.583-4.571-1.087-7.47-0.543c5.931,3.304,6.883,6.882,6.113,7.699c-0.77,0.813-3.531-1.633-8.06-6.252
		c1.539,4.575,1.222,7.746,0.361,7.699c-0.86-0.043-2.535-2.444-3.847-6.522c-0.997,3.534-0.408,5.889-1.857,5.662
		c-1.45-0.227-1.313-4.031-1.224-6.474c-2.401,3.803-3.306,4.031-3.941,3.624c-0.633-0.407,1.003-5.788,4.464-7.342
		c-3.674-11.942-2.121-31.941,6.36-42.257C33.735,102.659,40.391,106.767,40.391,106.767z"/>
	<path fill="#69A840" d="M54.934,82.73c0,0-10.883,15.691-13.991,25.157c-6.784-4.662-12.719-6.925-12.719-6.925
		S39.812,83.014,54.934,82.73z"/>
</g>
<g id="left_arm">
	<path fill="#F4D9BF" d="M78.423,106.637c0,0,13.297,17.658,10.753,35.183c-4.805-0.851-8.633,1.626-8.676,3.44
		c0.043,1.583,4.571-1.087,7.47-0.543c-5.931,3.304-6.883,6.882-6.113,7.699c0.771,0.813,3.531-1.633,8.061-6.252
		c-1.539,4.575-1.222,7.746-0.362,7.699c0.86-0.043,2.536-2.444,3.848-6.522c0.997,3.534,0.408,5.889,1.857,5.662
		c1.45-0.227,1.313-4.031,1.223-6.474c2.401,3.803,3.306,4.031,3.941,3.624c0.633-0.407-1.003-5.788-4.465-7.342
		c3.674-11.942,2.121-31.941-6.36-42.257C85.079,102.529,78.423,106.637,78.423,106.637z"/>
	<path fill="#69A840" d="M63.88,82.601c0,0,10.883,15.691,13.99,25.157c6.785-4.662,12.72-6.925,12.72-6.925
		S79.002,82.884,63.88,82.601z"/>
</g>
</svg>
