<?xml version="1.0" encoding="utf-8"?>
<!-- Generator: Adobe Illustrator 16.0.0, SVG Export Plug-In . SVG Version: 6.00 Build 0)  -->
<!DOCTYPE svg PUBLIC "-//W3C//DTD SVG 1.1//EN" "http://www.w3.org/Graphics/SVG/1.1/DTD/svg11.dtd">
<svg version="1.1" id="Ebene_1" xmlns="http://www.w3.org/2000/svg" xmlns:xlink="http://www.w3.org/1999/xlink" x="0px" y="0px"
	 width="130px" height="210px" viewBox="0 0 130 210" enable-background="new 0 0 130 210" xml:space="preserve">
<g id="legs">
	<path fill="#3B6AAD" d="M75.461,185.505c-0.202,0.721-0.705,0.876-0.705,2.615c0,3.982,6.413,2.938,8.776,3.012
		c0.257-0.75,0.271-1.406,0.533-2.228C81.665,189.07,78.423,188.171,75.461,185.505L75.461,185.505z"/>
	<path fill="#9EC9BF" d="M57.229,191.651c-0.261-0.692-0.51-1.386-0.745-2.078c-3.132,3.163-7.174,3.106-9.979,2.52
		c0.288,0.734,0.589,1.441,0.901,2.13C49.788,194.617,53.734,194.626,57.229,191.651L57.229,191.651z"/>
	<path fill="#3B6AAD" d="M56.484,189.573c-0.131-0.389-0.263-0.771-0.384-1.158c-0.107-0.332-0.203-0.666-0.296-1.006
		c-3.572,3.93-7.652,3.26-10.185,2.221c0.281,0.845,0.575,1.673,0.887,2.463C49.31,192.679,53.352,192.736,56.484,189.573
		L56.484,189.573z"/>
	<path fill="#9EC9BF" d="M74.279,190.091c0.237-0.692,0.201-1.386,0.414-2.078c2.841,3.163,6.528,3.005,9.071,2.417
		c-0.261,0.735-0.54,1.76-0.823,2.448C80.781,193.273,77.449,193.068,74.279,190.091L74.279,190.091z"/>
	<path fill="#E5C5A3" d="M55.804,187.409c-2.379-8.754-0.411-19.802-0.411-19.802c-7.958-1.466-12.224-3.911-12.224-3.911
		c-1.148,10.292,0.125,18.988,2.45,25.934C48.152,190.668,52.232,191.338,55.804,187.409L55.804,187.409z"/>
	<path fill="#C7342C" d="M59.467,197.288c-4.963-1.115-7.688,0.86-9.049,2.565c4.36,6.883,9.254,10.058,10.829,9.049
		C63.46,207.481,61.716,202.844,59.467,197.288L59.467,197.288z"/>
	<path fill="#9EC9BF" d="M59.467,197.288c-0.482-1.192-0.986-2.422-1.482-3.671c-3.244,2.679-6.963,3.126-9.387,3.063
		c0.587,1.134,1.199,2.195,1.82,3.173C51.778,198.148,54.504,196.172,59.467,197.288L59.467,197.288z"/>
	<path fill="#3B6AAD" d="M57.984,193.617c-0.259-0.654-0.512-1.31-0.755-1.966c-3.495,2.976-7.441,2.966-9.822,2.571
		c0.38,0.856,0.779,1.677,1.19,2.458C51.021,196.743,54.741,196.295,57.984,193.617L57.984,193.617z"/>
	<path fill="#9EC9BF" d="M72.598,195.546c4.572-0.731,7.085,1.205,8.354,2.859c0.405-0.973,0.81-2.031,1.211-3.167
		c-2.363-0.073-5.644-0.692-8.531-3.08C73.285,193.323,72.934,194.457,72.598,195.546L72.598,195.546z"/>
	<path fill="#C7342C" d="M72.598,195.546c-2.122,6.87-3.756,12.052-1.65,13.068c2.442,1.185,6.245-1.145,10.005-10.209
		C79.683,196.751,77.17,194.815,72.598,195.546L72.598,195.546z"/>
	<path fill="#ECD8BE" d="M84.17,188.769c4.536-16.533,3.238-24.999,3.238-24.999c-0.243-3.003-0.907-5.248-1.575-6.827
		c-2.15-0.803-4.991-1.266-8.474-0.551c-1.887,0.393-3.464,1.075-4.771,1.903c0.986,1.64,2.391,4.491,3.104,8.354
		c0,0,2.729,6.058,0,17.875c-0.073,0.33-0.15,0.652-0.231,0.98C78.324,189.006,81.625,189.314,84.17,188.769L84.17,188.769z"/>
	<path fill="#3B6AAD" d="M74.248,189.957c-0.202,0.721-0.411,1.434-0.615,2.139c2.887,2.437,6.167,3.068,8.531,3.144
		c0.257-0.751,0.516-1.538,0.777-2.36C80.542,193.043,77.21,192.623,74.248,189.957L74.248,189.957z"/>
	<path fill="#FBF8F7" d="M55.936,203.522c0,0,0.057-0.042,0.17-0.093c0.109-0.059,0.275-0.109,0.482-0.164
		c0.203-0.043,0.443-0.096,0.707-0.091c0.263-0.009,0.539,0.006,0.812,0.059c0.138,0.026,0.271,0.053,0.407,0.079
		c0.127,0.036,0.257,0.089,0.38,0.127c0.241,0.085,0.466,0.183,0.636,0.302c0.361,0.217,0.569,0.396,0.569,0.396
		s-0.29-0.01-0.678-0.097c-0.188-0.047-0.416-0.079-0.658-0.121c-0.239-0.051-0.49-0.107-0.743-0.134
		c-0.257-0.059-0.508-0.081-0.75-0.118c-0.239-0.042-0.465-0.05-0.66-0.083C56.219,203.548,55.936,203.522,55.936,203.522
		L55.936,203.522z"/>
	<path fill="#FBF8F7" d="M58.625,201.845c0,0-0.079,0.264-0.217,0.622c-0.069,0.182-0.142,0.395-0.243,0.611
		c-0.073,0.227-0.192,0.445-0.275,0.685c-0.095,0.23-0.204,0.46-0.287,0.676c-0.085,0.224-0.192,0.42-0.261,0.602
		c-0.138,0.353-0.282,0.596-0.282,0.596s-0.042-0.268-0.028-0.673c-0.008-0.204,0.053-0.429,0.102-0.676
		c0.042-0.247,0.147-0.492,0.241-0.743c0.207-0.488,0.498-0.941,0.761-1.237C58.392,202,58.625,201.845,58.625,201.845
		L58.625,201.845z"/>
	<path fill="#FBF8F7" d="M57.207,205.891c0,0,0.237-0.144,0.625-0.245c0.391-0.107,0.93-0.17,1.466-0.127
		c0.131,0.016,0.267,0.032,0.399,0.046c0.131,0.011,0.257,0.053,0.378,0.083c0.243,0.075,0.472,0.128,0.648,0.231
		c0.367,0.184,0.579,0.352,0.579,0.352s-0.283,0.011-0.66-0.04c-0.188-0.03-0.419-0.022-0.65-0.055
		c-0.235-0.034-0.488-0.036-0.735-0.059c-0.251-0.036-0.502-0.026-0.743-0.061c-0.235-0.009-0.458-0.037-0.654-0.049
		C57.48,205.932,57.207,205.891,57.207,205.891L57.207,205.891z"/>
	<path fill="#FBF8F7" d="M58.732,208.307c0,0-0.102-0.271-0.109-0.694c-0.01-0.105,0-0.217,0.008-0.337
		c0.01-0.121,0.014-0.249,0.047-0.378c0.057-0.254,0.105-0.535,0.227-0.794c0.059-0.128,0.115-0.255,0.174-0.381
		c0.044-0.134,0.144-0.234,0.214-0.347c0.154-0.214,0.29-0.421,0.456-0.555c0.318-0.285,0.553-0.429,0.553-0.429
		s-0.099,0.279-0.29,0.621c-0.109,0.166-0.18,0.391-0.287,0.607c-0.053,0.109-0.116,0.213-0.158,0.332
		c-0.048,0.12-0.093,0.237-0.142,0.356c-0.057,0.12-0.105,0.235-0.142,0.358c-0.039,0.12-0.089,0.235-0.128,0.351
		c-0.073,0.23-0.154,0.445-0.214,0.638C58.819,208.045,58.732,208.307,58.732,208.307L58.732,208.307z"/>
	<path fill="#7F2215" d="M52.967,202.115c0,0,2.343,2.454,2.311,2.669c-0.035,0.213-2.973-2.622-2.973-2.622
		s1.756-2.594,5.896-3.295c0,0,1.12,2.467,0.96,2.55c-0.164,0.072-1.294-2.052-1.294-2.052L52.967,202.115L52.967,202.115z"/>
	<path fill="#FBF8F7" d="M75.905,202.394c0,0-0.065-0.03-0.185-0.061c-0.117-0.038-0.292-0.061-0.5-0.079
		c-0.208-0.002-0.458-0.016-0.713,0.041c-0.259,0.034-0.528,0.099-0.792,0.2c-0.13,0.047-0.257,0.1-0.385,0.149
		c-0.124,0.057-0.239,0.132-0.351,0.194c-0.225,0.128-0.427,0.26-0.579,0.407c-0.313,0.275-0.488,0.494-0.488,0.494
		s0.286-0.064,0.652-0.219c0.18-0.079,0.401-0.151,0.63-0.236c0.225-0.094,0.459-0.192,0.708-0.264
		c0.239-0.102,0.482-0.17,0.713-0.249c0.229-0.083,0.45-0.13,0.638-0.2C75.631,202.467,75.905,202.394,75.905,202.394
		L75.905,202.394z"/>
	<path fill="#FBF8F7" d="M72.96,201.22c0,0,0.125,0.245,0.324,0.575c0.099,0.166,0.208,0.364,0.344,0.557
		c0.116,0.21,0.273,0.406,0.397,0.625c0.136,0.211,0.282,0.415,0.403,0.616c0.122,0.202,0.266,0.378,0.358,0.542
		c0.203,0.326,0.389,0.537,0.389,0.537s-0.006-0.271-0.093-0.666c-0.032-0.203-0.125-0.411-0.219-0.648
		c-0.083-0.236-0.237-0.455-0.369-0.685c-0.288-0.447-0.658-0.84-0.972-1.087C73.218,201.332,72.96,201.22,72.96,201.22
		L72.96,201.22z"/>
	<path fill="#FBF8F7" d="M75.077,204.952c0,0-0.264-0.102-0.663-0.132c-0.401-0.036-0.943-0.004-1.464,0.134
		c-0.127,0.041-0.257,0.079-0.385,0.119c-0.127,0.031-0.243,0.094-0.362,0.148c-0.225,0.117-0.439,0.21-0.597,0.342
		c-0.324,0.245-0.504,0.45-0.504,0.45s0.279-0.043,0.646-0.158c0.176-0.065,0.407-0.098,0.63-0.17
		c0.223-0.075,0.468-0.122,0.712-0.188c0.237-0.077,0.486-0.115,0.715-0.192c0.231-0.049,0.45-0.115,0.636-0.162
		C74.813,205.041,75.077,204.952,75.077,204.952L75.077,204.952z"/>
	<path fill="#FBF8F7" d="M74.001,207.594c0,0,0.054-0.281-0.017-0.696c-0.006-0.107-0.036-0.215-0.071-0.332
		c-0.028-0.116-0.055-0.241-0.105-0.363c-0.107-0.242-0.203-0.51-0.369-0.743c-0.079-0.115-0.158-0.23-0.235-0.342
		c-0.071-0.123-0.187-0.204-0.273-0.304c-0.192-0.185-0.36-0.364-0.553-0.464c-0.358-0.223-0.62-0.324-0.62-0.324
		s0.148,0.258,0.399,0.558c0.134,0.146,0.243,0.356,0.391,0.546c0.067,0.098,0.152,0.192,0.215,0.302
		c0.069,0.107,0.136,0.217,0.202,0.328c0.075,0.102,0.146,0.211,0.203,0.324c0.059,0.111,0.125,0.217,0.19,0.322
		c0.111,0.217,0.227,0.415,0.32,0.589C73.872,207.355,74.001,207.594,74.001,207.594L74.001,207.594z"/>
	<path fill="#7F2215" d="M78.575,200.479c0,0-1.869,2.833-1.798,3.039c0.071,0.204,2.458-3.106,2.458-3.106
		s-2.189-2.243-6.384-2.196c0,0-0.666,2.628-0.494,2.677c0.174,0.046,0.909-2.248,0.909-2.248L78.575,200.479L78.575,200.479z"/>
</g>
<g id="left_x5F_arm_1_">
	<path fill="#ECD8BE" d="M80.142,102.856c0,0,12.248,16.265,9.905,32.402c-4.426-0.779-7.947,1.499-7.99,3.167
		c0.042,1.458,4.211-0.998,6.878-0.502c-5.463,3.046-6.338,6.34-5.629,7.089c0.709,0.754,3.254-1.5,7.423-5.752
		c-1.417,4.211-1.126,7.129-0.332,7.089c0.792-0.041,2.333-2.25,3.543-6.006c0.917,3.254,0.376,5.423,1.711,5.214
		s1.207-3.712,1.124-5.963c2.211,3.501,3.045,3.709,3.632,3.333c0.581-0.375-0.925-5.33-4.114-6.758
		c3.383-10.999,1.952-29.418-5.856-38.916C86.272,99.076,80.142,102.856,80.142,102.856L80.142,102.856z"/>
	<path fill="#C7342C" d="M66.753,80.724c0,0,10.017,14.448,12.88,23.165c6.247-4.292,11.716-6.375,11.716-6.375
		S80.676,80.982,66.753,80.724L66.753,80.724z"/>
</g>
<g id="right_x5F_arm_1_">
	<path fill="#ECD8BE" d="M46.209,102.856c0,0-12.248,16.265-9.905,32.402c4.426-0.779,7.947,1.499,7.99,3.167
		c-0.042,1.458-4.211-0.998-6.878-0.502c5.463,3.046,6.338,6.34,5.629,7.089c-0.709,0.754-3.254-1.5-7.423-5.752
		c1.417,4.211,1.126,7.129,0.332,7.089c-0.792-0.041-2.333-2.25-3.543-6.006c-0.917,3.254-0.376,5.423-1.711,5.214
		s-1.207-3.712-1.124-5.963c-2.211,3.501-3.045,3.709-3.632,3.333c-0.581-0.375,0.925-5.33,4.114-6.758
		c-3.383-10.999-1.952-29.418,5.856-38.916C40.079,99.076,46.209,102.856,46.209,102.856L46.209,102.856z"/>
	<path fill="#C7342C" d="M59.598,80.724c0,0-10.017,14.448-12.88,23.165c-6.247-4.292-11.716-6.375-11.716-6.375
		S45.675,80.982,59.598,80.724L59.598,80.724z"/>
</g>
<path fill="#ECD8BE" d="M66.952,81.684c4.924,0.255,22.261-5.951,28.453-10.4c6.194-4.449,6.04-8.571,6.04-8.571
	c0.456-4.649-0.33-10.962,0.751-17.15c0.482-2.758,0.662-5.016,0.719-6.675c-5.441-3.152-7.33-7.375-7.33-7.375
	c0.897,5.104-1.391,10.903-1.391,10.903c-6.781-4.812-9.209-12.264-9.209-12.264c-9.302,9.26-17.001,6.948-17.001,6.948
	c6.176-3.46,10.534-11.047,10.534-11.047C69.359,30.455,54.845,33.6,54.845,33.6c1.768-5.16,4.532-8.709,4.532-8.709
	c-12.876,5.123-27.73,8.618-27.73,8.618c-0.71,6.858,1.854,14.512,1.573,18.368c-0.279,3.854-1.843,9.248-1.843,9.248
	s-1.997,6.767,4.813,10.999c10.351,6.427,23.462,9.014,23.462,9.014S62.576,81.865,66.952,81.684"/>
<g id="mouth_1_">
	<path fill="#D0665D" d="M55.879,78.469c2.11,0.802,4.722,1.234,7.964,1.011c2.489-0.17,4.53-0.817,6.208-1.722
		C62.744,71.204,57.498,76.431,55.879,78.469L55.879,78.469z"/>
	<path fill="#FFFFFF" d="M62.124,71.019c8.454-0.964,10.598-2.026,11.394-4.091c-8.76-1.388-16.885,0.147-21.615,1.438
		C52.636,69.685,54.934,71.837,62.124,71.019L62.124,71.019z"/>
	<path fill="#DB9197" d="M77.379,67.725c-1.292-0.336-2.583-0.596-3.861-0.797c-0.796,2.065-2.94,3.127-11.394,4.091
		c-7.19,0.818-9.488-1.334-10.221-2.653c-2.667,0.729-4.261,1.381-4.261,1.381c0.771,2.182,2.845,6.669,8.237,8.722
		c1.618-2.038,6.864-7.265,14.172-0.711C76.145,74.463,77.379,67.725,77.379,67.725L77.379,67.725z"/>
</g>
<path fill="#5E3C14" d="M113.204,29.414c6.633,1.45,8.917,3.869,8.917,3.869c-6.541-13.995-15.531-13.837-15.531-13.837
	c3.114-1.539,7.688-0.891,7.688-0.891c-15.118-13.337-26.435-3.736-26.435-3.736s6.279-6.19,3.943-6.404
	c-2.337-0.217-8.782,6.109-8.782,6.109s0.111-11.096-1.897-10.748c-2.011,0.346-1.92,8.723-1.92,8.723
	C61.499-2.427,42.458,1.339,42.458,1.339c6.856,1.547,10.009,3.922,10.009,3.922C23.419,4.6,13.898,27.456,13.898,27.456
	c2.837-1.616,6.475-1.99,6.475-1.99c6.957-1.738,13.946-2.741,13.946-2.741c-6.544,4.95-11.267,11.587-11.267,11.587
	c4.966-0.225,8.594-0.804,8.594-0.804s14.854-3.495,27.73-8.618c0,0-2.764,3.549-4.532,8.709c0,0,14.514-3.145,23.673-7.547
	c0,0-4.357,7.586-10.534,11.047c0,0,7.699,2.312,17.001-6.948c0,0,2.428,7.452,9.209,12.264c0,0,2.288-5.798,1.391-10.903
	c0,0,3.467,7.774,14.587,10.098c0,0-1.499-3.56-2.772-5.429c0,0,4.749,3.132,7.962,5.223c2.819,1.631,4.481,4.221,4.481,4.221
	C122.281,33.222,113.204,29.414,113.204,29.414"/>
<path fill="#3D2B1C" d="M33.203,50.291c-0.288-4.141-2.177-10.764-1.557-16.782c0,0-3.627,0.579-8.594,0.804
	c0,0,4.722-6.638,11.267-11.587c0,0-6.99,1.002-13.946,2.741c2.089,16.857,11.446,23.322,11.446,23.322S32.521,49.166,33.203,50.291
	L33.203,50.291z"/>
<path fill="#E5C5A3" d="M33.203,50.291c-0.683-1.125-1.384-1.502-1.384-1.502c-3.714-1.658-8.012,0.938-7.303,6.986
	c0.829,7.092,6.86,5.35,6.86,5.35s1.563-5.394,1.843-9.248C33.253,51.402,33.244,50.872,33.203,50.291L33.203,50.291z"/>
<path fill="#3D2B1C" d="M109.409,52.398l6.355-10.684c-3.239-2.108-8.024-5.264-8.024-5.264c1.284,1.884,2.794,5.472,2.794,5.472
	c-2.947-0.617-5.357-1.61-7.314-2.744c-0.057,1.672-0.239,3.948-0.725,6.728c-0.308,1.763-0.461,3.533-0.537,5.275
	C103.742,48.696,107.06,48.909,109.409,52.398L109.409,52.398z"/>
<path fill="#9E7255" d="M26.821,55.276c0,0-0.019-0.15-0.035-0.411c-0.013-0.134-0.026-0.286,0.016-0.476
	c0.032-0.187,0.042-0.418,0.157-0.628c0.044-0.105,0.09-0.224,0.144-0.339c0.082-0.107,0.161-0.216,0.245-0.326
	c0.074-0.122,0.189-0.206,0.302-0.304c0.112-0.096,0.228-0.198,0.369-0.257c0.266-0.16,0.578-0.253,0.896-0.311
	c0.163-0.007,0.327-0.011,0.494-0.019c0.16,0.012,0.324,0.052,0.488,0.077c0.166,0.022,0.308,0.119,0.466,0.173
	c0.157,0.055,0.288,0.156,0.42,0.252c0.286,0.166,0.463,0.439,0.661,0.665c0.074,0.133,0.142,0.263,0.215,0.39l0.096,0.189
	l0.062,0.198c0.073,0.257,0.166,0.498,0.17,0.733c0.02,0.233,0.039,0.445,0.039,0.628c-0.019,0.184-0.032,0.346-0.044,0.48
	c-0.029,0.259-0.053,0.407-0.053,0.407s-0.025-0.152-0.058-0.407c-0.011-0.129-0.028-0.284-0.051-0.464
	c-0.042-0.172-0.09-0.365-0.145-0.579c-0.036-0.217-0.157-0.418-0.241-0.642l-0.071-0.171l-0.105-0.153
	c-0.071-0.104-0.138-0.21-0.205-0.319c-0.185-0.179-0.344-0.39-0.578-0.518c-0.106-0.077-0.212-0.158-0.341-0.192
	c-0.125-0.042-0.241-0.119-0.373-0.132c-0.132-0.021-0.257-0.06-0.388-0.069l-0.395,0.005c-0.125,0.023-0.254,0.051-0.382,0.073
	c-0.125,0.021-0.234,0.095-0.354,0.137c-0.122,0.04-0.215,0.119-0.317,0.188c-0.099,0.07-0.206,0.129-0.275,0.223
	c-0.084,0.087-0.161,0.17-0.235,0.248c-0.064,0.093-0.116,0.189-0.173,0.277c-0.128,0.173-0.17,0.359-0.238,0.522
	c-0.078,0.157-0.096,0.319-0.112,0.446C26.85,55.128,26.821,55.276,26.821,55.276L26.821,55.276z"/>
<path fill="#9E7255" d="M29.491,56.819c0,0-0.05-0.069-0.121-0.188c-0.081-0.12-0.18-0.292-0.253-0.539
	c-0.053-0.12-0.078-0.254-0.097-0.401c-0.028-0.144-0.042-0.297-0.028-0.464c-0.004-0.16,0.033-0.328,0.067-0.498
	c0.052-0.163,0.109-0.334,0.196-0.49c0.083-0.162,0.196-0.302,0.318-0.434c0.128-0.127,0.266-0.239,0.423-0.314
	c0.148-0.088,0.324-0.127,0.479-0.148c0.083-0.005,0.16-0.012,0.234-0.007c0.077,0.015,0.147,0.032,0.219,0.049
	c0.127,0.044,0.243,0.105,0.32,0.18c0.078,0.08,0.152,0.137,0.18,0.208c0.068,0.132,0.099,0.208,0.099,0.208
	s-0.065-0.049-0.176-0.13c-0.048-0.048-0.138-0.064-0.211-0.103c-0.078-0.031-0.177-0.042-0.273-0.051
	c-0.047,0.003-0.099,0.006-0.151,0.009c-0.051,0.013-0.105,0.025-0.16,0.042c-0.104,0.039-0.209,0.089-0.309,0.164
	c-0.105,0.06-0.189,0.166-0.282,0.255c-0.086,0.105-0.163,0.214-0.225,0.338c-0.073,0.115-0.121,0.247-0.17,0.376
	c-0.025,0.135-0.087,0.263-0.093,0.395c-0.018,0.135-0.044,0.265-0.044,0.395c-0.006,0.125-0.016,0.248-0.003,0.358
	c0.009,0.11,0.003,0.214,0.009,0.312c0.016,0.097,0.026,0.185,0.036,0.253C29.488,56.736,29.491,56.819,29.491,56.819L29.491,56.819
	z"/>
<g>
	<path fill="#E5C5A3" d="M101.371,50.473c-0.191,4.233,0.107,8.277-0.211,11.494c0,0,3.709,2.766,6.555-1.814
		c2.844-4.58,0.787-8.515,0.787-8.515C106.253,48.299,103.078,48.095,101.371,50.473L101.371,50.473z"/>
	<path fill="#9E7255" d="M102.64,57.886c0,0-0.021-0.153-0.031-0.421c-0.006-0.266-0.012-0.651,0.047-1.109
		c0.027-0.229,0.068-0.479,0.137-0.739c0.064-0.257,0.139-0.534,0.266-0.805c0.117-0.271,0.27-0.55,0.461-0.804
		c0.096-0.129,0.217-0.244,0.328-0.367c0.137-0.105,0.242-0.213,0.408-0.31c0.23-0.148,0.623-0.297,0.951-0.321
		c0.348-0.021,0.684,0.063,0.969,0.201c0.279,0.151,0.523,0.338,0.699,0.555c0.193,0.204,0.322,0.432,0.434,0.643
		c0.105,0.213,0.174,0.418,0.221,0.604c0.039,0.188,0.068,0.351,0.072,0.485c0.021,0.135,0,0.242-0.004,0.313
		c-0.004,0.072-0.006,0.111-0.006,0.111s-0.02-0.156-0.094-0.407c-0.027-0.128-0.086-0.274-0.158-0.435
		c-0.08-0.164-0.176-0.338-0.293-0.52c-0.131-0.174-0.275-0.354-0.455-0.516c-0.174-0.174-0.391-0.295-0.611-0.408
		c-0.232-0.094-0.479-0.125-0.732-0.113c-0.264,0.041-0.451,0.098-0.732,0.272c-0.096,0.051-0.207,0.156-0.314,0.231
		c-0.09,0.102-0.195,0.189-0.275,0.3c-0.168,0.215-0.326,0.44-0.443,0.685c-0.248,0.479-0.404,0.973-0.525,1.402
		c-0.119,0.432-0.201,0.797-0.246,1.059C102.667,57.736,102.64,57.886,102.64,57.886L102.64,57.886z"/>
	<path fill="#9E7255" d="M103.445,54.578c0,0,0.025,0.323,0.105,0.766c0.027,0.111,0.043,0.23,0.08,0.352
		c0.031,0.122,0.078,0.243,0.125,0.368c0.039,0.124,0.113,0.241,0.174,0.356c0.07,0.113,0.145,0.225,0.244,0.309
		c0.076,0.107,0.197,0.168,0.299,0.25c0.115,0.06,0.232,0.119,0.352,0.174c0.127,0.032,0.25,0.071,0.367,0.113
		c0.123,0.018,0.242,0.035,0.354,0.059c0.219,0.049,0.414,0.038,0.553,0.063c0.135,0.017,0.219,0.029,0.219,0.029
		s-0.074,0.031-0.205,0.076c-0.133,0.035-0.326,0.125-0.57,0.141c-0.121,0.01-0.256,0.023-0.398,0.027
		c-0.139-0.014-0.295-0.027-0.457-0.056c-0.15-0.05-0.316-0.097-0.469-0.18c-0.146-0.101-0.311-0.185-0.424-0.325
		c-0.135-0.125-0.225-0.278-0.313-0.428c-0.078-0.153-0.141-0.314-0.174-0.469c-0.043-0.156-0.063-0.307-0.064-0.447
		c-0.02-0.143,0-0.275,0.002-0.399C103.294,54.869,103.445,54.578,103.445,54.578L103.445,54.578z"/>
</g>
<path fill="#3C331A" d="M76.735,53.111c-0.081,2.417-1.158,4.334-2.397,4.29c-1.244-0.043-2.183-2.04-2.1-4.453
	c0.083-2.416,1.158-4.334,2.401-4.29C75.881,48.705,76.819,50.7,76.735,53.111L76.735,53.111z"/>
<path fill="#FFFFFF" d="M74.581,52.287c-0.219,1.138-0.812,1.966-1.328,1.853c-0.517-0.114-0.761-1.127-0.543-2.262
	c0.219-1.137,0.808-1.964,1.327-1.852C74.549,50.14,74.796,51.153,74.581,52.287L74.581,52.287z"/>
<path fill="#1F1F1D" d="M68.883,46.682c0,0,1.662-2.647,4.463-2.468c3.258,0.211,3.91,3.48,3.91,3.48s0.565-4.991-3.58-5.384
	C69.816,41.942,68.883,46.682,68.883,46.682L68.883,46.682z"/>
<path fill="#3C331A" d="M50.607,53.223c-0.083,2.416-1.158,4.335-2.402,4.289c-1.241-0.046-2.183-2.039-2.1-4.454
	s1.162-4.333,2.406-4.287C49.752,48.817,50.694,50.809,50.607,53.223L50.607,53.223z"/>
<path fill="#FFFFFF" d="M48.45,52.4c-0.214,1.136-0.81,1.964-1.326,1.849c-0.517-0.111-0.757-1.125-0.542-2.262
	c0.214-1.135,0.808-1.963,1.326-1.851C48.42,50.248,48.665,51.265,48.45,52.4L48.45,52.4z"/>
<path fill="#1F1F1D" d="M43.317,47.583c0,0,1.624-2.663,4.22-2.57c3.021,0.116,3.535,3.327,3.535,3.327s0.67-4.947-3.173-5.216
	C44.322,42.872,43.317,47.583,43.317,47.583L43.317,47.583z"/>
<path fill="#9E7255" d="M60.573,59.485c0,0-0.093-0.237-0.33-0.609c-0.235-0.364-0.636-0.883-1.284-1.183
	c-0.332-0.152-0.701-0.219-1.118-0.174c-0.419,0.032-0.816,0.147-1.196,0.366c-0.751,0.435-1.243,1.329-1.292,2.271
	c-0.077,0.94,0.233,1.898,0.768,2.606c0.537,0.718,1.284,1.188,1.98,1.413c0.174,0.058,0.349,0.108,0.51,0.144
	c0.164,0.044,0.322,0.079,0.472,0.097c0.301,0.058,0.569,0.063,0.788,0.08c0.439,0.011,0.696,0.009,0.696,0.009
	s-0.061,0.009-0.18,0.029c-0.12,0.015-0.29,0.057-0.516,0.072c-0.219,0.009-0.494,0.036-0.808,0.017
	c-0.312-0.006-0.672-0.044-1.051-0.148c-0.379-0.094-0.784-0.25-1.179-0.478c-0.401-0.223-0.786-0.536-1.097-0.93
	c-0.648-0.776-1.015-1.868-0.934-2.954c0.041-0.543,0.194-1.079,0.472-1.547c0.271-0.47,0.674-0.858,1.136-1.102
	c0.449-0.249,0.972-0.336,1.419-0.336c0.451-0.015,0.913,0.095,1.263,0.292c0.36,0.192,0.618,0.46,0.812,0.713
	c0.196,0.249,0.332,0.489,0.432,0.692C60.524,59.233,60.573,59.485,60.573,59.485L60.573,59.485z"/>
<path opacity="0.2" fill="#C5B99F" d="M17.827,24.472c0,0,9.829-18.21,34.521-18.21c2.027,0,4.153,0.122,6.382,0.388l0,0l0,0
	c0,0-5.321-3.613-11.534-4.719c0,0,1.002-0.182,2.791-0.182c4.991,0,16.12,1.423,28.73,12.226c0,0-5.9-0.974-14.68-0.974
	C51.568,13,33.288,14.965,17.827,24.472"/>
<path fill="#0C4D93" d="M65.134,166.915c5.842,2.679,11.176,1.139,11.176,1.139c-0.757-4.844-2.409-8.441-3.572-10.517
	C66.871,161.03,65.134,166.915,65.134,166.915z"/>
<path fill="#0C4D93" d="M92.113,161.066c0,0-2.33-2.836-6.86-4.68c0.906,2.32,1.779,5.612,2.011,9.983
	C91.319,163.253,92.113,161.066,92.113,161.066z"/>
<path fill="#F1C7A4" d="M63.096,89.504c5.22-0.448,4.164-8.943,4.164-8.964c-0.372-0.04-0.658-0.063-0.832-0.069l-0.207-0.006
	c-5.271,0.618-8.85-0.078-8.85-0.078S56.271,90.093,63.096,89.504z"/>
<path fill="#CA4D20" d="M82.736,110.33C77.365,85.836,71.329,81.42,71.32,81.417c-1.794-0.536-3.193-0.753-4.064-0.849
	c0,0.021,0.997,8.515-3.988,8.969c-6.518,0.597-5.455-9.11-5.455-9.11c-4.193,5.988-8.499,12.093-10.681,16.494
	c-6.375,12.859-4.896,38.56-4.896,38.56s17.362,14.297,44.667,6.092L82.736,110.33z"/>
<radialGradient id="SVGID_1_" cx="30.9966" cy="112.2974" r="36.5012" gradientTransform="matrix(0.9991 -0.0415 0.0415 0.9991 -4.5087 -2.6009)" gradientUnits="userSpaceOnUse">
	<stop  offset="0.0022" style="stop-color:#FFFFFF"/>
	<stop  offset="1" style="stop-color:#FFFFFF"/>
</radialGradient>
<path opacity="0.2" fill="url(#SVGID_1_)" d="M55.525,89.274c0,0-9.155,23.849-4.155,46.163c-7.875-1.165-7.241-3.251-7.241-3.251
	S40.596,107.858,55.525,89.274z"/>
<g>
	<path fill="#0280C6" d="M88.768,147.135c-1.509-3.814-2.776-5.99-2.776-5.99c-2.111,0.781-4.161,1.37-6.163,1.834
		C81.093,144.838,83.68,147.089,88.768,147.135z"/>
	<path fill="#0280C6" d="M47.112,138.334c-2.793-1.574-4.33-2.854-4.33-2.854c-1.832,3.055-3.399,6.469-4.699,9.786
		C44.119,145.497,46.32,141.277,47.112,138.334z"/>
	<path fill="#056BB1" d="M88.768,147.135c-5.088-0.046-7.675-2.297-8.939-4.156c-14.984,3.467-26.738-1.268-32.717-4.645
		c-0.792,2.942-2.993,7.162-9.029,6.933c-3.281,8.406-4.877,16.212-4.877,16.212c3.542,1.909,5.801,2.569,5.801,2.569
		s4.743,2.901,13.678,4.805l4.327,0.296c0,0,3.255-12.181,5.572-11.319c2.315,0.864,2.925,9.562,2.925,9.562
		s2.588-8.771,12.333-10.491c9.753-1.729,14.884,4.519,14.884,4.519C91.744,155.542,90.161,150.642,88.768,147.135z"/>
</g>
</svg>
