<?xml version="1.0" encoding="utf-8"?>
<!-- Generator: Adobe Illustrator 16.0.0, SVG Export Plug-In . SVG Version: 6.00 Build 0)  -->
<!DOCTYPE svg PUBLIC "-//W3C//DTD SVG 1.1//EN" "http://www.w3.org/Graphics/SVG/1.1/DTD/svg11.dtd">
<svg version="1.1" id="Ebene_1" xmlns="http://www.w3.org/2000/svg" xmlns:xlink="http://www.w3.org/1999/xlink" x="0px" y="0px"
	 width="29.451px" height="21.323px" viewBox="0 0 29.451 21.323" enable-background="new 0 0 29.451 21.323" xml:space="preserve">
<path id="mouth_path" fill="#AE7454" d="M23.802,13.53c0,0-0.236-0.194-0.672-0.498c-0.432-0.305-1.068-0.709-1.859-1.13
	c-0.787-0.429-1.736-0.847-2.791-1.187c-0.52-0.176-1.07-0.318-1.641-0.426c-0.564-0.109-1.148-0.186-1.731-0.215
	c-0.292-0.024-0.587-0.014-0.877-0.025c-0.292,0.012-0.584,0.021-0.869,0.047c-0.582,0.057-1.147,0.144-1.688,0.283
	c-0.543,0.132-1.061,0.297-1.549,0.48c-0.239,0.104-0.477,0.184-0.7,0.293c-0.221,0.11-0.438,0.215-0.643,0.316
	s-0.394,0.226-0.578,0.324c-0.184,0.105-0.36,0.201-0.519,0.308c-0.312,0.216-0.601,0.382-0.816,0.554
	c-0.445,0.332-0.699,0.52-0.699,0.52s0.239-0.214,0.659-0.584c0.207-0.189,0.486-0.379,0.79-0.619
	c0.309-0.236,0.676-0.463,1.082-0.71c0.2-0.112,0.416-0.231,0.641-0.353c0.224-0.12,0.461-0.216,0.705-0.33
	c0.488-0.211,1.016-0.41,1.568-0.547c0.556-0.152,1.137-0.252,1.729-0.322c0.298-0.029,0.598-0.044,0.896-0.057
	c0.3,0.006,0.603-0.014,0.903,0.013c0.599,0.036,1.193,0.124,1.771,0.245c0.576,0.121,1.137,0.277,1.67,0.465
	c0.533,0.17,1.029,0.401,1.498,0.621c0.465,0.23,0.898,0.457,1.287,0.697c0.781,0.461,1.385,0.938,1.799,1.271
	C23.587,13.308,23.802,13.53,23.802,13.53z"/>
</svg>
