<?xml version="1.0" encoding="utf-8"?>
<!-- Generator: Adobe Illustrator 16.0.0, SVG Export Plug-In . SVG Version: 6.00 Build 0)  -->
<!DOCTYPE svg PUBLIC "-//W3C//DTD SVG 1.1//EN" "http://www.w3.org/Graphics/SVG/1.1/DTD/svg11.dtd">
<svg version="1.1" id="Ebene_1" xmlns="http://www.w3.org/2000/svg" xmlns:xlink="http://www.w3.org/1999/xlink" x="0px" y="0px"
	 width="100px" height="216px" viewBox="0 0 100 216" enable-background="new 0 0 100 216" xml:space="preserve">
<path fill="#A1BF35" d="M20.287,143.751c0.014-15.667,0.174-48.696,19.533-59.896c13.087-7.572,27.355,44.179,27.355,60.198
	C67.176,155.11,20.287,143.751,20.287,143.751"/>
<path fill="#F1C7A4" d="M55.967,142.79c0,0-5.574,40.112-10.25,56.297c0,0-2.265,11.287-0.9,12.231
	c5.215,3.597,11.69-9.534,16.369-23.204c4.673-13.666,11.689-44.963,11.689-44.963L55.967,142.79z"/>
<path fill="#FFD554" d="M54.869,197.298c-1.023-0.256-2.127-0.586-3.208-1.023c-0.571-0.217-1.127-0.477-1.657-0.776
	c-1.071-0.583-2.045-1.302-2.806-2.186c-0.498,2.134-0.996,4.087-1.483,5.774c0,0-2.265,11.287-0.9,12.231
	c3.951,2.724,8.621-4.151,12.689-13.585C56.618,197.659,55.733,197.517,54.869,197.298z"/>
<path fill="#DC9015" d="M50.052,207.146c-1.508,0.27-2.989-0.484-3.852-1.718c-0.735-1.057-0.963-2.179-1.03-3.337
	c-0.566,3.416-1.261,8.6-0.354,9.228c2.751,1.896,5.853-0.862,8.856-5.897C52.572,206.276,51.358,206.911,50.052,207.146z"/>
<g>
	<path fill="#F4D9BF" d="M31.586,146.206c0,0,6.865,39.909,12.059,55.937c0,0,2.629,11.21,1.291,12.196
		c-5.096,3.763-11.988-9.154-17.104-22.664c-5.111-13.512-13.128-44.565-13.128-44.565L31.586,146.206z"/>
	<path fill="#FFE754" d="M33.457,200.461c1.015-0.289,2.109-0.653,3.173-1.127c0.563-0.235,1.111-0.512,1.629-0.829
		c1.054-0.617,2.005-1.367,2.734-2.28c0.566,2.122,1.127,4.055,1.668,5.728c0,0,2.629,11.21,1.292,12.196
		c-3.859,2.852-8.75-3.871-13.117-13.167C31.723,200.878,32.601,200.707,33.457,200.461z"/>
	<path fill="#E7B040" d="M38.588,210.148c1.516,0.221,2.972-0.582,3.793-1.84c0.704-1.08,0.894-2.213,0.921-3.371
		c0.678,3.394,1.54,8.557,0.651,9.213c-2.688,1.983-5.876-0.674-9.039-5.608C36.042,209.358,37.278,209.956,38.588,210.148z"/>
</g>
<path fill="#F4D9BF" d="M61.516,110.062c0,0,13.595,18.054,10.994,35.971c-4.912-0.869-8.826,1.663-8.87,3.518
	c0.044,1.619,4.673-1.111,7.637-0.556c-6.064,3.378-7.038,7.036-6.25,7.871c0.788,0.832,3.61-1.67,8.241-6.392
	c-1.573,4.677-1.249,7.919-0.37,7.871c0.879-0.044,2.592-2.499,3.934-6.668c1.02,3.613,0.417,6.021,1.899,5.788
	c1.483-0.231,1.343-4.121,1.251-6.619c2.455,3.889,3.38,4.121,4.029,3.705c0.647-0.416-1.026-5.918-4.564-7.507
	c3.756-12.21,2.168-32.656-6.502-43.203C68.32,105.862,61.516,110.062,61.516,110.062z"/>
<path fill="#69A840" d="M46.647,85.487c0,0,11.126,16.042,14.304,25.72c6.937-4.766,13.004-7.08,13.004-7.08
	S62.108,85.777,46.647,85.487z"/>
<path fill="#F4D9BF" d="M22.632,110.194c0,0-13.595,18.054-10.994,35.971c4.912-0.869,8.826,1.663,8.87,3.518
	c-0.044,1.619-4.673-1.111-7.637-0.556c6.064,3.378,7.038,7.036,6.25,7.871c-0.788,0.832-3.61-1.67-8.241-6.392
	c1.573,4.677,1.249,7.919,0.37,7.871c-0.879-0.044-2.592-2.499-3.934-6.668c-1.02,3.613-0.417,6.021-1.899,5.788
	c-1.483-0.231-1.343-4.121-1.251-6.619c-2.455,3.889-3.38,4.121-4.029,3.705c-0.647-0.416,1.026-5.918,4.564-7.507
	c-3.756-12.21-2.168-32.656,6.502-43.203C15.828,105.995,22.632,110.194,22.632,110.194z"/>
<path fill="#69A840" d="M37.501,85.62c0,0-11.126,16.042-14.304,25.72c-6.937-4.766-13.004-7.08-13.004-7.08
	S22.04,85.91,37.501,85.62z"/>
<defs>
	<filter id="Adobe_OpacityMaskFilter" filterUnits="userSpaceOnUse" x="21.727" y="89.429" width="15.155" height="45.984">
		<feColorMatrix  type="matrix" values="1 0 0 0 0  0 1 0 0 0  0 0 1 0 0  0 0 0 1 0"/>
	</filter>
</defs>
<mask maskUnits="userSpaceOnUse" x="21.727" y="89.429" width="15.155" height="45.984" id="SVGID_1_">
	<g filter="url(#Adobe_OpacityMaskFilter)">
		<defs>
			<filter id="Adobe_OpacityMaskFilter_1_" filterUnits="userSpaceOnUse" x="21.727" y="89.429" width="15.155" height="45.984">
				<feFlood  style="flood-color:white;flood-opacity:1" result="back"/>
				<feBlend  in="SourceGraphic" in2="back" mode="normal"/>
			</filter>
		</defs>
		<mask maskUnits="userSpaceOnUse" x="21.727" y="89.429" width="15.155" height="45.984" id="SVGID_1_">
			<g filter="url(#Adobe_OpacityMaskFilter_1_)">
			</g>
		</mask>
		<radialGradient id="SVGID_2_" cx="8.2295" cy="107.4531" r="38.8571" gradientUnits="userSpaceOnUse">
			<stop  offset="0.0022" style="stop-color:#FFFFFF"/>
			<stop  offset="0.2864" style="stop-color:#AFAFAF"/>
			<stop  offset="0.6369" style="stop-color:#525252"/>
			<stop  offset="0.8828" style="stop-color:#171717"/>
			<stop  offset="1" style="stop-color:#000000"/>
		</radialGradient>
		<path mask="url(#SVGID_1_)" fill="url(#SVGID_2_)" d="M36.882,89.429c0,0-11.322,21.028-6.932,45.293
			c-7.394,0.691-7.394,0.691-7.394,0.691S16.547,108.378,36.882,89.429z"/>
	</g>
</mask>
<radialGradient id="SVGID_3_" cx="8.2295" cy="107.4531" r="38.8571" gradientUnits="userSpaceOnUse">
	<stop  offset="0.0022" style="stop-color:#FFFFFF"/>
	<stop  offset="1" style="stop-color:#FFFFFF"/>
</radialGradient>
<path fill="url(#SVGID_3_)" d="M36.882,89.429c0,0-11.322,21.028-6.932,45.293c-7.394,0.691-7.394,0.691-7.394,0.691
	S16.547,108.378,36.882,89.429z"/>
<path fill="#F1C7A4" d="M38.266,84.911c0,0,0.361,1.446,0.866,3.539c0.506,2.097,2.601,3.395,5.13,2.962
	c2.527-0.433,2.456-1.445,2.456-3.323c0-1.879-0.145-3.61-0.145-3.61L38.266,84.911z"/>
<path fill="#FBB925" d="M74.65,23.682c0,0,19.783,4.384,18.524,35.077c-1.224,13.476-3.932,21.905,0.818,26.412
	c-2.124,1.779-2.124,1.779-2.124,1.779s-3.073-3.337-4.64-8.771c0.396,8.854-1.157,10.571-1.157,10.571l-8.241-1.104
	c0,0,0.63-4.489,0.845-8.068c-1.597,6.767-2.72,8.365-2.72,8.365l-6.908-2.881c0,0,1.963-2.646,2.386-6.682
	c-2.843,5.689-4.805,6.773-4.805,6.773l-5.778-2.836c0,0,5.989-8.635,5.86-15.299C68.409,54.862,74.65,23.682,74.65,23.682z"/>
<g>
	<g>
		<path fill="#F4D9BF" d="M70.904,34.154l-4.081-0.471c0,0,0.839-1.967-0.959-7.08c-0.025,2.611-1.12,7.21-1.12,7.21l-16.327,0.218
			c0,0-0.189-4.69,2.091-10.056c-4.556,3.559-3.606,9.841-3.606,9.841L34.675,34.72c0,0-1.221-4.588,0.436-10.182
			c-1.623,1.605-3.02,4.711-2.373,10.227c-6.267,0.756-17.429,3.187-17.429,3.187s-1.043-6.187,1.183-12.356
			c-4.098,5.294-2.954,12.436-2.954,12.436s0,0-6.229,0.947c4.706,11.481,0.249,23.855,0.249,23.855l-0.005,0.003
			c-0.107,0.661-0.237,1.395-0.392,2.219c-0.745,6.256,11.425,18.01,29.778,20.272c17.656,2.179,33.255-10.1,36.797-18.833
			c0.118-0.335,0.237-0.669,0.368-1.02C80.037,49.729,70.904,34.154,70.904,34.154z"/>
		<path fill="#FDCB68" d="M7.309,38.978c6.229-0.947,6.229-0.947,6.229-0.947s-1.144-7.142,2.954-12.436
			c-2.226,6.17-1.183,12.356-1.183,12.356s11.162-2.431,17.429-3.187c-0.647-5.516,0.75-8.621,2.373-10.227
			c-1.657,5.594-0.436,10.182-0.436,10.182l12.228-0.903c0,0-0.95-6.282,3.606-9.841c-2.281,5.365-2.091,10.056-2.091,10.056
			l16.327-0.218c0,0,1.094-4.599,1.12-7.21c1.798,5.113,0.959,7.08,0.959,7.08l4.081,0.471c0,0,9.132,15.575,3.199,31.32
			c12.788-9.174,13.681-13.99,12.843-29.265C85.443,18.824,70.381,3.202,48.352,2.455c-22.028-0.746-30.663,8.646-30.663,8.646
			C-2.333,19.622,0.092,41.067,0.092,41.067s0,0,1.152-0.402c0.36,7.789,4.251,12.189,4.251,12.189
			c2.176,3.914,2.916,4.605,2.057,9.981l0.005-0.003C7.558,62.833,12.015,50.459,7.309,38.978z"/>
	</g>
	<path fill="#F4D9BF" d="M76.176,54.733c0,0-0.06,5.57-1.831,10.346c1.382,3.092,9.784,1.448,10.815-4.974
		C86.196,53.684,80.442,49.436,76.176,54.733z"/>
	<path fill="#F1C7A4" d="M9.351,53.54c0,0-5.366-3.726-8.417,3.334c-2.223,6.398,3.211,10.796,6.296,8.85
		C8.064,61.299,9.518,55.166,9.351,53.54z"/>
	<g>
		<path fill="#BF946F" d="M77.766,58.148c0.157-0.221,0.315-0.436,0.482-0.63c1.035-1.237,3.134-1.868,4.433-0.569
			c0.91,0.917,1.12,1.977,0.853,3.133c-0.017-0.72-0.217-1.442-0.655-1.98c-0.862-1.061-2.279-1.173-3.329-0.273
			c-0.916,0.781-1.065,2.298-0.254,3.181c0.15,0.245,0.349,0.46,0.583,0.56c0.165,0.067,0.351,0.095,0.545,0.092
			c0.542,0.122,1.063,0.003,1.5-0.324c-0.405,1.022-1.664,1.571-2.724,1.166c-0.549-0.211-1.018-0.668-1.356-1.217
			c-0.327,1.196-0.247,2.479,0.687,3.368c0.032,0.033,0.058,0.071,0.077,0.112c-0.816-0.226-1.479-1.861-1.606-2.441
			C76.682,60.825,77.214,59.506,77.766,58.148z"/>
	</g>
	<g>
		<path fill="#BF946F" d="M6.931,57.597c-0.085-0.211-0.177-0.419-0.274-0.61c-0.614-1.214-2.224-2.12-3.55-1.285
			c-0.934,0.59-1.314,1.425-1.319,2.431c0.153-0.593,0.46-1.152,0.931-1.517C3.636,55.896,4.829,56.066,5.52,57
			c0.603,0.818,0.429,2.097-0.415,2.676c-0.172,0.178-0.376,0.317-0.589,0.358c-0.15,0.023-0.312,0.01-0.471-0.027
			c-0.469,0.003-0.879-0.191-1.174-0.546c0.137,0.921,1.067,1.609,2.021,1.47c0.496-0.075,0.972-0.365,1.362-0.757
			c0.033,1.05-0.281,2.093-1.229,2.655c-0.032,0.021-0.061,0.048-0.085,0.078c0.719-0.034,1.588-1.265,1.805-1.721
			C7.302,60.01,7.122,58.817,6.931,57.597z"/>
	</g>
	<defs>
		<filter id="Adobe_OpacityMaskFilter_2_" filterUnits="userSpaceOnUse" x="0.738" y="5.4" width="32.87" height="32.766">
			<feColorMatrix  type="matrix" values="1 0 0 0 0  0 1 0 0 0  0 0 1 0 0  0 0 0 1 0"/>
		</filter>
	</defs>
	<mask maskUnits="userSpaceOnUse" x="0.738" y="5.4" width="32.87" height="32.766" id="SVGID_4_">
		<g filter="url(#Adobe_OpacityMaskFilter_2_)">
			<defs>
				<filter id="Adobe_OpacityMaskFilter_3_" filterUnits="userSpaceOnUse" x="0.738" y="5.4" width="32.87" height="32.766">
					<feFlood  style="flood-color:white;flood-opacity:1" result="back"/>
					<feBlend  in="SourceGraphic" in2="back" mode="normal"/>
				</filter>
			</defs>
			<mask maskUnits="userSpaceOnUse" x="0.738" y="5.4" width="32.87" height="32.766" id="SVGID_4_">
				<g filter="url(#Adobe_OpacityMaskFilter_3_)">
				</g>
			</mask>
			
				<radialGradient id="SVGID_5_" cx="85.2251" cy="-147.5259" r="32.0614" gradientTransform="matrix(1.0002 -0.2417 0.2491 0.9704 -52.7949 172.4209)" gradientUnits="userSpaceOnUse">
				<stop  offset="0.0022" style="stop-color:#FFFFFF"/>
				<stop  offset="0.1645" style="stop-color:#FCFCFC"/>
				<stop  offset="0.2947" style="stop-color:#F2F2F2"/>
				<stop  offset="0.4138" style="stop-color:#E1E1E1"/>
				<stop  offset="0.5262" style="stop-color:#C9C9C9"/>
				<stop  offset="0.6341" style="stop-color:#AAAAAA"/>
				<stop  offset="0.7384" style="stop-color:#858585"/>
				<stop  offset="0.8401" style="stop-color:#585858"/>
				<stop  offset="0.937" style="stop-color:#252525"/>
				<stop  offset="1" style="stop-color:#000000"/>
			</radialGradient>
			<path mask="url(#SVGID_4_)" fill="url(#SVGID_5_)" d="M0.738,38.166c0,0,0.558-25.446,32.87-32.766
				c0,0-21.111,12.477-22.198,30.922L0.738,38.166z"/>
		</g>
	</mask>
	
		<radialGradient id="SVGID_6_" cx="85.2251" cy="-147.5259" r="32.0614" gradientTransform="matrix(1.0002 -0.2417 0.2491 0.9704 -52.7949 172.4209)" gradientUnits="userSpaceOnUse">
		<stop  offset="0.0022" style="stop-color:#FFFFFF"/>
		<stop  offset="0.9102" style="stop-color:#FFFFFF"/>
		<stop  offset="1" style="stop-color:#FFFFFF"/>
	</radialGradient>
	<path fill="url(#SVGID_6_)" d="M0.738,38.166c0,0,0.558-25.446,32.87-32.766c0,0-21.111,12.477-22.198,30.922L0.738,38.166z"/>
</g>
<g>
	
		<ellipse transform="matrix(0.9951 -0.0986 0.0986 0.9951 -5.6082 3.022)" fill="#413000" cx="27.757" cy="58.226" rx="2.475" ry="5.479"/>
	<path fill="#FFFFFF" d="M27.462,56.604c0.097,0.972-0.179,1.79-0.617,1.834c-0.437,0.041-0.87-0.705-0.965-1.674
		c-0.096-0.968,0.181-1.789,0.617-1.834C26.934,54.887,27.367,55.637,27.462,56.604z"/>
</g>
<g>
	<path fill="#413000" d="M55.774,55.193c0.298,3.01-0.561,5.56-1.922,5.696c-1.358,0.137-2.705-2.199-3.001-5.209
		c-0.3-3.014,0.563-5.563,1.919-5.699C54.131,49.845,55.476,52.18,55.774,55.193z"/>
	<path fill="#FFFFFF" d="M53.016,53.816c0.098,0.968-0.179,1.786-0.617,1.83c-0.438,0.045-0.869-0.705-0.966-1.674
		c-0.094-0.968,0.182-1.789,0.619-1.83C52.49,52.099,52.922,52.848,53.016,53.816z"/>
</g>
<g>
	<path fill="#BF946F" d="M38.046,60.951c2.154-1.893,4.672,0.899,4.672,0.899s-2.48-4.022-5.819-0.927
		c-3.339,3.088,1.099,7.537,6.162,4.901C38.067,67.581,35.246,63.415,38.046,60.951z"/>
</g>
<path fill="#F3903E" d="M31.979,53.551c0,0-6.717-14.079-9.92,0.545c0,0-0.494-6.903,3.508-8.573
	C29.565,43.853,31.979,53.551,31.979,53.551z"/>
<path fill="#F3903E" d="M59.51,50.268c0,0-7.232-13.966-11.311,0.846c0,0-0.359-6.934,4.246-8.733
	C57.047,40.583,59.51,50.268,59.51,50.268z"/>
<g>
	<path fill="#EC675E" d="M35.882,81.793c2.414,0.671,5.345,0.883,8.904,0.303c2.734-0.443,4.928-1.367,6.69-2.539
		C42.727,73.06,37.46,79.376,35.882,81.793z"/>
	<path fill="#FFFFFF" d="M42.023,72.919c9.243-1.929,11.51-3.323,12.176-5.689c-9.823-0.637-18.653,1.893-23.748,3.802
		C31.393,72.415,34.159,74.559,42.023,72.919z"/>
	<path fill="#F29398" d="M58.551,67.718c-1.466-0.239-2.92-0.396-4.352-0.488c-0.667,2.366-2.933,3.761-12.176,5.689
		c-7.864,1.64-10.63-0.504-11.571-1.888c-2.874,1.077-4.564,1.956-4.564,1.956c1.072,2.339,3.825,7.087,9.995,8.806
		c1.578-2.417,6.845-8.733,15.594-2.236C57.875,75.295,58.551,67.718,58.551,67.718z"/>
</g>
<g>
	<path fill="#8B1D59" d="M26.274,166.914c1.04,0.055,1.627,0.027,1.627,0.027C28.068,162.796,28.405,154,28.405,154L26.274,166.914z
		"/>
	<path fill="#8B1D59" d="M13.712,159.243c0.804,0.335,1.302,0.468,1.302,0.468l4.544-12.1L13.712,159.243z"/>
	<path fill="#8B1D59" d="M42.541,168.949L42.541,168.949c1.443-0.361,2.22-0.666,2.22-0.666l-2.518-13.22L42.541,168.949z"/>
	<path fill="#8B1D59" d="M59.927,165.782c1.205-0.606,1.868-1.026,1.868-1.026l-5.059-11.318L59.927,165.782z"/>
	<path fill="#8B1D59" d="M67.782,146.495l7.777,11.514l1.416,1.172c0.387-0.259,0.745-0.518,1.09-0.779
		C72.046,150.152,67.782,146.495,67.782,146.495z"/>
	<path fill="#8B1D59" d="M83.778,150.324c-0.087-0.109-0.173-0.21-0.267-0.328c-7.311-8.82-17.645-13.273-17.645-13.273
		c-23.862,6.834-44.693-0.305-44.693-0.305c-4.368,4.487-12.446,18.624-12.446,18.624c2.024,1.782,4.042,2.806,5.305,3.338
		l5.846-11.632l-4.544,12.1l-1.395,4.035c5.62,2.446,10.31,3.037,12.654,3.168l2.131-12.914c0,0-0.336,8.796-0.503,12.942v2.967
		c6.73,0.625,11.89-0.271,14.639-0.959l0,0L42.562,154.2l2.518,13.22l0.398,1.625c6.752-0.539,12.095-2.784,14.769-4.125
		l-3.191-12.345l5.059,11.318l1.006,1.678c8.794-2.969,12.757-8.426,12.757-8.426l-7.777-11.514c0,0,4.265,3.658,10.283,11.908
		C82.532,154.406,83.552,151.307,83.778,150.324z"/>
</g>
<defs>
	<filter id="Adobe_OpacityMaskFilter_4_" filterUnits="userSpaceOnUse" x="9.979" y="138.905" width="10.692" height="19.396">
		<feFlood  style="flood-color:white;flood-opacity:1" result="back"/>
		<feBlend  in="SourceGraphic" in2="back" mode="normal"/>
	</filter>
</defs>
<mask maskUnits="userSpaceOnUse" x="9.979" y="138.905" width="10.692" height="19.396" id="SVGID_7_">
	<g filter="url(#Adobe_OpacityMaskFilter_4_)">
		<defs>
			<filter id="Adobe_OpacityMaskFilter_5_" filterUnits="userSpaceOnUse" x="9.979" y="138.905" width="10.692" height="19.396">
				<feFlood  style="flood-color:white;flood-opacity:1" result="back"/>
				<feBlend  in="SourceGraphic" in2="back" mode="normal"/>
			</filter>
		</defs>
		<mask maskUnits="userSpaceOnUse" x="9.979" y="138.905" width="10.692" height="19.396" id="SVGID_7_">
			<g filter="url(#Adobe_OpacityMaskFilter_5_)">
			</g>
		</mask>
		<radialGradient id="SVGID_8_" cx="10.3486" cy="150.5308" r="9.9403" gradientUnits="userSpaceOnUse">
			<stop  offset="0.0022" style="stop-color:#FFFFFF"/>
			<stop  offset="0.0773" style="stop-color:#E3E3E3"/>
			<stop  offset="0.2741" style="stop-color:#9F9F9F"/>
			<stop  offset="0.4608" style="stop-color:#666666"/>
			<stop  offset="0.6318" style="stop-color:#3A3A3A"/>
			<stop  offset="0.7841" style="stop-color:#1A1A1A"/>
			<stop  offset="0.912" style="stop-color:#070707"/>
			<stop  offset="1" style="stop-color:#000000"/>
		</radialGradient>
		<path mask="url(#SVGID_7_)" fill="url(#SVGID_8_)" d="M9.979,155.479c0,0,6.527-11.61,10.692-16.573
			c0,0-5.229,10.807-6.223,19.396C14.449,158.302,11.029,157.362,9.979,155.479z"/>
	</g>
</mask>
<radialGradient id="SVGID_9_" cx="10.3486" cy="150.5308" r="9.9403" gradientUnits="userSpaceOnUse">
	<stop  offset="0.0022" style="stop-color:#FFFFFF"/>
	<stop  offset="1" style="stop-color:#FFFFFF"/>
</radialGradient>
<path fill="url(#SVGID_9_)" d="M9.979,155.479c0,0,6.527-11.61,10.692-16.573c0,0-5.229,10.807-6.223,19.396
	C14.449,158.302,11.029,157.362,9.979,155.479z"/>
<defs>
	<filter id="Adobe_OpacityMaskFilter_6_" filterUnits="userSpaceOnUse" x="15.13" y="142.563" width="10.866" height="22.91">
		<feFlood  style="flood-color:white;flood-opacity:1" result="back"/>
		<feBlend  in="SourceGraphic" in2="back" mode="normal"/>
	</filter>
</defs>
<mask maskUnits="userSpaceOnUse" x="15.13" y="142.563" width="10.866" height="22.91" id="SVGID_10_">
	<g filter="url(#Adobe_OpacityMaskFilter_6_)">
		<defs>
			<filter id="Adobe_OpacityMaskFilter_7_" filterUnits="userSpaceOnUse" x="15.13" y="142.563" width="10.866" height="22.91">
				<feFlood  style="flood-color:white;flood-opacity:1" result="back"/>
				<feBlend  in="SourceGraphic" in2="back" mode="normal"/>
			</filter>
		</defs>
		<mask maskUnits="userSpaceOnUse" x="15.13" y="142.563" width="10.866" height="22.91" id="SVGID_10_">
			<g filter="url(#Adobe_OpacityMaskFilter_7_)">
			</g>
		</mask>
		<radialGradient id="SVGID_11_" cx="15.5059" cy="156.2949" r="10.7239" gradientUnits="userSpaceOnUse">
			<stop  offset="0.0022" style="stop-color:#FFFFFF"/>
			<stop  offset="0.0773" style="stop-color:#E3E3E3"/>
			<stop  offset="0.2741" style="stop-color:#9F9F9F"/>
			<stop  offset="0.4608" style="stop-color:#666666"/>
			<stop  offset="0.6318" style="stop-color:#3A3A3A"/>
			<stop  offset="0.7841" style="stop-color:#1A1A1A"/>
			<stop  offset="0.912" style="stop-color:#070707"/>
			<stop  offset="1" style="stop-color:#000000"/>
		</radialGradient>
		<path mask="url(#SVGID_10_)" fill="url(#SVGID_11_)" d="M15.13,162.411l7.789-19.848c0,0-3.324,12.481,3.077,22.91
			C25.997,165.474,19.345,165.474,15.13,162.411z"/>
	</g>
</mask>
<radialGradient id="SVGID_12_" cx="15.5059" cy="156.2949" r="10.7239" gradientUnits="userSpaceOnUse">
	<stop  offset="0.0022" style="stop-color:#FFFFFF"/>
	<stop  offset="1" style="stop-color:#FFFFFF"/>
</radialGradient>
<path fill="url(#SVGID_12_)" d="M15.13,162.411l7.789-19.848c0,0-3.324,12.481,3.077,22.91
	C25.997,165.474,19.345,165.474,15.13,162.411z"/>
<defs>
	<filter id="Adobe_OpacityMaskFilter_8_" filterUnits="userSpaceOnUse" x="28.986" y="146.389" width="13.056" height="22.638">
		<feFlood  style="flood-color:white;flood-opacity:1" result="back"/>
		<feBlend  in="SourceGraphic" in2="back" mode="normal"/>
	</filter>
</defs>
<mask maskUnits="userSpaceOnUse" x="28.986" y="146.389" width="13.056" height="22.638" id="SVGID_13_">
	<g filter="url(#Adobe_OpacityMaskFilter_8_)">
		<defs>
			<filter id="Adobe_OpacityMaskFilter_9_" filterUnits="userSpaceOnUse" x="28.986" y="146.389" width="13.056" height="22.638">
				<feFlood  style="flood-color:white;flood-opacity:1" result="back"/>
				<feBlend  in="SourceGraphic" in2="back" mode="normal"/>
			</filter>
		</defs>
		<mask maskUnits="userSpaceOnUse" x="28.986" y="146.389" width="13.056" height="22.638" id="SVGID_13_">
			<g filter="url(#Adobe_OpacityMaskFilter_9_)">
			</g>
		</mask>
		<radialGradient id="SVGID_14_" cx="26.5273" cy="159.2915" r="11.9467" gradientUnits="userSpaceOnUse">
			<stop  offset="0.0022" style="stop-color:#FFFFFF"/>
			<stop  offset="0.0773" style="stop-color:#E3E3E3"/>
			<stop  offset="0.2741" style="stop-color:#9F9F9F"/>
			<stop  offset="0.4608" style="stop-color:#666666"/>
			<stop  offset="0.6318" style="stop-color:#3A3A3A"/>
			<stop  offset="0.7841" style="stop-color:#1A1A1A"/>
			<stop  offset="0.912" style="stop-color:#070707"/>
			<stop  offset="1" style="stop-color:#000000"/>
		</radialGradient>
		<path mask="url(#SVGID_13_)" fill="url(#SVGID_14_)" d="M28.987,168.606l1.66-22.218c0,0,1.503,14.752,11.396,20.949
			C42.042,167.338,37.301,170.041,28.987,168.606z"/>
	</g>
</mask>
<radialGradient id="SVGID_15_" cx="26.5273" cy="159.2915" r="11.9467" gradientUnits="userSpaceOnUse">
	<stop  offset="0.0022" style="stop-color:#FFFFFF"/>
	<stop  offset="1" style="stop-color:#FFFFFF"/>
</radialGradient>
<path fill="url(#SVGID_15_)" d="M28.987,168.606l1.66-22.218c0,0,1.503,14.752,11.396,20.949
	C42.042,167.338,37.301,170.041,28.987,168.606z"/>
<defs>
	<filter id="Adobe_OpacityMaskFilter_10_" filterUnits="userSpaceOnUse" x="42.679" y="148.216" width="16.841" height="20.448">
		<feFlood  style="flood-color:white;flood-opacity:1" result="back"/>
		<feBlend  in="SourceGraphic" in2="back" mode="normal"/>
	</filter>
</defs>
<mask maskUnits="userSpaceOnUse" x="42.679" y="148.216" width="16.841" height="20.448" id="SVGID_16_">
	<g filter="url(#Adobe_OpacityMaskFilter_10_)">
		<defs>
			<filter id="Adobe_OpacityMaskFilter_11_" filterUnits="userSpaceOnUse" x="42.679" y="148.216" width="16.841" height="20.448">
				<feFlood  style="flood-color:white;flood-opacity:1" result="back"/>
				<feBlend  in="SourceGraphic" in2="back" mode="normal"/>
			</filter>
		</defs>
		<mask maskUnits="userSpaceOnUse" x="42.679" y="148.216" width="16.841" height="20.448" id="SVGID_16_">
			<g filter="url(#Adobe_OpacityMaskFilter_11_)">
			</g>
		</mask>
		<radialGradient id="SVGID_17_" cx="42.0972" cy="162.4668" r="15.0533" gradientUnits="userSpaceOnUse">
			<stop  offset="0.0022" style="stop-color:#FFFFFF"/>
			<stop  offset="0.0773" style="stop-color:#E3E3E3"/>
			<stop  offset="0.2741" style="stop-color:#9F9F9F"/>
			<stop  offset="0.4608" style="stop-color:#666666"/>
			<stop  offset="0.6318" style="stop-color:#3A3A3A"/>
			<stop  offset="0.7841" style="stop-color:#1A1A1A"/>
			<stop  offset="0.912" style="stop-color:#070707"/>
			<stop  offset="1" style="stop-color:#000000"/>
		</radialGradient>
		<path mask="url(#SVGID_16_)" fill="url(#SVGID_17_)" d="M46.333,168.606l-3.653-20.391c0,0,4.873,11.224,16.841,16.63
			C59.52,164.846,52.205,169.21,46.333,168.606z"/>
	</g>
</mask>
<radialGradient id="SVGID_18_" cx="42.0972" cy="162.4668" r="15.0533" gradientUnits="userSpaceOnUse">
	<stop  offset="0.0022" style="stop-color:#FFFFFF"/>
	<stop  offset="1" style="stop-color:#FFFFFF"/>
</radialGradient>
<path fill="url(#SVGID_18_)" d="M46.333,168.606l-3.653-20.391c0,0,4.873,11.224,16.841,16.63
	C59.52,164.846,52.205,169.21,46.333,168.606z"/>
<defs>
	<filter id="Adobe_OpacityMaskFilter_12_" filterUnits="userSpaceOnUse" x="54.927" y="146.804" width="19.122" height="18.29">
		<feFlood  style="flood-color:white;flood-opacity:1" result="back"/>
		<feBlend  in="SourceGraphic" in2="back" mode="normal"/>
	</filter>
</defs>
<mask maskUnits="userSpaceOnUse" x="54.927" y="146.804" width="19.122" height="18.29" id="SVGID_19_">
	<g filter="url(#Adobe_OpacityMaskFilter_12_)">
		<defs>
			<filter id="Adobe_OpacityMaskFilter_13_" filterUnits="userSpaceOnUse" x="54.927" y="146.804" width="19.122" height="18.29">
				<feFlood  style="flood-color:white;flood-opacity:1" result="back"/>
				<feBlend  in="SourceGraphic" in2="back" mode="normal"/>
			</filter>
		</defs>
		<mask maskUnits="userSpaceOnUse" x="54.927" y="146.804" width="19.122" height="18.29" id="SVGID_19_">
			<g filter="url(#Adobe_OpacityMaskFilter_13_)">
			</g>
		</mask>
		<radialGradient id="SVGID_20_" cx="56.2529" cy="161.7568" r="15.2808" gradientUnits="userSpaceOnUse">
			<stop  offset="0.0022" style="stop-color:#FFFFFF"/>
			<stop  offset="0.0773" style="stop-color:#E3E3E3"/>
			<stop  offset="0.2741" style="stop-color:#9F9F9F"/>
			<stop  offset="0.4608" style="stop-color:#666666"/>
			<stop  offset="0.6318" style="stop-color:#3A3A3A"/>
			<stop  offset="0.7841" style="stop-color:#1A1A1A"/>
			<stop  offset="0.912" style="stop-color:#070707"/>
			<stop  offset="1" style="stop-color:#000000"/>
		</radialGradient>
		<path mask="url(#SVGID_19_)" fill="url(#SVGID_20_)" d="M63.41,165.094l-8.482-18.29c0,0,6.819,8.646,19.122,10.391
			C74.049,157.194,70.708,162.962,63.41,165.094z"/>
	</g>
</mask>
<radialGradient id="SVGID_21_" cx="56.2529" cy="161.7568" r="15.2808" gradientUnits="userSpaceOnUse">
	<stop  offset="0.0022" style="stop-color:#FFFFFF"/>
	<stop  offset="1" style="stop-color:#FFFFFF"/>
</radialGradient>
<path fill="url(#SVGID_21_)" d="M63.41,165.094l-8.482-18.29c0,0,6.819,8.646,19.122,10.391
	C74.049,157.194,70.708,162.962,63.41,165.094z"/>
<defs>
	<filter id="Adobe_OpacityMaskFilter_14_" filterUnits="userSpaceOnUse" x="66.153" y="144.726" width="16.623" height="12.383">
		<feFlood  style="flood-color:white;flood-opacity:1" result="back"/>
		<feBlend  in="SourceGraphic" in2="back" mode="normal"/>
	</filter>
</defs>
<mask maskUnits="userSpaceOnUse" x="66.153" y="144.726" width="16.623" height="12.383" id="SVGID_22_">
	<g filter="url(#Adobe_OpacityMaskFilter_14_)">
		<defs>
			<filter id="Adobe_OpacityMaskFilter_15_" filterUnits="userSpaceOnUse" x="66.153" y="144.726" width="16.623" height="12.383">
				<feFlood  style="flood-color:white;flood-opacity:1" result="back"/>
				<feBlend  in="SourceGraphic" in2="back" mode="normal"/>
			</filter>
		</defs>
		<mask maskUnits="userSpaceOnUse" x="66.153" y="144.726" width="16.623" height="12.383" id="SVGID_22_">
			<g filter="url(#Adobe_OpacityMaskFilter_15_)">
			</g>
		</mask>
		<radialGradient id="SVGID_23_" cx="70.0527" cy="154.9731" r="12.9233" gradientUnits="userSpaceOnUse">
			<stop  offset="0.0022" style="stop-color:#FFFFFF"/>
			<stop  offset="0.0773" style="stop-color:#E3E3E3"/>
			<stop  offset="0.2741" style="stop-color:#9F9F9F"/>
			<stop  offset="0.4608" style="stop-color:#666666"/>
			<stop  offset="0.6318" style="stop-color:#3A3A3A"/>
			<stop  offset="0.7841" style="stop-color:#1A1A1A"/>
			<stop  offset="0.912" style="stop-color:#070707"/>
			<stop  offset="1" style="stop-color:#000000"/>
		</radialGradient>
		<path mask="url(#SVGID_22_)" fill="url(#SVGID_23_)" d="M78.125,157.108c0,0-5.986-8.645-11.971-12.383
			c0,0,10.309,4.736,16.623,6.192C82.777,150.918,81.415,155.045,78.125,157.108z"/>
	</g>
</mask>
<radialGradient id="SVGID_24_" cx="70.0527" cy="154.9731" r="12.9233" gradientUnits="userSpaceOnUse">
	<stop  offset="0.0022" style="stop-color:#FFFFFF"/>
	<stop  offset="1" style="stop-color:#FFFFFF"/>
</radialGradient>
<path fill="url(#SVGID_24_)" d="M78.125,157.108c0,0-5.986-8.645-11.971-12.383c0,0,10.309,4.736,16.623,6.192
	C82.777,150.918,81.415,155.045,78.125,157.108z"/>
</svg>
