<?xml version="1.0" encoding="utf-8"?>
<!-- Generator: Adobe Illustrator 16.0.0, SVG Export Plug-In . SVG Version: 6.00 Build 0)  -->
<!DOCTYPE svg PUBLIC "-//W3C//DTD SVG 1.1//EN" "http://www.w3.org/Graphics/SVG/1.1/DTD/svg11.dtd">
<svg version="1.1" id="Ebene_1" xmlns="http://www.w3.org/2000/svg" xmlns:xlink="http://www.w3.org/1999/xlink" x="0px" y="0px"
	 width="122px" height="223px" viewBox="0 0 122 223" enable-background="new 0 0 122 223" xml:space="preserve">
<path fill="#4B8C3D" d="M21.144,53.173c2.173-1.885,5.314-3.868,5.314-3.868C7.273,54.495,1.86,63.968,3.503,70.937
	C4.535,61.562,13.887,56.062,21.144,53.173z"/>
<g>
	<path fill="#F4D9BF" d="M54.983,197.688c-0.014-0.177-0.027-0.349-0.041-0.53c-1.181-16.467-0.248-25.036-0.248-25.036
		c-5.69,0.57-13.614-0.814-13.614-0.814c0.741,11.12,1.719,19.697,2.818,26.313C46.651,199.046,51.087,200.457,54.983,197.688z"/>
	<path fill="#C5E2D0" d="M55.604,205.521c-0.189-2.26-0.403-4.854-0.621-7.832c-3.896,2.769-8.332,1.358-11.083-0.068
		c0.573,3.455,1.178,6.363,1.801,8.824C47.461,204.921,50.896,203.037,55.604,205.521z"/>
	<path fill="#69A840" d="M45.701,206.444c3.195,12.63,6.829,13.282,8.695,12.887c2.36-0.5,2.04-3.903,1.208-13.811
		C50.896,203.037,47.461,204.921,45.701,206.444z"/>
	<g>
		<path fill="#0077B3" d="M53.226,208.491l-0.991-1.897c0,0-2.821-0.3-5.625,1.48l0.273,1.932l0.285-1.68
			c0,0,3.548-0.896,4.694-1.226L53.226,208.491z"/>
		<path fill="#FCF9F8" d="M52.241,209.854c0,0-0.164,0.308-0.448,0.722c-0.144,0.207-0.312,0.443-0.502,0.688
			c-0.189,0.248-0.392,0.508-0.601,0.764c-0.212,0.25-0.414,0.509-0.625,0.737c-0.196,0.236-0.381,0.455-0.557,0.636
			c-0.311,0.379-0.565,0.625-0.565,0.625s0.072-0.336,0.276-0.814c0.112-0.229,0.251-0.493,0.42-0.766
			c0.176-0.261,0.377-0.537,0.584-0.801c0.435-0.519,0.917-0.993,1.317-1.304C51.936,210.018,52.241,209.854,52.241,209.854z"/>
		<path fill="#FCF9F8" d="M52.73,213.423c0,0-0.298-0.152-0.716-0.384c-0.422-0.228-0.964-0.534-1.52-0.796
			c-0.138-0.064-0.274-0.138-0.416-0.191c-0.142-0.05-0.271-0.127-0.408-0.167c-0.138-0.043-0.263-0.108-0.39-0.144
			c-0.125-0.034-0.245-0.087-0.358-0.114c-0.226-0.06-0.418-0.116-0.557-0.141c-0.137-0.03-0.221-0.057-0.221-0.057
			s0.077-0.025,0.217-0.063c0.145-0.044,0.352-0.074,0.604-0.083c0.126-0.011,0.263,0.008,0.407,0.017
			c0.149,0.01,0.298,0.04,0.452,0.076c0.312,0.064,0.624,0.188,0.931,0.322c0.298,0.154,0.587,0.319,0.835,0.508
			c0.25,0.185,0.463,0.382,0.636,0.563C52.57,213.124,52.73,213.423,52.73,213.423z"/>
		<path fill="#FCF9F8" d="M53.125,213.487c0,0-0.164,0.308-0.448,0.723c-0.143,0.208-0.313,0.445-0.502,0.693
			c-0.189,0.244-0.392,0.505-0.599,0.76c-0.216,0.251-0.416,0.511-0.626,0.739c-0.194,0.237-0.381,0.454-0.556,0.636
			c-0.313,0.379-0.567,0.627-0.567,0.627s0.072-0.337,0.276-0.817c0.112-0.227,0.251-0.492,0.42-0.763
			c0.175-0.264,0.376-0.539,0.584-0.803c0.433-0.52,0.916-0.993,1.318-1.306C52.817,213.655,53.125,213.487,53.125,213.487z"/>
		<path fill="#FCF9F8" d="M53.613,217.062c0,0-0.299-0.154-0.715-0.385c-0.422-0.228-0.964-0.536-1.519-0.797
			c-0.141-0.063-0.275-0.137-0.416-0.193c-0.141-0.048-0.273-0.125-0.409-0.168c-0.137-0.043-0.263-0.108-0.39-0.143
			c-0.125-0.032-0.245-0.089-0.356-0.114c-0.227-0.063-0.419-0.116-0.56-0.142c-0.137-0.032-0.221-0.053-0.221-0.053
			s0.078-0.027,0.218-0.065c0.144-0.043,0.352-0.076,0.604-0.083c0.129-0.014,0.263,0.007,0.408,0.018
			c0.146,0.006,0.296,0.039,0.451,0.073c0.312,0.065,0.624,0.19,0.931,0.325c0.298,0.154,0.587,0.317,0.833,0.509
			c0.251,0.184,0.466,0.381,0.636,0.56C53.453,216.761,53.613,217.062,53.613,217.062z"/>
	</g>
	<path fill="#F4D9BF" d="M72.19,197.688c0.012-0.177,0.025-0.349,0.039-0.53c1.18-16.467,0.248-25.036,0.248-25.036
		c5.69,0.57,13.615-0.814,13.615-0.814c-0.743,11.12-1.719,19.697-2.82,26.313C80.52,199.046,76.085,200.457,72.19,197.688z"/>
	<path fill="#C5E2D0" d="M71.567,205.521c0.189-2.26,0.407-4.854,0.623-7.832c3.895,2.769,8.33,1.358,11.081-0.068
		c-0.572,3.455-1.178,6.363-1.801,8.824C79.71,204.921,76.276,203.037,71.567,205.521z"/>
	<path fill="#69A840" d="M81.471,206.444c-3.195,12.63-6.829,13.282-8.696,12.887c-2.358-0.5-2.037-3.903-1.207-13.811
		C76.276,203.037,79.71,204.921,81.471,206.444z"/>
	<g>
		<path fill="#0077B3" d="M73.946,208.491l0.993-1.897c0,0,2.82-0.3,5.625,1.48l-0.273,1.932l-0.286-1.68
			c0,0-3.549-0.896-4.695-1.226L73.946,208.491z"/>
		<path fill="#FCF9F8" d="M74.93,209.854c0,0,0.164,0.308,0.448,0.722c0.143,0.207,0.313,0.443,0.502,0.688
			c0.189,0.248,0.392,0.508,0.601,0.764c0.215,0.25,0.413,0.509,0.624,0.737c0.196,0.236,0.385,0.455,0.558,0.636
			c0.312,0.379,0.567,0.625,0.567,0.625s-0.074-0.336-0.274-0.814c-0.115-0.229-0.254-0.493-0.422-0.766
			c-0.178-0.261-0.375-0.537-0.586-0.801c-0.436-0.519-0.917-0.993-1.317-1.304C75.238,210.018,74.93,209.854,74.93,209.854z"/>
		<path fill="#FCF9F8" d="M74.442,213.423c0,0,0.299-0.152,0.716-0.384c0.422-0.228,0.964-0.534,1.52-0.796
			c0.141-0.064,0.274-0.138,0.416-0.191c0.142-0.05,0.273-0.127,0.408-0.167c0.137-0.043,0.264-0.108,0.39-0.144
			c0.125-0.034,0.245-0.087,0.358-0.114c0.226-0.06,0.418-0.116,0.558-0.141c0.139-0.03,0.222-0.057,0.222-0.057
			s-0.078-0.025-0.219-0.063c-0.144-0.044-0.35-0.074-0.604-0.083c-0.127-0.011-0.263,0.008-0.407,0.017
			c-0.147,0.01-0.296,0.04-0.448,0.076c-0.315,0.064-0.628,0.188-0.935,0.322c-0.296,0.154-0.585,0.319-0.833,0.508
			c-0.252,0.185-0.465,0.382-0.636,0.563C74.602,213.124,74.442,213.423,74.442,213.423z"/>
		<path fill="#FCF9F8" d="M74.048,213.487c0,0,0.164,0.308,0.448,0.723c0.141,0.208,0.312,0.445,0.5,0.693
			c0.191,0.244,0.392,0.505,0.601,0.76c0.215,0.251,0.414,0.511,0.626,0.739c0.194,0.237,0.38,0.454,0.556,0.636
			c0.309,0.379,0.567,0.627,0.567,0.627s-0.074-0.337-0.276-0.817c-0.112-0.227-0.253-0.492-0.422-0.763
			c-0.176-0.264-0.373-0.539-0.584-0.803c-0.434-0.52-0.917-0.993-1.317-1.306C74.354,213.655,74.048,213.487,74.048,213.487z"/>
		<path fill="#FCF9F8" d="M73.56,217.062c0,0,0.299-0.154,0.716-0.385c0.42-0.228,0.962-0.536,1.518-0.797
			c0.141-0.063,0.275-0.137,0.416-0.193c0.14-0.048,0.273-0.125,0.408-0.168c0.137-0.043,0.263-0.108,0.39-0.143
			c0.125-0.032,0.243-0.089,0.358-0.114c0.226-0.063,0.418-0.116,0.557-0.142c0.139-0.032,0.223-0.053,0.223-0.053
			s-0.079-0.027-0.22-0.065c-0.144-0.043-0.349-0.076-0.604-0.083c-0.127-0.014-0.263,0.007-0.406,0.018
			c-0.147,0.006-0.298,0.039-0.45,0.073c-0.313,0.065-0.625,0.19-0.932,0.325c-0.296,0.154-0.587,0.317-0.833,0.509
			c-0.253,0.184-0.465,0.381-0.636,0.56C73.718,216.761,73.56,217.062,73.56,217.062z"/>
	</g>
	<path fill="#F4D9BF" d="M80.001,120.47c0,0,13.353,17.728,10.797,35.321c-4.822-0.851-8.665,1.634-8.711,3.456
		c0.046,1.589,4.59-1.092,7.501-0.546c-5.955,3.317-6.909,6.91-6.138,7.729c0.771,0.817,3.547-1.638,8.092-6.274
		c-1.546,4.591-1.227,7.773-0.363,7.729c0.864-0.045,2.546-2.456,3.862-6.547c1.001,3.547,0.411,5.912,1.868,5.682
		c1.452-0.228,1.316-4.045,1.224-6.499c2.412,3.818,3.322,4.045,3.957,3.637c0.638-0.407-1.003-5.811-4.479-7.371
		c3.686-11.991,2.128-32.068-6.386-42.424C86.686,116.346,80.001,120.47,80.001,120.47z"/>
	<path fill="#DC9015" d="M65.402,96.34c0,0,10.924,15.751,14.045,25.256c6.813-4.682,12.771-6.953,12.771-6.953
		S80.584,96.623,65.402,96.34z"/>
	<path fill="#F4D9BF" d="M43.008,120.856c0,0-13.353,17.728-10.797,35.322c4.822-0.853,8.665,1.633,8.711,3.454
		c-0.046,1.59-4.59-1.091-7.501-0.545c5.955,3.317,6.909,6.911,6.138,7.729c-0.771,0.816-3.546-1.64-8.092-6.274
		c1.546,4.59,1.226,7.774,0.363,7.729c-0.863-0.046-2.546-2.455-3.862-6.548c-1.001,3.547-0.411,5.912-1.868,5.682
		c-1.452-0.227-1.316-4.044-1.224-6.499c-2.411,3.817-3.322,4.045-3.957,3.638c-0.638-0.41,1.003-5.812,4.48-7.372
		c-3.687-11.99-2.128-32.067,6.385-42.424C36.323,116.732,43.008,120.856,43.008,120.856z"/>
	<path fill="#DC9015" d="M57.607,96.726c0,0-10.923,15.751-14.045,25.256c-6.812-4.681-12.771-6.951-12.771-6.951
		S42.425,97.008,57.607,96.726z"/>
	<path fill="#E7B040" d="M39.2,146.049c0,0-0.852-40.96,19.958-50.986c4.163-2.08,16.742,1.419,26.389,51.932L39.2,146.049z"/>
	<defs>
		<filter id="Adobe_OpacityMaskFilter" filterUnits="userSpaceOnUse" x="40.931" y="100.21" width="14.882" height="45.154">
			<feColorMatrix  type="matrix" values="1 0 0 0 0  0 1 0 0 0  0 0 1 0 0  0 0 0 1 0"/>
		</filter>
	</defs>
	<mask maskUnits="userSpaceOnUse" x="40.931" y="100.21" width="14.882" height="45.154" id="SVGID_1_">
		<g filter="url(#Adobe_OpacityMaskFilter)">
			<defs>
				<filter id="Adobe_OpacityMaskFilter_1_" filterUnits="userSpaceOnUse" x="40.931" y="100.21" width="14.882" height="45.154">
					<feFlood  style="flood-color:white;flood-opacity:1" result="back"/>
					<feBlend  in="SourceGraphic" in2="back" mode="normal"/>
				</filter>
			</defs>
			<mask maskUnits="userSpaceOnUse" x="40.931" y="100.21" width="14.882" height="45.154" id="SVGID_1_">
				<g filter="url(#Adobe_OpacityMaskFilter_1_)">
				</g>
			</mask>
			<radialGradient id="SVGID_2_" cx="27.6763" cy="117.9092" r="38.1563" gradientUnits="userSpaceOnUse">
				<stop  offset="0.0022" style="stop-color:#FFFFFF"/>
				<stop  offset="0.2864" style="stop-color:#AFAFAF"/>
				<stop  offset="0.6369" style="stop-color:#525252"/>
				<stop  offset="0.8828" style="stop-color:#171717"/>
				<stop  offset="1" style="stop-color:#000000"/>
			</radialGradient>
			<path mask="url(#SVGID_1_)" fill="url(#SVGID_2_)" d="M55.813,100.21c0,0-11.118,20.648-6.808,44.475
				c-7.261,0.679-7.261,0.679-7.261,0.679S35.846,118.817,55.813,100.21z"/>
		</g>
	</mask>
	<radialGradient id="SVGID_3_" cx="27.6763" cy="117.9092" r="38.1563" gradientUnits="userSpaceOnUse">
		<stop  offset="0.0022" style="stop-color:#FFFFFF"/>
		<stop  offset="1" style="stop-color:#FFFFFF"/>
	</radialGradient>
	<path fill="url(#SVGID_3_)" d="M55.813,100.21c0,0-11.118,20.648-6.808,44.475c-7.261,0.679-7.261,0.679-7.261,0.679
		S35.846,118.817,55.813,100.21z"/>
	<path fill="#F1C7A4" d="M57.172,95.773c0,0,0.355,1.419,0.851,3.475c0.497,2.059,2.554,3.336,5.038,2.909
		c2.482-0.423,2.41-1.418,2.41-3.262c0-1.846-0.141-3.546-0.141-3.546L57.172,95.773z"/>
	<path fill="#925F2D" d="M19.253,53.609c1.272,1.476,11.391-3.687,11.391-3.687s-3.505,3.516-2.771,4.855
		c0.736,1.338,6.4-2.668,6.4-2.668s-3.695,4.234-2.763,5.779c0.932,1.548,15.718-2.751,20.059-4.862c0,0-3.284,2.563-2.752,3.732
		c0.532,1.168,14.729-1.868,18.615-3.863c0,0-3.022,3.202-1.616,4.471c1.405,1.267,11.517-4.782,11.517-4.782
		s4.589,6.396,7.419,6.828c2.832,0.434,0.676-5.906,0.676-5.906s11.395,7.949,14.59,8.09c3.2,0.144-0.133-4.669-0.133-4.669
		s3.208,3.969,8.699,7.31c0,0,9.123,4.585,10.585,2.423c1.466-2.16-5.969-6.943-5.969-6.943s10.555-2.176,9.786-5.145
		c-0.767-2.968-9.95,0.25-9.95,0.25c-50.5-11.24-86.579-8.039-86.579-8.039S17.979,52.136,19.253,53.609z"/>
	<path fill="#F4D9BF" d="M103.74,72.218c0.609-3.013,1.665-6.391,1.71-10.12c-3.553-2.691-5.565-5.17-5.565-5.17
		s3.333,4.813,0.133,4.669c-3.196-0.142-14.59-8.09-14.59-8.09s2.156,6.34-0.676,5.906c-2.83-0.432-7.419-6.828-7.419-6.828
		s-10.111,6.048-11.517,4.782c-1.406-1.269,1.616-4.471,1.616-4.471c-3.886,1.996-18.083,5.031-18.615,3.863
		c-0.532-1.168,2.752-3.732,2.752-3.732c-3.652,1.774-14.683,5.094-18.657,5.188c-0.348,10.658-5.525,15.361-3.563,19.599
		c7.244,12.516,26.349,18.24,26.349,18.24s5.936,1.717,11.132,1.99c34.572,0.061,35.831-15.865,35.831-15.865
		C103.145,79.138,102.975,76.037,103.74,72.218z"/>
	<path fill="#925F2D" d="M106.822,69.022l1.762-4.785c-1.151-0.7-2.194-1.426-3.134-2.14c-0.037,2.943-0.7,5.663-1.277,8.161
		C104.865,69.687,105.745,69.193,106.822,69.022z"/>
	<path fill="#F4D9BF" d="M111.905,73.038c-1.044-4.442-5.083-4.015-5.083-4.015c-1.077,0.171-1.957,0.665-2.649,1.237
		c-0.155,0.668-0.304,1.322-0.433,1.958c-0.765,3.819-0.595,6.92-1.08,9.961C106.557,84.951,112.95,77.479,111.905,73.038z"/>
	<path fill="#F4D9BF" d="M32.746,60.575c-3.362-6.474-11.367-4.296-10.41,3.03c1.128,8.586,8.425,5.339,8.457,5.325
		C31.585,66.651,32.395,63.939,32.746,60.575z"/>
	<path fill="#4B8C3D" d="M73.772,3.879C27.708-0.518,26.458,46.785,26.458,46.785s5.732-0.506,15.818-0.406
		C46.976,5.121,68.397,3.6,73.772,3.879z"/>
	<path fill="#A1BF35" d="M75,3.998c-0.417-0.047-0.821-0.08-1.229-0.119c-5.375-0.279-26.796,1.242-31.496,42.5
		c12.382,0.121,31.333,1.158,54.318,5.18l0,0C101.324,7.427,75,3.998,75,3.998z"/>
	<path fill="#69A840" d="M75,3.998c0,0,26.323,3.43,21.594,47.562l0,0c5.279,0.922,10.769,2.003,16.442,3.265
		C113.037,54.824,120.077,9.118,75,3.998z"/>
	<path fill="#925F2D" d="M54.14,42.127c0,0,19.266,1.142,26.478,3.017c0,0,1.796-13.682-11.672-15.237
		C55.161,28.313,54.14,42.127,54.14,42.127z"/>
	<g>
		<path fill="#413000" d="M52.342,70.979c-0.356,2.997-1.724,5.299-3.049,5.139c-1.325-0.159-2.107-2.718-1.751-5.714
			c0.358-2.996,1.726-5.297,3.051-5.138C51.917,65.422,52.704,67.979,52.342,70.979z"/>
		
			<ellipse transform="matrix(0.9929 0.1189 -0.1189 0.9929 8.6219 -5.4598)" fill="#FFFFFF" cx="50.073" cy="69.537" rx="1.359" ry="2.722"/>
	</g>
	<g>
		
			<ellipse transform="matrix(0.9929 0.1191 -0.1191 0.9929 9.3857 -8.9332)" fill="#413000" cx="79.426" cy="74.052" rx="2.417" ry="5.465"/>
		
			<ellipse transform="matrix(0.9929 0.1188 -0.1188 0.9929 9.2236 -8.9351)" fill="#FFFFFF" cx="79.558" cy="72.898" rx="1.36" ry="2.72"/>
	</g>
	<path fill="#64421C" d="M45.337,64.689c0.492,0.204,1.43-3.542,4.832-3.894c3.408-0.354,4.512,4.995,5.021,4.886
		c0.471-0.101-0.519-6.67-4.137-7.052C46.642,58.162,44.824,64.477,45.337,64.689z"/>
	<path fill="#64421C" d="M74.932,68.063c0.492,0.204,1.428-3.542,4.832-3.895c3.407-0.353,4.511,4.993,5.019,4.886
		c0.472-0.101-0.517-6.667-4.137-7.053C76.236,61.534,74.417,67.849,74.932,68.063z"/>
	<path fill="#BF946F" d="M65.567,75.856c0,0-0.201-0.15-0.579-0.365c-0.373-0.215-0.94-0.48-1.644-0.636
		c-0.354-0.087-0.744-0.104-1.141-0.065c-0.392,0.032-0.827,0.181-1.158,0.38c-0.087,0.063-0.218,0.124-0.273,0.198
		c-0.059,0.075-0.119,0.143-0.181,0.212c-0.099,0.176-0.229,0.351-0.276,0.567c-0.157,0.408-0.152,0.878-0.087,1.324
		c0.047,0.222,0.082,0.451,0.179,0.662c0.045,0.105,0.077,0.217,0.129,0.318l0.173,0.294c0.234,0.39,0.536,0.733,0.874,1.018
		c0.15,0.163,0.358,0.25,0.529,0.381c0.169,0.132,0.358,0.228,0.549,0.312c0.361,0.201,0.741,0.312,1.093,0.417
		c0.171,0.065,0.346,0.095,0.511,0.124c0.164,0.035,0.321,0.065,0.468,0.095c0.294,0.076,0.559,0.077,0.775,0.099
		c0.436,0.043,0.685,0.068,0.685,0.068s-0.248,0.023-0.686,0.048c-0.222,0.009-0.491,0.042-0.797,0.009
		c-0.304-0.034-0.663-0.011-1.035-0.115c-0.375-0.08-0.786-0.162-1.195-0.344c-0.211-0.074-0.422-0.161-0.622-0.289
		c-0.203-0.12-0.427-0.224-0.608-0.395c-0.388-0.302-0.761-0.669-1.036-1.122l-0.205-0.34c-0.063-0.117-0.104-0.246-0.157-0.37
		c-0.114-0.245-0.163-0.51-0.22-0.775c-0.072-0.534-0.069-1.097,0.128-1.612c0.067-0.266,0.234-0.496,0.389-0.723
		c0.099-0.107,0.204-0.212,0.308-0.312c0.105-0.102,0.205-0.134,0.305-0.202c0.479-0.265,0.947-0.356,1.409-0.367
		c0.457-0.008,0.884,0.053,1.253,0.175c0.749,0.226,1.273,0.607,1.625,0.867C65.403,75.669,65.567,75.856,65.567,75.856z"/>
	<g>
		<path fill="#BF946F" d="M24.907,62.335c0,0,0.04-0.173,0.12-0.471c0.024-0.074,0.045-0.155,0.071-0.246
			c0.042-0.085,0.087-0.179,0.134-0.28c0.052-0.101,0.104-0.211,0.161-0.325c0.07-0.105,0.161-0.204,0.248-0.313
			c0.161-0.233,0.425-0.412,0.704-0.587c0.154-0.064,0.311-0.138,0.479-0.196c0.176-0.029,0.357-0.053,0.542-0.072
			c0.186,0.021,0.375,0.043,0.566,0.068c0.179,0.066,0.36,0.136,0.541,0.211c0.162,0.105,0.32,0.22,0.479,0.333
			c0.146,0.125,0.268,0.277,0.401,0.416c0.145,0.134,0.211,0.316,0.319,0.472c0.103,0.161,0.19,0.325,0.247,0.5
			c0.069,0.172,0.133,0.341,0.191,0.512c0.037,0.174,0.072,0.347,0.107,0.516c0.087,0.335,0.08,0.669,0.097,0.979
			c0.03,0.31-0.009,0.603-0.037,0.873c-0.03,0.265-0.037,0.512-0.1,0.723c-0.047,0.211-0.094,0.395-0.129,0.549
			c-0.074,0.301-0.124,0.468-0.124,0.468s-0.002-0.18,0.008-0.487c0.005-0.152,0.014-0.34,0.023-0.552
			c0.019-0.212-0.023-0.452-0.025-0.711c-0.01-0.257-0.012-0.539-0.067-0.827c-0.045-0.291-0.068-0.6-0.167-0.9
			c-0.039-0.151-0.082-0.306-0.123-0.462c-0.065-0.147-0.128-0.295-0.188-0.445c-0.053-0.155-0.132-0.294-0.223-0.428
			c-0.095-0.129-0.154-0.292-0.274-0.396c-0.11-0.113-0.206-0.244-0.323-0.348l-0.373-0.271c-0.14-0.055-0.274-0.117-0.408-0.181
			c-0.146-0.026-0.288-0.055-0.428-0.08c-0.143,0.01-0.282,0.023-0.422,0.027c-0.136,0.04-0.266,0.08-0.396,0.117
			c-0.127,0.043-0.23,0.133-0.348,0.192c-0.12,0.056-0.212,0.146-0.303,0.231c-0.088,0.085-0.183,0.164-0.261,0.246
			c-0.069,0.09-0.136,0.176-0.196,0.257c-0.063,0.084-0.124,0.161-0.177,0.235c-0.042,0.082-0.082,0.157-0.116,0.228
			C24.994,62.182,24.907,62.335,24.907,62.335z"/>
		<path fill="#BF946F" d="M26.286,64.087c0,0,0.073,0.07,0.187,0.201c0.057,0.066,0.124,0.154,0.218,0.212
			c0.094,0.063,0.172,0.149,0.301,0.196c0.059,0.023,0.117,0.06,0.181,0.08c0.067,0.011,0.134,0.027,0.203,0.043
			c0.065,0.027,0.142,0.003,0.212,0.007c0.074,0.002,0.147,0.004,0.224-0.022c0.151-0.016,0.295-0.095,0.449-0.15
			c0.14-0.089,0.291-0.166,0.413-0.286c0.143-0.097,0.247-0.241,0.36-0.365c0.092-0.144,0.205-0.271,0.268-0.425
			c0.085-0.143,0.127-0.294,0.181-0.438c0.05-0.147,0.062-0.292,0.097-0.428c0.013-0.136,0.013-0.263,0.023-0.378
			c0.014-0.117-0.013-0.217-0.015-0.301c-0.012-0.174-0.019-0.274-0.019-0.274s0.05,0.082,0.134,0.241
			c0.035,0.08,0.107,0.174,0.127,0.296c0.03,0.123,0.077,0.262,0.098,0.417c0.001,0.158,0.028,0.333-0.004,0.516
			c-0.03,0.179-0.047,0.378-0.134,0.562c-0.064,0.194-0.167,0.378-0.288,0.56c-0.134,0.164-0.261,0.348-0.439,0.48
			c-0.166,0.149-0.365,0.249-0.558,0.353c-0.209,0.079-0.416,0.143-0.634,0.15c-0.107,0.017-0.213,0.01-0.318-0.009
			c-0.101-0.021-0.2-0.021-0.291-0.067c-0.094-0.041-0.18-0.076-0.261-0.114c-0.079-0.05-0.142-0.111-0.207-0.161
			c-0.137-0.094-0.211-0.237-0.289-0.341c-0.081-0.107-0.107-0.208-0.137-0.29C26.316,64.184,26.286,64.087,26.286,64.087z"/>
	</g>
	<g>
		<path fill="#BF946F" d="M108.996,74.979c0,0-0.056-0.159-0.138-0.438c-0.025-0.147-0.128-0.291-0.222-0.455
			c-0.071-0.174-0.256-0.308-0.396-0.48c-0.192-0.124-0.385-0.27-0.634-0.328c-0.112-0.055-0.244-0.055-0.373-0.065
			c-0.068,0-0.132-0.015-0.196-0.01l-0.2,0.03l-0.202,0.03l-0.192,0.081l-0.192,0.077l-0.176,0.119
			c-0.118,0.079-0.242,0.152-0.333,0.272c-0.09,0.116-0.217,0.198-0.281,0.337l-0.233,0.38c-0.06,0.138-0.104,0.284-0.164,0.425
			l-0.075,0.211l-0.047,0.221c-0.028,0.147-0.056,0.295-0.087,0.438c-0.036,0.292-0.033,0.583-0.057,0.857
			c-0.009,0.276,0.03,0.537,0.034,0.783c0.017,0.241,0.023,0.468,0.06,0.666c0.031,0.197,0.057,0.372,0.078,0.516
			c0.042,0.288,0.058,0.456,0.058,0.456s-0.066-0.153-0.169-0.425c-0.05-0.138-0.114-0.305-0.184-0.499
			c-0.083-0.189-0.137-0.415-0.184-0.663c-0.043-0.25-0.129-0.519-0.141-0.813c-0.01-0.294-0.047-0.606-0.021-0.93
			c0.021-0.165,0.041-0.329,0.064-0.496l0.033-0.254l0.085-0.249c0.059-0.166,0.111-0.334,0.18-0.501l0.274-0.469
			c0.088-0.162,0.245-0.276,0.362-0.415c0.12-0.141,0.28-0.238,0.436-0.338c0.077-0.049,0.152-0.102,0.231-0.144l0.261-0.089
			l0.254-0.083c0.086-0.012,0.178-0.018,0.266-0.025c0.174-0.023,0.348-0.03,0.514,0.015c0.168,0.028,0.329,0.052,0.472,0.134
			c0.305,0.105,0.521,0.323,0.72,0.506c0.151,0.228,0.313,0.413,0.357,0.634c0.069,0.208,0.138,0.378,0.131,0.524
			C108.994,74.81,108.996,74.979,108.996,74.979z"/>
		<path fill="#BF946F" d="M107.906,76.516c0,0-0.252,0.172-0.684,0.294c-0.423,0.119-1.044,0.212-1.675-0.017
			c-0.157-0.043-0.301-0.156-0.442-0.245c-0.122-0.121-0.254-0.237-0.324-0.392c-0.036-0.074-0.079-0.142-0.102-0.214
			c-0.015-0.077-0.028-0.149-0.042-0.221c-0.039-0.14-0.024-0.271-0.006-0.388c0.015-0.117,0.02-0.225,0.056-0.312
			c0.034-0.087,0.064-0.161,0.091-0.221c0.05-0.121,0.086-0.186,0.086-0.186s0.014,0.079,0.033,0.203
			c0.005,0.064,0.016,0.137,0.023,0.224c-0.002,0.084,0.04,0.174,0.055,0.271c0.02,0.098,0.043,0.197,0.095,0.29
			c0.022,0.047,0.042,0.094,0.063,0.142l0.097,0.124c0.043,0.094,0.156,0.136,0.224,0.214c0.103,0.05,0.187,0.12,0.308,0.147
			c0.215,0.1,0.482,0.127,0.723,0.173c0.25,0.024,0.487,0.05,0.7,0.062C107.618,76.496,107.906,76.516,107.906,76.516z"/>
	</g>
	<path fill="#69A840" d="M32.746,60.575c0.081-0.753,0.139-1.537,0.166-2.359c-0.751,0.017-1.253-0.081-1.402-0.327
		c-0.932-1.545,2.763-5.779,2.763-5.779s-5.664,4.006-6.4,2.668c-0.733-1.339,2.771-4.855,2.771-4.855s-10.119,5.163-11.391,3.687
		c-0.499-0.576,0.498-1.744,1.891-2.956c-7.257,2.889-16.609,8.389-17.641,17.765c0.778,3.291,3.126,6.024,6.347,7.481
		c10.036,4.553,19.499,1.915,19.499,1.915c-1.135-2.451,0.119-5.062,1.444-8.884c-0.032,0.014-7.329,3.261-8.457-5.325
		C21.379,56.279,29.384,54.102,32.746,60.575z"/>
	<path fill="#EC675E" d="M56.181,94.661c1.748,1.001,3.996,1.746,6.884,2.002c2.219,0.198,4.112-0.086,5.719-0.652
		C63.252,89.208,57.894,93.088,56.181,94.661z"/>
	<path fill="#FFFFFF" d="M62.732,88.958c7.589,0.332,9.632-0.306,10.62-2.018c-7.533-2.445-14.917-2.226-19.269-1.748
		C54.544,86.458,56.273,88.678,62.732,88.958z"/>
	<path fill="#F29398" d="M76.647,88.181c-1.094-0.476-2.196-0.885-3.295-1.242c-0.987,1.712-3.031,2.35-10.62,2.018
		c-6.458-0.279-8.188-2.5-8.649-3.766c-2.454,0.271-3.946,0.623-3.946,0.623c0.371,2.035,1.576,6.28,6.045,8.847
		c1.712-1.573,7.071-5.453,12.603,1.35C74.619,93.956,76.647,88.181,76.647,88.181z"/>
	<defs>
		<filter id="Adobe_OpacityMaskFilter_2_" filterUnits="userSpaceOnUse" x="28.49" y="4.968" width="46.982" height="39.791">
			<feColorMatrix  type="matrix" values="1 0 0 0 0  0 1 0 0 0  0 0 1 0 0  0 0 0 1 0"/>
		</filter>
	</defs>
	<mask maskUnits="userSpaceOnUse" x="28.49" y="4.968" width="46.982" height="39.791" id="SVGID_4_">
		<g filter="url(#Adobe_OpacityMaskFilter_2_)">
			<defs>
				<filter id="Adobe_OpacityMaskFilter_3_" filterUnits="userSpaceOnUse" x="28.49" y="4.968" width="46.982" height="39.791">
					<feFlood  style="flood-color:white;flood-opacity:1" result="back"/>
					<feBlend  in="SourceGraphic" in2="back" mode="normal"/>
				</filter>
			</defs>
			<mask maskUnits="userSpaceOnUse" x="28.49" y="4.968" width="46.982" height="39.791" id="SVGID_4_">
				<g filter="url(#Adobe_OpacityMaskFilter_3_)">
				</g>
			</mask>
			
				<radialGradient id="SVGID_5_" cx="139.8584" cy="4.8979" r="56.7884" gradientTransform="matrix(0.9936 0.1133 -0.1133 0.9936 -120.0981 -20.0752)" gradientUnits="userSpaceOnUse">
				<stop  offset="0.0022" style="stop-color:#FFFFFF"/>
				<stop  offset="0.0873" style="stop-color:#F7F7F7"/>
				<stop  offset="0.2215" style="stop-color:#E0E0E0"/>
				<stop  offset="0.3881" style="stop-color:#BBBBBB"/>
				<stop  offset="0.5803" style="stop-color:#888888"/>
				<stop  offset="0.7915" style="stop-color:#474747"/>
				<stop  offset="1" style="stop-color:#000000"/>
			</radialGradient>
			<path mask="url(#SVGID_4_)" fill="url(#SVGID_5_)" d="M28.49,44.759c0,0,1.873-44.518,46.982-39.377
				c0,0-14.835,4.739-16.108,24.321c0,0-9.834,3.061-10.166,14.106C49.199,43.809,36.94,42.801,28.49,44.759z"/>
		</g>
	</mask>
	<path fill="#FFFFFF" d="M28.49,44.759c0,0,1.873-44.518,46.982-39.377c0,0-14.835,4.739-16.108,24.321
		c0,0-9.834,3.061-10.166,14.106C49.199,43.809,36.94,42.801,28.49,44.759z"/>
	<g>
		<g>
			<path fill="#186D1C" d="M58.498,179.16c-1.08-0.186-2.144-0.316-3.163-0.409c-0.069,0.489-0.128,1.024-0.136,1.54
				C56.81,179.934,58.498,179.16,58.498,179.16z"/>
			<path fill="#186D1C" d="M42.205,179.657c-1.91,0.455-3.01,0.884-3.01,0.884c0.979,0.607,3.157,0.882,3.157,0.882
				C42.283,180.848,42.235,180.234,42.205,179.657z"/>
		</g>
		<g>
			<path fill="#186D1C" d="M62.465,179.345c2.716,0.214,7.754,0.016,7.754,0.016l-0.877-2.377
				C64.916,178.192,62.465,179.345,62.465,179.345z"/>
			<path fill="#186D1C" d="M90.482,174.211c-1.806,0.005-3.537,0.071-5.191,0.176c0.166,0.782,0.352,1.545,0.546,2.122
				C89.006,175.374,90.482,174.211,90.482,174.211z"/>
		</g>
		<g>
			<path fill="#75B73E" d="M89.229,162.829c-0.754-3.778-1.558-6.717-1.558-6.717c-1.709,0.006-3.548-0.279-5.567-0.73
				C83.023,158.217,85.042,162.171,89.229,162.829z"/>
			<path fill="#3B9B45" d="M82.103,155.381c-1.278-0.288-2.629-0.639-4.072-1.036c-16.681,2.843-27.069,2.281-31.343,1.799
				c-0.29,1.893-1.29,5.488-4.738,6.796c-2.459,8.984-2.755,17.601-2.755,17.601s8.291-3.25,19.303-1.381
				c-0.5-8.532,1.848-13.33,1.848-13.33c-0.261,6.189,2.12,13.514,2.12,13.514s10.76-5.067,28.017-5.133
				c0.142-3.332-0.531-7.747-1.254-11.383C85.042,162.171,83.023,158.217,82.103,155.381z"/>
			<path fill="#75B73E" d="M46.688,156.145c-1.504-0.172-2.257-0.331-2.257-0.331c-1.008,2.295-1.82,4.725-2.481,7.126
				C45.398,161.632,46.398,158.038,46.688,156.145z"/>
		</g>
		<defs>
			<filter id="Adobe_OpacityMaskFilter_4_" filterUnits="userSpaceOnUse" x="39.833" y="163.443" width="16.633" height="15.226">
				<feFlood  style="flood-color:white;flood-opacity:1" result="back"/>
				<feBlend  in="SourceGraphic" in2="back" mode="normal"/>
			</filter>
		</defs>
		<mask maskUnits="userSpaceOnUse" x="39.833" y="163.443" width="16.633" height="15.226" id="SVGID_6_">
			<g filter="url(#Adobe_OpacityMaskFilter_4_)">
				<defs>
					<filter id="Adobe_OpacityMaskFilter_5_" filterUnits="userSpaceOnUse" x="39.833" y="163.443" width="16.633" height="15.226">
						<feFlood  style="flood-color:white;flood-opacity:1" result="back"/>
						<feBlend  in="SourceGraphic" in2="back" mode="normal"/>
					</filter>
				</defs>
				<mask maskUnits="userSpaceOnUse" x="39.833" y="163.443" width="16.633" height="15.226" id="SVGID_6_">
					<g filter="url(#Adobe_OpacityMaskFilter_5_)">
					</g>
				</mask>
				
					<radialGradient id="SVGID_7_" cx="40.5742" cy="120.0171" r="18.2111" gradientTransform="matrix(0.9938 -0.1113 0.1113 0.9938 -18.9531 58.9956)" gradientUnits="userSpaceOnUse">
					<stop  offset="0.0022" style="stop-color:#FFFFFF"/>
					<stop  offset="0.0773" style="stop-color:#E3E3E3"/>
					<stop  offset="0.2741" style="stop-color:#9F9F9F"/>
					<stop  offset="0.4608" style="stop-color:#666666"/>
					<stop  offset="0.6318" style="stop-color:#3A3A3A"/>
					<stop  offset="0.7841" style="stop-color:#1A1A1A"/>
					<stop  offset="0.912" style="stop-color:#070707"/>
					<stop  offset="1" style="stop-color:#000000"/>
				</radialGradient>
				<path mask="url(#SVGID_6_)" fill="url(#SVGID_7_)" d="M42.551,163.443c0,0-2.061,4.845-2.718,15.226
					c0,0,6.202-3.522,16.633-0.609C56.467,178.059,43.933,172.855,42.551,163.443z"/>
			</g>
		</mask>
		
			<radialGradient id="SVGID_8_" cx="40.5742" cy="120.0171" r="18.2111" gradientTransform="matrix(0.9938 -0.1113 0.1113 0.9938 -18.9531 58.9956)" gradientUnits="userSpaceOnUse">
			<stop  offset="0.0022" style="stop-color:#FFFFFF"/>
			<stop  offset="1" style="stop-color:#FFFFFF"/>
		</radialGradient>
		<path fill="url(#SVGID_8_)" d="M42.551,163.443c0,0-2.061,4.845-2.718,15.226c0,0,6.202-3.522,16.633-0.609
			C56.467,178.059,43.933,172.855,42.551,163.443z"/>
		<defs>
			<filter id="Adobe_OpacityMaskFilter_6_" filterUnits="userSpaceOnUse" x="60.708" y="159.242" width="22.496" height="17.84">
				<feFlood  style="flood-color:white;flood-opacity:1" result="back"/>
				<feBlend  in="SourceGraphic" in2="back" mode="normal"/>
			</filter>
		</defs>
		<mask maskUnits="userSpaceOnUse" x="60.708" y="159.242" width="22.496" height="17.84" id="SVGID_9_">
			<g filter="url(#Adobe_OpacityMaskFilter_6_)">
				<defs>
					<filter id="Adobe_OpacityMaskFilter_7_" filterUnits="userSpaceOnUse" x="60.708" y="159.242" width="22.496" height="17.84">
						<feFlood  style="flood-color:white;flood-opacity:1" result="back"/>
						<feBlend  in="SourceGraphic" in2="back" mode="normal"/>
					</filter>
				</defs>
				<mask maskUnits="userSpaceOnUse" x="60.708" y="159.242" width="22.496" height="17.84" id="SVGID_9_">
					<g filter="url(#Adobe_OpacityMaskFilter_7_)">
					</g>
				</mask>
				
					<radialGradient id="SVGID_10_" cx="62.562" cy="120.6631" r="18.0812" gradientTransform="matrix(0.9938 -0.1113 0.1113 0.9938 -18.9531 58.9956)" gradientUnits="userSpaceOnUse">
					<stop  offset="0.0022" style="stop-color:#FFFFFF"/>
					<stop  offset="0.0773" style="stop-color:#E3E3E3"/>
					<stop  offset="0.2741" style="stop-color:#9F9F9F"/>
					<stop  offset="0.4608" style="stop-color:#666666"/>
					<stop  offset="0.6318" style="stop-color:#3A3A3A"/>
					<stop  offset="0.7841" style="stop-color:#1A1A1A"/>
					<stop  offset="0.912" style="stop-color:#070707"/>
					<stop  offset="1" style="stop-color:#000000"/>
				</radialGradient>
				<path mask="url(#SVGID_9_)" fill="url(#SVGID_10_)" d="M60.913,159.242c0,0-1.078,7.913,1.714,17.84
					c0,0,11.264-4.005,20.577-3.358C83.204,173.724,64.493,172.851,60.913,159.242z"/>
			</g>
		</mask>
		
			<radialGradient id="SVGID_11_" cx="62.562" cy="120.6631" r="18.0812" gradientTransform="matrix(0.9938 -0.1113 0.1113 0.9938 -18.9531 58.9956)" gradientUnits="userSpaceOnUse">
			<stop  offset="0.0022" style="stop-color:#FFFFFF"/>
			<stop  offset="1" style="stop-color:#FFFFFF"/>
		</radialGradient>
		<path fill="url(#SVGID_11_)" d="M60.913,159.242c0,0-1.078,7.913,1.714,17.84c0,0,11.264-4.005,20.577-3.358
			C83.204,173.724,64.493,172.851,60.913,159.242z"/>
	</g>
	<path fill="#F1C7A4" d="M62.454,107.108c5.527-0.474,4.409-9.47,4.409-9.492c-0.394-0.042-0.697-0.067-0.88-0.073l-0.219-0.007
		c-5.582,0.655-9.371-0.082-9.371-0.082S55.227,107.731,62.454,107.108z"/>
	<path fill="#E7B040" d="M82.729,127.521c-5.688-25.934-12.079-30.61-12.089-30.614c-1.899-0.567-3.381-0.797-4.303-0.899
		c0,0.021,1.056,9.016-4.222,9.498c-6.902,0.632-5.776-9.647-5.776-9.647c-4.44,6.341-11.31,17.465-11.31,17.465
		c-5.458,14.185-7.194,38.797-7.194,38.797l1.093,0.813c0,0,19.294,18.392,46.723,6.793l1.259-0.808
		C86.725,139.094,82.729,127.521,82.729,127.521z"/>
	<defs>
		<filter id="Adobe_OpacityMaskFilter_8_" filterUnits="userSpaceOnUse" x="42.985" y="107.135" width="14.882" height="45.154">
			<feColorMatrix  type="matrix" values="1 0 0 0 0  0 1 0 0 0  0 0 1 0 0  0 0 0 1 0"/>
		</filter>
	</defs>
	<mask maskUnits="userSpaceOnUse" x="42.985" y="107.135" width="14.882" height="45.154" id="SVGID_12_">
		<g filter="url(#Adobe_OpacityMaskFilter_8_)">
			<defs>
				<filter id="Adobe_OpacityMaskFilter_9_" filterUnits="userSpaceOnUse" x="42.985" y="107.135" width="14.882" height="45.154">
					<feFlood  style="flood-color:white;flood-opacity:1" result="back"/>
					<feBlend  in="SourceGraphic" in2="back" mode="normal"/>
				</filter>
			</defs>
			<mask maskUnits="userSpaceOnUse" x="42.985" y="107.135" width="14.882" height="45.154" id="SVGID_12_">
				<g filter="url(#Adobe_OpacityMaskFilter_9_)">
				</g>
			</mask>
			<radialGradient id="SVGID_13_" cx="29.731" cy="124.834" r="38.1563" gradientUnits="userSpaceOnUse">
				<stop  offset="0.0022" style="stop-color:#FFFFFF"/>
				<stop  offset="0.2864" style="stop-color:#AFAFAF"/>
				<stop  offset="0.6369" style="stop-color:#525252"/>
				<stop  offset="0.8828" style="stop-color:#171717"/>
				<stop  offset="1" style="stop-color:#000000"/>
			</radialGradient>
			<path mask="url(#SVGID_12_)" fill="url(#SVGID_13_)" d="M57.868,107.135c0,0-11.118,20.648-6.809,44.475
				c-7.26,0.679-7.26,0.679-7.26,0.679S37.9,125.741,57.868,107.135z"/>
		</g>
	</mask>
	<radialGradient id="SVGID_14_" cx="29.731" cy="124.834" r="38.1563" gradientUnits="userSpaceOnUse">
		<stop  offset="0.0022" style="stop-color:#FFFFFF"/>
		<stop  offset="1" style="stop-color:#FFFFFF"/>
	</radialGradient>
	<path fill="url(#SVGID_14_)" d="M57.868,107.135c0,0-11.118,20.648-6.809,44.475c-7.26,0.679-7.26,0.679-7.26,0.679
		S37.9,125.741,57.868,107.135z"/>
</g>
</svg>
