<svg xmlns="http://www.w3.org/2000/svg" xmlns:xlink="http://www.w3.org/1999/xlink" version="1.1" x="0px" y="0px" viewBox="0 0 64 80" enable-background="new 0 0 64 64" xml:space="preserve"><path d="M61.477,24.786h-3.836c-0.225-1.077-1.244-1.893-2.48-1.893H8.84c-1.228,0-2.249,0.815-2.476,1.893H2.527  C1.133,24.786,0,25.919,0,27.313v0.631c0,1.395,1.133,2.528,2.527,2.528h3.79v25.551c0,1.297,1.129,2.344,2.523,2.344h46.319  c1.399,0,2.532-1.047,2.532-2.344V30.472h3.785c1.397,0,2.522-1.133,2.522-2.528v-0.631C64,25.919,62.875,24.786,61.477,24.786z"/><path d="M37.436,10.525c-0.305-2.75-2.604-4.892-5.434-4.892s-5.128,2.142-5.433,4.892C15.084,11.529,6.472,15.658,6.472,20.602  h51.057C57.527,15.658,48.919,11.529,37.436,10.525z M32.002,10.285c-1.112,0-2.197,0.039-3.27,0.094  c0.339-1.498,1.674-2.613,3.27-2.613c1.602,0,2.932,1.116,3.273,2.613C34.199,10.323,33.113,10.285,32.002,10.285z"/><text x="0" y="79" fill="#000000" font-size="5px" font-weight="bold" font-family="'Helvetica Neue', Helvetica, Arial-Unicode, Arial, Sans-serif">Created by Mohamed Mbarki</text><text x="0" y="84" fill="#000000" font-size="5px" font-weight="bold" font-family="'Helvetica Neue', Helvetica, Arial-Unicode, Arial, Sans-serif">from the Noun Project</text></svg>