<?xml version="1.0" encoding="utf-8"?>
<!-- Generator: Adobe Illustrator 16.0.0, SVG Export Plug-In . SVG Version: 6.00 Build 0)  -->
<!DOCTYPE svg PUBLIC "-//W3C//DTD SVG 1.1//EN" "http://www.w3.org/Graphics/SVG/1.1/DTD/svg11.dtd">
<svg version="1.1" id="Ebene_1" xmlns="http://www.w3.org/2000/svg" xmlns:xlink="http://www.w3.org/1999/xlink" x="0px" y="0px"
	 width="543px" height="585px" viewBox="409.51 20.5 543 585" enable-background="new 409.51 20.5 543 585" xml:space="preserve">
<polygon fill="#323232" points="892.397,583.68 473.622,583.68 430.362,358.146 935.657,358.146 "/>
<g>
	<path fill="#323232" d="M930.195,340.795h-34.604v-61.809c0-117.812-95.853-213.657-213.657-213.657
		c-117.817,0-213.657,95.846-213.657,213.657v61.809h-34.615v-61.809c0-136.895,111.372-248.267,248.267-248.267
		c136.888,0,248.267,111.372,248.267,248.267V340.795z"/>
</g>
<circle fill="#323232" cx="730.116" cy="257.347" r="28.146"/>
<circle fill="#323232" cx="773.836" cy="194.408" r="32.514"/>
<path fill="#323232" d="M639.989,213.314c15.545-11.864,19.071-33.356,19.071-33.356s-21.658-2.242-37.208,9.622
	c-15.532,11.87-19.065,33.368-19.065,33.368S624.457,225.184,639.989,213.314z"/>
<g>
	<path fill="#323232" d="M858.753,214.757c-24.263-15.863-74.435,17.94-112.03,75.491c-11.17,17.08-19.906,34.314-26.124,50.553
		h118.34C872.964,285.456,882.069,229.983,858.753,214.757z"/>
	<path fill="#323232" d="M693.485,324.514c5.357-9.266,8.484-19.993,8.484-31.47c0-34.757-28.17-62.939-62.927-62.939
		c-14.008,0-26.904,4.627-37.361,12.368v-48.064h-18.42v46.534c-10.076-6.838-22.223-10.838-35.297-10.838
		c-34.763,0-62.945,28.177-62.945,62.939c0,11.372,3.054,22.008,8.325,31.211h-0.019l10.095,16.54h180.166l9.954-16.281H693.485z"/>
</g>
</svg>
