<svg xmlns="http://www.w3.org/2000/svg" xmlns:xlink="http://www.w3.org/1999/xlink" version="1.1" x="0px" y="0px" viewBox="0 0 100 125" enable-background="new 0 0 100 100" xml:space="preserve"><path d="M3.2,24.5v51c0,11.8,9.5,21.3,21.3,21.3h51c11.8,0,21.3-9.5,21.3-21.3v-51c0-11.8-9.5-21.3-21.3-21.3h-51  C12.7,3.2,3.2,12.7,3.2,24.5z M39.9,22.8l24.8,24.8c1.3,1.3,1.3,3.4,0,4.7L39.9,77.2c-0.6,0.6-1.5,1-2.3,1c-3,0-4.4-3.6-2.3-5.7  L57.7,50L35.2,27.5c-2.1-2.1-0.6-5.7,2.3-5.7C38.5,21.9,39.3,22.2,39.9,22.8z"/><text x="0" y="115" fill="#000000" font-size="5px" font-weight="bold" font-family="'Helvetica Neue', Helvetica, Arial-Unicode, Arial, Sans-serif">Created by Guilhem</text><text x="0" y="120" fill="#000000" font-size="5px" font-weight="bold" font-family="'Helvetica Neue', Helvetica, Arial-Unicode, Arial, Sans-serif">from the Noun Project</text></svg>