<svg xmlns:dc="http://purl.org/dc/elements/1.1/" xmlns:cc="http://creativecommons.org/ns#" xmlns:rdf="http://www.w3.org/1999/02/22-rdf-syntax-ns#" xmlns:svg="http://www.w3.org/2000/svg" xmlns="http://www.w3.org/2000/svg" xmlns:sodipodi="http://sodipodi.sourceforge.net/DTD/sodipodi-0.dtd" xmlns:inkscape="http://www.inkscape.org/namespaces/inkscape" version="1.1" x="0px" y="0px" viewBox="0 0 100 125"><g transform="translate(0,-952.36218)"><path style="text-indent:0;text-transform:none;direction:ltr;block-progression:tb;baseline-shift:baseline;color:#000000;enable-background:accumulate;" d="m 40.637618,972.38725 a 3.0003,3.0003 0 0 0 -1.40625,0.5625 l -33.9999996,25 a 3.0003,3.0003 0 0 0 0,4.84365 l 33.9999996,25 a 3.0003,3.0003 0 0 0 4.78125,-2.4062 l 0,-9.9688 c 6.76413,0.064 30.02891,1.3513 47.0312,16.2188 a 3.0003,3.0003 0 0 0 4.8126,-3.1875 c -8.4011,-25.8833 -33.65165,-37.34095 -51.8438,-42.31245 l 0,-10.75 a 3.0003,3.0003 0 0 0 -3.375,-3 z m -2.625,8.9375 0,7.0625 a 3.0003,3.0003 0 0 0 2.25,2.9062 c 14.69969,3.7214 34.6241,12.05295 45.125,28.99995 -20.09129,-11.8041 -42.62518,-10.9958 -44.53125,-10.9062 a 3.0003,3.0003 0 0 0 -2.84375,3 l 0,7.0625 -25.9375,-19.0625 25.9375,-19.06245 z" fill="#000000" fill-opacity="1" stroke="none" marker="none" visibility="visible" display="inline" overflow="visible"/></g><text x="0" y="115" fill="#000000" font-size="5px" font-weight="bold" font-family="'Helvetica Neue', Helvetica, Arial-Unicode, Arial, Sans-serif">Created by Numero Uno</text><text x="0" y="120" fill="#000000" font-size="5px" font-weight="bold" font-family="'Helvetica Neue', Helvetica, Arial-Unicode, Arial, Sans-serif">from the Noun Project</text></svg>