<svg xmlns="http://www.w3.org/2000/svg" xmlns:xlink="http://www.w3.org/1999/xlink" version="1.1" x="0px" y="0px" viewBox="0 0 100 125" style="enable-background:new 0 0 100 100;" xml:space="preserve"><g><path d="M94,52.5c0.4-18.4-6.6-32.4-22-41.2C55.6,2,39.1,3,23.8,14.1C11.1,23.3,5.5,36.3,6,52.5c23-5.9,43.7-15.3,62.6-29   C74.3,35.5,79.4,47.6,94,52.5z"/><path d="M50.1,88.6c-19-0.1-30.9-10.9-36.7-28.9c-1.4,0.2-5,1.1-5.8,1.4c3.9,18,19.8,34,42.6,33.9C72.5,94.9,89,78.8,92.3,61   c-1.9-0.4-3.8-0.9-5.7-1.3C80.6,77.5,69.2,88.7,50.1,88.6z"/><path d="M50.2,76.5c7.2-0.2,12.9-3.5,17.2-9.1c0.8-1-2.1-3.9-3-2.9c-8.8,9.4-20.2,9.4-28.8-0.1c-0.8-0.8-3.9,1.7-3.2,2.7   C36.7,72.8,42.5,76.4,50.2,76.5z"/><path d="M39.5,51.3c0-2.4-1.4-4-4-4c-2.6,0-3.9,1.5-4,4c0.2,2.7,1.7,4,4.2,3.9C38,55.1,39.5,53.6,39.5,51.3z"/><path d="M64.6,47.3c-2.6,0-3.9,1.4-4.1,3.9c0.2,2.6,1.6,4.1,4.1,4c2.3,0,3.9-1.5,3.9-3.8C68.5,49,67.2,47.3,64.6,47.3z"/></g><text x="0" y="115" fill="#000000" font-size="5px" font-weight="bold" font-family="'Helvetica Neue', Helvetica, Arial-Unicode, Arial, Sans-serif">Created by Rodrigo De Araujo E Silva</text><text x="0" y="120" fill="#000000" font-size="5px" font-weight="bold" font-family="'Helvetica Neue', Helvetica, Arial-Unicode, Arial, Sans-serif">from the Noun Project</text></svg>