<svg xmlns="http://www.w3.org/2000/svg" xmlns:xlink="http://www.w3.org/1999/xlink" version="1.1" x="0px" y="0px" viewBox="0 0 66 82.5" style="enable-background:new 0 0 66 66;" xml:space="preserve"><g><path d="M33,6.6C18.4,6.6,6.6,18.4,6.6,33c0,14.6,11.9,26.4,26.4,26.4S59.4,47.6,59.4,33C59.4,18.4,47.6,6.6,33,6.6z M33,55.4   c-12.4,0-22.4-10.1-22.4-22.4S20.6,10.6,33,10.6S55.4,20.6,55.4,33S45.4,55.4,33,55.4z"/><path d="M45.5,36.5l-11.3-4.2l-5.2-7.8c-0.6-0.9-1.9-1.2-2.8-0.6c-0.9,0.6-1.2,1.9-0.6,2.8l5.6,8.4c0.2,0.4,0.6,0.6,1,0.8l12,4.4   c0.2,0.1,0.5,0.1,0.7,0.1c0.8,0,1.6-0.5,1.9-1.3C47,38.1,46.5,36.9,45.5,36.5z"/></g><text x="0" y="81" fill="#000000" font-size="5px" font-weight="bold" font-family="'Helvetica Neue', Helvetica, Arial-Unicode, Arial, Sans-serif">Created by Ananth</text><text x="0" y="86" fill="#000000" font-size="5px" font-weight="bold" font-family="'Helvetica Neue', Helvetica, Arial-Unicode, Arial, Sans-serif">from the Noun Project</text></svg>