<?xml version="1.0" encoding="utf-8"?>
<!-- Generator: Adobe Illustrator 16.0.0, SVG Export Plug-In . SVG Version: 6.00 Build 0)  -->
<!DOCTYPE svg PUBLIC "-//W3C//DTD SVG 1.1//EN" "http://www.w3.org/Graphics/SVG/1.1/DTD/svg11.dtd">
<svg version="1.1" id="Ebene_1" xmlns="http://www.w3.org/2000/svg" xmlns:xlink="http://www.w3.org/1999/xlink" x="0px" y="0px"
	 width="1366px" height="768px" viewBox="0 0 1366 768" enable-background="new 0 0 1366 768" xml:space="preserve">
<g>
	<path fill="#0F97AD" d="M119.622,118.385c0.56,1.293,0.952,2.694,1.179,4.21c0.223,1.516,0.195,2.991-0.085,4.422
		s-0.83,2.737-1.642,3.915c-0.813,1.18-1.952,2.078-3.41,2.695c1.233,1.178,2.202,2.541,2.904,4.084
		c0.702,1.544,1.149,3.143,1.348,4.799c0.197,1.658,0.155,3.326-0.126,5.011c-0.281,1.683-0.786,3.283-1.516,4.799
		c-1.403,2.919-3.521,5.123-6.356,6.61s-5.851,2.174-9.051,2.062c-1.572-0.055-3.129-0.294-4.674-0.714
		c-1.544-0.421-3.018-1.01-4.421-1.769c-1.403-0.758-2.667-1.698-3.788-2.821c-1.123-1.123-2.021-2.413-2.695-3.874
		c-0.673-1.291-1.109-2.721-1.304-4.293c-0.197-1.572-0.154-3.129,0.125-4.674c0.28-1.542,0.801-2.975,1.558-4.294
		c0.757-1.317,1.811-2.399,3.158-3.24c-1.292-1.067-2.274-2.33-2.947-3.79c-0.674-1.459-1.095-2.989-1.264-4.589
		c-0.168-1.6-0.083-3.213,0.252-4.841c0.337-1.628,0.871-3.144,1.601-4.548c1.515-2.694,3.648-4.743,6.398-6.146
		c2.749-1.403,5.642-2.105,8.672-2.105c1.571,0,3.157,0.198,4.758,0.59c1.599,0.393,3.115,0.968,4.547,1.725
		c1.43,0.758,2.734,1.7,3.914,2.822C117.938,115.554,118.892,116.87,119.622,118.385z"/>
	<path fill="#CA4D20" d="M117.35,126.723c0.504-2.076,0.42-3.986-0.253-5.727c-0.674-1.74-1.699-3.241-3.074-4.505
		c-1.376-1.265-2.988-2.232-4.842-2.904c-1.852-0.674-3.733-1.011-5.641-1.011c-1.965,0-3.887,0.352-5.768,1.052
		c-1.882,0.703-3.467,1.783-4.758,3.242c-1.347,1.515-2.272,3.354-2.779,5.516c-0.504,2.16-0.534,4.196-0.085,6.104
		c0.45,1.629,1.222,2.904,2.317,3.831c1.095,0.926,2.329,1.726,3.704,2.4c1.376,0.673,2.765,1.32,4.17,1.938
		c1.402,0.617,2.609,1.429,3.621,2.441c0.449,0.449,0.869,1.01,1.262,1.684c0.392,0.673,0.675,1.389,0.843,2.147
		c0.167,0.756,0.167,1.487,0,2.188c-0.168,0.704-0.563,1.278-1.181,1.728c-0.617,0.505-1.305,0.66-2.062,0.462
		c-0.759-0.196-1.334-0.632-1.726-1.305c-0.283-0.45-0.437-0.913-0.463-1.39c-0.029-0.476-0.043-0.954-0.043-1.432
		c0-0.476,0-0.954,0-1.431s-0.114-0.939-0.336-1.389c-0.337-0.729-0.829-1.333-1.475-1.811c-0.645-0.477-1.361-0.798-2.147-0.967
		c-0.786-0.169-1.57-0.182-2.355-0.042c-0.788,0.14-1.517,0.462-2.189,0.969c-0.73,0.56-1.32,1.261-1.769,2.104
		c-0.449,0.842-0.772,1.755-0.967,2.736c-0.198,0.982-0.255,1.967-0.169,2.948c0.084,0.983,0.265,1.895,0.548,2.736
		c0.561,1.853,1.542,3.411,2.947,4.672c1.402,1.264,2.988,2.234,4.756,2.906c1.769,0.675,3.635,1.041,5.6,1.095
		c1.964,0.056,3.79-0.224,5.472-0.843c1.686-0.618,3.144-1.557,4.38-2.821c1.234-1.262,2.19-2.707,2.864-4.336
		c0.673-1.625,1.022-3.338,1.051-5.137c0.027-1.796-0.323-3.506-1.051-5.137c-0.506-1.121-1.18-2.089-2.022-2.903
		c-0.842-0.814-1.755-1.53-2.737-2.148c-0.982-0.616-2.007-1.206-3.072-1.768c-1.067-0.561-2.106-1.148-3.116-1.767
		c-0.787-0.505-1.572-1.095-2.357-1.77c-0.787-0.673-1.319-1.487-1.6-2.441c-0.168-0.729-0.225-1.474-0.168-2.232
		c0.055-0.757,0.28-1.445,0.674-2.062c0.449-0.56,1.037-0.939,1.768-1.136c0.729-0.196,1.374-0.042,1.936,0.464
		c0.449,0.393,0.603,0.827,0.463,1.305c-0.141,0.475-0.268,0.939-0.378,1.389c-0.338,0.786-0.367,1.655-0.085,2.609
		c0.28,0.899,0.801,1.658,1.558,2.274c0.758,0.619,1.528,1.067,2.314,1.347c0.898,0.336,1.813,0.52,2.737,0.548
		c0.927,0.029,1.77-0.127,2.527-0.462c0.757-0.337,1.417-0.843,1.978-1.516C116.73,128.491,117.123,127.677,117.35,126.723z"/>
	<path fill="#0F97AD" d="M143.703,115.018c1.739,0,3.186,0.421,4.336,1.263c1.15,0.841,2.063,1.937,2.737,3.283
		c0.672,1.349,1.178,2.864,1.515,4.546c0.338,1.684,0.548,3.398,0.633,5.137c0.083,1.741,0.096,3.41,0.041,5.01
		c-0.057,1.6-0.113,2.989-0.169,4.167c-0.056,1.179-0.083,2.583-0.083,4.21c0,1.63-0.083,3.299-0.253,5.011
		c-0.168,1.713-0.449,3.398-0.843,5.052c-0.393,1.657-0.967,3.129-1.725,4.421c-0.758,1.292-1.741,2.345-2.948,3.158
		c-1.208,0.813-2.708,1.222-4.505,1.222c-1.346,0-2.637-0.311-3.872-0.927c-0.281-0.115-0.521-0.252-0.716-0.421
		c-0.198-0.168-0.436-0.337-0.716-0.507c-0.281-0.279-0.504-0.349-0.675-0.211c-0.167,0.142-0.419,0.296-0.756,0.465
		c-1.009,0.559-2.078,0.979-3.2,1.263c-1.123,0.279-2.246,0.364-3.367,0.251c-2.135-0.112-4.03-0.787-5.685-2.02
		c-1.657-1.235-2.934-2.807-3.831-4.716c-1.011-2.188-1.6-4.476-1.769-6.862c-0.168-2.386-0.196-4.757-0.085-7.115
		c0.056-2.134,0.183-4.28,0.379-6.441c0.197-2.16,0.519-4.279,0.968-6.357c0.226-1.01,0.519-2.048,0.886-3.116
		c0.365-1.065,0.813-2.076,1.347-3.032c0.533-0.954,1.191-1.795,1.979-2.525c0.786-0.729,1.74-1.264,2.863-1.601
		c1.965-0.56,3.901-0.391,5.81,0.506c1.908,0.898,3.312,2.248,4.211,4.043c0.504-1.853,1.358-3.508,2.569-4.969
		C139.983,115.749,141.626,115.018,143.703,115.018z"/>
	<path fill="#A1BF35" d="M149.429,139.604c0.111-2.524,0.169-5.079,0.169-7.663c0-2.58-0.283-5.137-0.843-7.661
		c-0.168-0.673-0.366-1.348-0.589-2.02c-0.225-0.676-0.533-1.307-0.926-1.896c-0.394-0.589-0.884-1.065-1.473-1.43
		c-0.589-0.366-1.277-0.55-2.063-0.55c-0.73,0-1.348,0.184-1.853,0.55c-0.504,0.365-0.927,0.813-1.262,1.345
		c-0.337,0.535-0.621,1.137-0.843,1.812c-0.226,0.673-0.393,1.291-0.504,1.852c-0.451,1.966-0.688,3.93-0.718,5.894
		c-0.028,1.964-0.012,3.931,0.044,5.893c0,0.9,0.055,1.867,0.168,2.906c0.113,1.04,0.169,2.063,0.169,3.073
		c0,1.012-0.072,2.008-0.211,2.989c-0.14,0.983-0.436,1.895-0.884,2.736c-0.337,0.675-0.841,1.306-1.516,1.895
		c-0.674,0.589-1.432,0.745-2.273,0.464c-0.73-0.281-1.222-0.801-1.475-1.558c-0.251-0.759-0.407-1.474-0.461-2.148
		c-0.113-1.627,0.026-3.27,0.42-4.925c0.394-1.656,0.729-3.298,1.011-4.925c0.28-1.628,0.505-3.243,0.672-4.843
		c0.17-1.6,0.113-3.211-0.167-4.842c-0.17-1.292-0.589-2.482-1.263-3.577c-0.673-1.096-1.685-1.811-3.032-2.148
		c-1.515-0.392-2.766-0.167-3.747,0.674c-0.982,0.841-1.755,1.909-2.315,3.2c-0.841,1.852-1.403,3.816-1.685,5.893
		c-0.281,2.078-0.504,4.1-0.673,6.064c-0.113,2.355-0.211,4.77-0.294,7.24c-0.085,2.471,0.182,4.855,0.801,7.155
		c0.448,1.404,1.081,2.725,1.894,3.958c0.813,1.235,1.923,2.106,3.327,2.61c1.852,0.675,3.703,0.662,5.556-0.041
		c1.854-0.702,3.423-1.699,4.716-2.99c0.505,1.011,1.15,1.811,1.937,2.4c0.786,0.59,1.626,0.924,2.525,1.01
		c0.897,0.085,1.795-0.054,2.693-0.42c0.899-0.364,1.656-1.023,2.274-1.979c0.729-1.066,1.276-2.273,1.643-3.621
		c0.364-1.346,0.615-2.721,0.757-4.127c0.141-1.402,0.21-2.806,0.21-4.21C149.344,142.243,149.373,140.897,149.429,139.604z"/>
	<path fill="#0F97AD" d="M171.322,116.786c2.132,0.451,4.167,1.167,6.104,2.148c1.937,0.981,3.634,2.313,5.095,3.998
		c1.628,1.853,2.737,3.93,3.327,6.232c0.588,2.303,0.728,4.588,0.421,6.862c-0.31,2.273-1.054,4.449-2.232,6.526
		s-2.723,3.845-4.63,5.303c-2.023,1.516-4.211,2.611-6.57,3.286c-1.177,0.336-2.356,0.589-3.535,0.758l0.338,3.453
		c0.223,2.356,0.334,4.811,0.334,7.366c0,2.555-0.532,4.925-1.599,7.114c-1.009,2.077-2.582,3.508-4.715,4.295
		c-2.135,0.785-4.294,0.869-6.483,0.252c-2.134-0.563-3.762-1.713-4.884-3.453c-1.123-1.741-1.852-3.621-2.188-5.642
		c-0.451-2.582-0.602-5.194-0.463-7.831c0.138-2.637,0.267-5.276,0.378-7.917c0.168-2.692,0.238-5.372,0.211-8.039
		c-0.029-2.666-0.099-5.375-0.211-8.125c0-1.347-0.014-2.863-0.042-4.548c-0.03-1.685,0.028-3.41,0.168-5.178
		c0.14-1.768,0.407-3.493,0.8-5.177c0.393-1.685,0.996-3.172,1.811-4.463c0.813-1.291,1.866-2.343,3.159-3.157
		c1.29-0.813,2.917-1.222,4.883-1.222c2.526,0,4.631,1.011,6.315,3.03c0.336,0.452,0.63,0.915,0.885,1.389
		c0.251,0.479,0.489,0.97,0.715,1.475c0.111,0.393,0.169,0.646,0.169,0.758c0,0.113,0.223,0.197,0.672,0.252L171.322,116.786z"/>
	<path fill="#DC9015" d="M179.573,143.142c1.517-1.798,2.555-3.844,3.116-6.147c0.562-2.301,0.532-4.602-0.085-6.904
		c-0.729-2.582-2.076-4.703-4.041-6.359c-1.966-1.654-4.211-2.792-6.736-3.409c-1.572-0.394-3.313-0.59-5.22-0.59
		c-0.394-0.055-0.576-0.237-0.546-0.547c0.027-0.309-0.015-0.632-0.129-0.968c-0.279-1.348-0.828-2.553-1.641-3.62
		c-0.815-1.067-1.979-1.602-3.494-1.602c-1.18,0-2.176,0.253-2.991,0.758c-0.814,0.505-1.501,1.167-2.063,1.979
		c-0.562,0.814-0.982,1.728-1.261,2.738c-0.283,1.01-0.507,2.02-0.675,3.031c-0.281,2.02-0.436,4.056-0.464,6.104
		c-0.028,2.049-0.013,4.099,0.044,6.147c0.054,2.05,0.126,4.099,0.208,6.146c0.084,2.051,0.098,4.084,0.042,6.106
		c-0.112,1.965-0.225,3.944-0.336,5.936c-0.113,1.994-0.197,4.001-0.252,6.021c-0.057,1.571-0.043,3.185,0.042,4.841
		c0.083,1.655,0.434,3.212,1.052,4.672c0.561,1.292,1.39,2.26,2.483,2.906c1.096,0.645,2.245,0.968,3.452,0.968
		c1.207,0,2.344-0.337,3.411-1.011c1.065-0.674,1.852-1.684,2.357-3.03c0.506-1.404,0.786-2.835,0.843-4.295
		c0.055-1.46,0.027-2.933-0.084-4.42c-0.113-1.487-0.268-2.961-0.464-4.421c-0.196-1.458-0.295-2.917-0.295-4.377
		c0-0.505,0.015-0.801,0.042-0.885c0.028-0.085,0.296-0.127,0.8-0.127c0.391-0.054,0.771-0.083,1.136-0.083
		c0.365,0,0.771-0.057,1.222-0.168c1.403-0.168,2.778-0.506,4.125-1.01C175.643,146.567,177.776,145.106,179.573,143.142z"/>
	<path fill="#0F97AD" d="M168.543,125.543c1.123,0,1.894,0.477,2.316,1.431c0.42,0.956,0.546,1.994,0.378,3.117
		c-0.169,1.122-0.575,2.161-1.221,3.114c-0.645,0.956-1.473,1.43-2.482,1.43c-1.125,0-1.881-0.474-2.274-1.43
		c-0.394-0.953-0.505-1.993-0.337-3.114c0.167-1.123,0.576-2.162,1.221-3.117C166.787,126.021,167.588,125.543,168.543,125.543z"/>
	<path fill="#0F97AD" d="M204.834,116.786c2.132,0.451,4.167,1.167,6.104,2.148c1.936,0.981,3.634,2.313,5.094,3.998
		c1.628,1.853,2.737,3.93,3.326,6.232c0.589,2.303,0.729,4.588,0.42,6.862c-0.308,2.273-1.052,4.449-2.231,6.526
		c-1.178,2.077-2.723,3.845-4.63,5.303c-2.021,1.516-4.21,2.611-6.568,3.286c-1.179,0.336-2.357,0.589-3.535,0.758l0.337,3.453
		c0.223,2.356,0.334,4.811,0.334,7.366c0,2.555-0.533,4.925-1.599,7.114c-1.01,2.077-2.583,3.508-4.716,4.295
		c-2.134,0.785-4.293,0.869-6.481,0.252c-2.136-0.563-3.763-1.713-4.884-3.453c-1.125-1.741-1.855-3.621-2.189-5.642
		c-0.452-2.582-0.603-5.194-0.464-7.831c0.139-2.637,0.265-5.276,0.378-7.917c0.169-2.692,0.238-5.372,0.211-8.039
		c-0.029-2.666-0.099-5.375-0.211-8.125c0-1.347-0.013-2.863-0.043-4.548c-0.028-1.685,0.03-3.41,0.169-5.178
		c0.141-1.768,0.408-3.493,0.8-5.177c0.394-1.685,0.997-3.172,1.812-4.463c0.812-1.291,1.864-2.343,3.157-3.157
		c1.291-0.813,2.917-1.222,4.884-1.222c2.526,0,4.631,1.011,6.316,3.03c0.335,0.452,0.63,0.915,0.883,1.389
		c0.252,0.479,0.491,0.97,0.716,1.475c0.111,0.393,0.168,0.646,0.168,0.758c0,0.113,0.223,0.197,0.673,0.252L204.834,116.786z"/>
	<path fill="#E7B040" d="M213.085,143.142c1.517-1.798,2.553-3.844,3.116-6.147c0.56-2.301,0.533-4.602-0.085-6.904
		c-0.73-2.582-2.077-4.703-4.041-6.359c-1.966-1.654-4.212-2.792-6.736-3.409c-1.572-0.394-3.313-0.59-5.22-0.59
		c-0.394-0.055-0.578-0.237-0.547-0.547c0.027-0.309-0.015-0.632-0.126-0.968c-0.281-1.348-0.828-2.553-1.643-3.62
		c-0.814-1.067-1.979-1.602-3.494-1.602c-1.179,0-2.175,0.253-2.99,0.758c-0.814,0.505-1.503,1.167-2.063,1.979
		c-0.562,0.814-0.982,1.728-1.262,2.738c-0.281,1.01-0.505,2.02-0.674,3.031c-0.281,2.02-0.437,4.056-0.464,6.104
		c-0.028,2.049-0.013,4.099,0.042,6.147c0.055,2.05,0.126,4.099,0.21,6.146c0.084,2.051,0.097,4.084,0.042,6.106
		c-0.112,1.965-0.225,3.944-0.337,5.936c-0.112,1.994-0.197,4.001-0.252,6.021c-0.055,1.571-0.042,3.185,0.044,4.841
		c0.082,1.655,0.434,3.212,1.052,4.672c0.56,1.292,1.39,2.26,2.484,2.906c1.093,0.645,2.245,0.968,3.453,0.968
		c1.206,0,2.343-0.337,3.41-1.011c1.064-0.674,1.851-1.684,2.357-3.03c0.506-1.404,0.786-2.835,0.842-4.295
		c0.056-1.46,0.027-2.933-0.083-4.42c-0.114-1.487-0.268-2.961-0.463-4.421c-0.198-1.458-0.295-2.917-0.295-4.377
		c0-0.505,0.014-0.801,0.042-0.885c0.028-0.085,0.295-0.127,0.799-0.127c0.392-0.054,0.771-0.083,1.137-0.083
		c0.364,0,0.77-0.057,1.221-0.168c1.402-0.168,2.778-0.506,4.125-1.01C209.155,146.567,211.288,145.106,213.085,143.142z"/>
	<path fill="#0F97AD" d="M202.055,125.543c1.123,0,1.895,0.477,2.316,1.431c0.42,0.956,0.546,1.994,0.378,3.117
		c-0.168,1.122-0.576,2.161-1.221,3.114c-0.646,0.956-1.473,1.43-2.483,1.43c-1.124,0-1.881-0.474-2.274-1.43
		c-0.393-0.953-0.505-1.993-0.337-3.114c0.168-1.123,0.576-2.162,1.222-3.117C200.299,126.021,201.099,125.543,202.055,125.543z"/>
	<path fill="#0F97AD" d="M248.786,122.176c0.842,1.176,1.403,2.455,1.684,3.83c0.281,1.376,0.337,2.737,0.168,4.085
		c-0.168,1.347-0.577,2.638-1.22,3.872c-0.645,1.236-1.474,2.33-2.485,3.284c1.796,1.292,2.877,2.893,3.242,4.8
		c0.365,1.909,0.279,3.846-0.251,5.809c-0.536,1.967-1.433,3.818-2.696,5.558c-1.263,1.742-2.598,3.116-3.999,4.127
		c-1.685,1.123-3.525,1.881-5.516,2.273c-1.994,0.391-3.972,0.436-5.937,0.126c-1.964-0.309-3.845-0.955-5.64-1.938
		c-1.798-0.981-3.315-2.257-4.548-3.831c-1.629-2.02-2.848-4.364-3.663-7.03c-0.814-2.666-1.221-5.432-1.221-8.295
		c0-2.862,0.38-5.654,1.136-8.376c0.76-2.723,1.895-5.179,3.412-7.368c1.515-2.188,3.422-3.942,5.724-5.263
		c2.302-1.318,4.996-1.978,8.083-1.978c1.292,0,2.596,0.125,3.916,0.378c1.318,0.252,2.583,0.631,3.79,1.136
		c1.206,0.506,2.329,1.152,3.368,1.937C247.172,120.098,248.055,121.053,248.786,122.176z"/>
	<path fill="#69A840" d="M233.378,146.847c-0.674-0.955-1.025-2.106-1.052-3.454c-0.031-1.347,0.013-2.581,0.126-3.704
		c0.054-0.729,0.153-1.124,0.294-1.178c0.141-0.058,0.601-0.086,1.389-0.086c1.684,0,3.368-0.223,5.052-0.672
		c1.179-0.338,2.301-0.829,3.369-1.475c1.065-0.646,1.992-1.417,2.778-2.316c0.785-0.896,1.362-1.922,1.727-3.073
		c0.363-1.15,0.434-2.373,0.21-3.662c-0.282-1.405-0.83-2.625-1.642-3.664c-0.815-1.038-1.783-1.865-2.907-2.485
		c-1.121-0.616-2.356-1.08-3.704-1.387c-1.347-0.309-2.666-0.463-3.958-0.463c-1.683,0-3.396,0.366-5.135,1.095
		c-1.91,0.841-3.51,2.006-4.801,3.493c-1.291,1.488-2.329,3.131-3.115,4.927c-0.787,1.797-1.333,3.703-1.642,5.725
		c-0.31,2.021-0.378,3.986-0.211,5.895c0.169,1.798,0.506,3.593,1.012,5.389c0.504,1.796,1.234,3.451,2.189,4.966
		c0.954,1.517,2.147,2.793,3.578,3.832c1.432,1.04,3.128,1.727,5.094,2.063c1.571,0.283,3.115,0.267,4.631-0.044
		c1.517-0.307,2.905-0.839,4.169-1.599c1.263-0.756,2.37-1.739,3.325-2.945c0.954-1.207,1.685-2.569,2.189-4.085
		c0.336-1.008,0.533-2.104,0.589-3.282c0.056-1.18-0.198-2.275-0.758-3.284c-0.618-1.011-1.487-1.672-2.609-1.979
		c-1.125-0.308-2.247-0.294-3.368,0.041c-1.235,0.452-2.036,1.237-2.4,2.359c-0.367,1.124-0.688,2.245-0.968,3.368
		c-0.113,0.393-0.282,0.814-0.507,1.264c-0.223,0.45-0.49,0.8-0.799,1.052c-0.31,0.252-0.646,0.351-1.01,0.294
		C234.148,147.718,233.77,147.407,233.378,146.847z"/>
	<path fill="#0F97AD" d="M234.472,133.626c-0.841,0-1.388-0.308-1.641-0.926c-0.252-0.617-0.281-1.292-0.084-2.021
		c0.196-0.729,0.574-1.404,1.136-2.023c0.56-0.616,1.179-0.925,1.854-0.925c0.841,0,1.374,0.309,1.6,0.925
		c0.222,0.619,0.237,1.293,0.042,2.023c-0.197,0.729-0.561,1.404-1.095,2.021C235.748,133.318,235.146,133.626,234.472,133.626z"/>
	<path fill="#0F97AD" d="M283.224,137.585c0,1.571,0.014,3.269,0.043,5.094c0.028,1.824-0.071,3.649-0.294,5.472
		c-0.226,1.825-0.632,3.551-1.221,5.179c-0.59,1.628-1.474,3.06-2.653,4.293c-1.123,1.124-2.512,1.924-4.168,2.4
		c-1.655,0.478-3.27,0.492-4.841,0.043c-1.798-0.45-3.13-1.403-4-2.864c-0.871-1.457-1.446-3.031-1.726-4.713
		c-0.336,1.571-0.83,3.128-1.475,4.672c-0.646,1.545-1.614,2.848-2.903,3.915c-1.124,0.898-2.415,1.404-3.875,1.516
		c-1.459,0.113-2.807-0.225-4.041-1.01c-1.124-0.731-1.993-1.684-2.609-2.862c-0.62-1.179-1.069-2.442-1.347-3.791
		c-0.283-1.347-0.452-2.721-0.507-4.125c-0.056-1.403-0.085-2.693-0.085-3.872c-0.056-3.65-0.028-7.285,0.085-10.905
		c0.112-3.62,0.309-7.228,0.589-10.821c0.057-1.346,0.295-2.735,0.717-4.167c0.42-1.432,1.038-2.722,1.852-3.874
		c0.813-1.15,1.796-2.091,2.947-2.821c1.15-0.729,2.539-1.095,4.168-1.095c1.965,0,3.676,0.561,5.136,1.683
		c0.786,0.507,1.432,1.151,1.938,1.938c0.167,0.226,0.322,0.436,0.462,0.632c0.141,0.196,0.266,0.408,0.38,0.631l1.264-0.42
		c1.626-0.506,3.324-0.702,5.093-0.59c1.768,0.114,3.41,0.647,4.925,1.601c1.571,1.01,2.792,2.246,3.664,3.705
		c0.869,1.459,1.486,3.029,1.851,4.713c0.365,1.685,0.561,3.425,0.59,5.221C283.21,134.162,283.224,135.9,283.224,137.585z"/>
	<path fill="#CA4D20" d="M279.773,143.142c0.112-2.301,0.211-4.645,0.294-7.031c0.083-2.387-0.072-4.702-0.464-6.946
		c-0.28-1.573-0.8-3.086-1.558-4.548c-0.758-1.459-1.867-2.582-3.325-3.369c-0.898-0.448-1.841-0.7-2.822-0.757
		c-0.982-0.055-1.95,0.03-2.903,0.252c-0.956,0.226-1.896,0.546-2.821,0.968c-0.927,0.421-1.782,0.883-2.568,1.39
		c0-1.627-0.504-3.115-1.516-4.461c-1.01-1.348-2.414-2.022-4.21-2.022c-1.629,0-2.933,0.632-3.915,1.895
		c-0.985,1.263-1.642,2.624-1.979,4.082c-0.337,1.293-0.506,2.569-0.506,3.832c0,1.264-0.029,2.542-0.083,3.832l-0.338,7.41
		c-0.114,2.247-0.184,4.477-0.211,6.695c-0.029,2.217,0.042,4.419,0.211,6.61c0.054,0.617,0.113,1.276,0.169,1.978
		c0.055,0.702,0.181,1.404,0.378,2.104c0.195,0.702,0.45,1.362,0.757,1.978c0.309,0.621,0.745,1.124,1.306,1.516
		c0.841,0.673,1.768,0.856,2.778,0.549c1.009-0.309,1.824-0.885,2.442-1.727c0.841-1.124,1.431-2.427,1.768-3.916
		c0.337-1.487,0.617-2.933,0.842-4.335c0.28-1.74,0.463-3.481,0.548-5.221c0.083-1.739,0.152-3.48,0.209-5.221
		c0-0.728-0.028-1.558-0.083-2.483c-0.057-0.928-0.057-1.825,0-2.695c0.054-0.872,0.211-1.713,0.461-2.527
		c0.253-0.813,0.688-1.53,1.306-2.147c0.729-0.729,1.375-0.981,1.937-0.757c0.561,0.225,1.039,0.66,1.432,1.304
		c0.393,0.648,0.702,1.39,0.928,2.231c0.223,0.842,0.363,1.517,0.42,2.022c0.112,1.516,0.07,3.045-0.125,4.589
		c-0.199,1.546-0.394,3.089-0.59,4.631c-0.197,1.545-0.353,3.088-0.463,4.631c-0.113,1.544-0.058,3.072,0.168,4.588
		c0.168,1.124,0.56,2.176,1.179,3.157c0.617,0.985,1.57,1.559,2.862,1.728c1.403,0.112,2.653-0.154,3.748-0.801
		c1.095-0.644,1.95-1.585,2.568-2.82c0.786-1.571,1.262-3.242,1.43-5.011S279.716,144.826,279.773,143.142z"/>
	<path fill="#0F97AD" d="M307.979,139.101c-0.337,0.334-0.367,0.661-0.085,0.967c0.281,0.309,0.56,0.632,0.841,0.969
		c0.898,1.179,1.923,2.554,3.074,4.125c1.15,1.573,2.077,3.215,2.78,4.926c0.701,1.712,1.065,3.423,1.093,5.135
		c0.029,1.714-0.63,3.273-1.978,4.675c-1.515,1.627-3.073,2.469-4.673,2.527c-1.599,0.055-3.144-0.325-4.631-1.137
		c-1.487-0.815-2.891-1.909-4.21-3.285c-1.319-1.375-2.427-2.68-3.326-3.915c-0.56,1.739-1.388,3.397-2.482,4.968
		c-1.095,1.569-2.598,2.525-4.505,2.862c-1.516,0.279-2.977,0.125-4.38-0.464c-1.402-0.588-2.524-1.531-3.367-2.819
		c-0.787-1.292-1.334-2.708-1.643-4.253c-0.308-1.543-0.477-3.144-0.504-4.799c-0.029-1.656,0.028-3.284,0.169-4.884
		c0.139-1.599,0.265-3.127,0.378-4.588c0.169-2.077,0.366-4.127,0.589-6.147c0.224-2.021,0.391-4.069,0.506-6.145
		c0.111-2.023,0.153-4.041,0.126-6.064c-0.03-2.02-0.015-4.068,0.042-6.146c0-1.571,0.098-3.255,0.294-5.053
		c0.197-1.795,0.589-3.452,1.179-4.968c0.59-1.516,1.486-2.779,2.694-3.789c1.207-1.01,2.821-1.516,4.843-1.516
		c2.302,0,4.068,0.788,5.304,2.358c1.235,1.57,2.12,3.44,2.653,5.6c0.533,2.16,0.841,4.407,0.926,6.735
		c0.084,2.33,0.126,4.252,0.126,5.768c0.505-0.843,1.065-1.684,1.685-2.526c0.617-0.843,1.319-1.585,2.106-2.233
		c0.784-0.645,1.641-1.121,2.567-1.429c0.924-0.309,1.948-0.349,3.072-0.127c1.629,0.281,3.06,0.997,4.296,2.146
		c1.233,1.151,2.074,2.542,2.527,4.168c0.56,2.021,0.56,4.084,0,6.189c-0.563,2.105-1.405,4.057-2.527,5.853
		c-0.505,0.841-1.068,1.628-1.685,2.357c-0.617,0.729-1.292,1.46-2.021,2.189L307.979,139.101z"/>
	<path fill="#DC9015" d="M302.927,139.268l1.009-0.926l2.191-2.104c0.729-0.675,1.417-1.361,2.063-2.064
		c0.645-0.701,1.249-1.444,1.811-2.232c1.01-1.401,1.852-3,2.526-4.799c0.675-1.794,0.785-3.591,0.337-5.389
		c-0.169-0.674-0.491-1.317-0.969-1.937c-0.478-0.615-1.023-1.106-1.643-1.472c-0.618-0.366-1.277-0.575-1.977-0.632
		c-0.703-0.055-1.39,0.112-2.064,0.505c-0.672,0.393-1.262,0.884-1.769,1.474c-0.505,0.588-0.955,1.249-1.346,1.979
		c-0.393,0.729-0.757,1.458-1.095,2.188c-0.335,0.729-0.672,1.431-1.009,2.104c-0.788,1.685-1.572,3.383-2.358,5.093
		c-0.787,1.715-1.798,3.3-3.032,4.758c0.338-3.536,0.59-7.072,0.758-10.61c0.169-3.534,0.111-7.072-0.168-10.607
		c-0.057-0.788-0.155-1.797-0.294-3.033c-0.143-1.234-0.393-2.441-0.759-3.621c-0.365-1.177-0.883-2.19-1.558-3.032
		c-0.673-0.842-1.6-1.262-2.778-1.262c-1.516,0-2.668,0.478-3.453,1.432c-0.786,0.955-1.347,2.12-1.684,3.495
		c-0.337,1.375-0.504,2.808-0.504,4.294c0,1.487,0,2.765,0,3.832c-0.057,2.134-0.085,4.293-0.085,6.482
		c0,2.19-0.056,4.379-0.168,6.568c-0.169,2.357-0.381,4.66-0.632,6.906c-0.252,2.246-0.463,4.546-0.632,6.903
		c-0.112,1.684-0.168,3.382-0.168,5.095s0.141,3.381,0.422,5.01c0.169,0.955,0.476,1.909,0.927,2.863
		c0.448,0.956,1.178,1.599,2.189,1.937c1.684,0.618,3.032,0.421,4.042-0.589c1.01-1.011,1.795-2.343,2.357-4
		c0.56-1.655,0.94-3.395,1.137-5.22c0.197-1.822,0.322-3.214,0.379-4.168c0.729,1.626,1.585,3.2,2.568,4.714
		c0.981,1.515,2.034,2.948,3.157,4.295c0.843,1.123,1.868,2.259,3.075,3.41c1.205,1.152,2.538,1.866,3.998,2.148
		c1.066,0.167,1.908,0.027,2.525-0.421c0.619-0.451,1.083-1.053,1.39-1.812c0.31-0.757,0.448-1.585,0.42-2.484
		c-0.028-0.896-0.154-1.711-0.378-2.439c-0.787-2.077-1.867-4.029-3.241-5.854c-1.376-1.823-2.794-3.551-4.252-5.177
		L302.927,139.268z"/>
	<path fill="#0F97AD" d="M343.427,116.534c1.235,0.956,2.106,2.19,2.611,3.704c0.505,1.516,0.841,3.033,1.01,4.548
		c0.225,2.134,0.323,4.252,0.294,6.357c-0.029,2.105-0.099,4.225-0.21,6.357c-0.113,2.301-0.266,4.577-0.462,6.821
		c-0.198,2.247-0.52,4.491-0.969,6.734c-0.282,1.686-0.758,3.398-1.431,5.138c-0.674,1.741-1.74,3.145-3.2,4.21
		c-0.788,0.617-1.699,1.066-2.738,1.348c-1.038,0.28-2.078,0.392-3.115,0.336c-1.038-0.057-2.062-0.267-3.074-0.632
		c-1.01-0.365-1.852-0.912-2.526-1.641c-0.73-0.786-1.233-1.686-1.516-2.694c-0.28-1.01-0.476-2.048-0.588-3.116
		c-0.056-0.449-0.493-0.743-1.305-0.884c-0.814-0.138-1.445-0.295-1.895-0.463c-1.123-0.336-2.247-0.756-3.369-1.262
		c-1.066-0.506-2.104-1.138-3.114-1.896c-1.011-0.756-1.881-1.61-2.61-2.565c-0.731-0.956-1.277-1.993-1.642-3.117
		c-0.366-1.123-0.463-2.328-0.295-3.621c0.169-1.232,0.575-2.371,1.222-3.41c0.644-1.037,1.43-1.937,2.357-2.694
		c0.927-0.758,1.95-1.402,3.074-1.938c1.122-0.533,2.243-0.939,3.367-1.221c-1.628-1.626-2.373-3.564-2.231-5.808
		c0.14-2.245,0.94-4.182,2.399-5.811c1.517-1.739,3.381-2.947,5.601-3.621c2.216-0.673,4.42-1.01,6.608-1.01
		c1.348,0,2.695,0.098,4.042,0.295C341.07,115.173,342.304,115.691,343.427,116.534z"/>
	<path fill="#E7B040" d="M343.849,133.626c0.054-1.739,0.084-3.479,0.084-5.221c0-1.738-0.17-3.452-0.507-5.136
		c-0.449-2.133-1.348-3.537-2.693-4.21c-1.347-0.675-3.032-1.01-5.053-1.01h-1.093c-1.628,0.112-3.285,0.463-4.97,1.053
		c-1.684,0.59-3.03,1.586-4.041,2.989c-0.618,0.897-0.997,1.894-1.136,2.988c-0.142,1.097,0.153,2.12,0.885,3.073
		c0.447,0.619,0.952,0.943,1.515,0.969c0.56,0.029,1.135-0.07,1.725-0.295c0.589-0.224,1.179-0.518,1.768-0.884
		c0.591-0.364,1.15-0.632,1.684-0.8c0.534-0.168,1.04-0.168,1.517,0c0.476,0.168,0.882,0.648,1.221,1.433
		c0.113,0.281,0.252,0.603,0.421,0.967c0.167,0.366,0.322,0.758,0.464,1.179c0.139,0.421,0.21,0.829,0.21,1.22
		c0,0.394-0.115,0.731-0.338,1.012c-0.448,0.449-1.051,0.673-1.809,0.673c-0.759,0-1.418,0-1.979,0
		c-1.235-0.055-2.598-0.043-4.084,0.042c-1.487,0.084-2.946,0.323-4.376,0.715c-1.434,0.393-2.726,0.998-3.875,1.812
		c-1.151,0.813-1.979,1.922-2.483,3.326c-0.506,1.348-0.519,2.567-0.042,3.661c0.476,1.095,1.192,2.063,2.147,2.906
		c0.955,0.843,2.063,1.558,3.327,2.148c1.262,0.588,2.399,1.053,3.409,1.389c0.561,0.168,1.123,0.323,1.684,0.462
		c0.561,0.14,1.15,0.267,1.77,0.379l1.683,0.251c-0.057,0.283-0.084,0.536-0.084,0.759c0,0.224,0,0.478,0,0.757
		c0,0.73,0.028,1.488,0.084,2.273c0.055,0.787,0.28,1.516,0.673,2.19c0.506,1.01,1.361,1.628,2.567,1.851
		c1.208,0.225,2.316,0.197,3.327-0.084c1.067-0.224,1.923-0.744,2.568-1.558c0.644-0.813,1.15-1.738,1.516-2.778
		c0.365-1.039,0.645-2.119,0.841-3.243c0.196-1.123,0.352-2.133,0.463-3.032c0.337-2.357,0.576-4.713,0.717-7.071
		C343.693,138.425,343.791,136.042,343.849,133.626z"/>
	<path fill="#0F97AD" d="M331.891,138.425c0.898,0,1.516,0.338,1.853,1.01c0.338,0.675,0.449,1.434,0.338,2.274
		c-0.115,0.843-0.422,1.601-0.927,2.273c-0.506,0.675-1.151,1.01-1.937,1.01c-0.898,0-1.515-0.334-1.852-1.01
		c-0.337-0.672-0.449-1.431-0.337-2.273c0.112-0.84,0.421-1.599,0.926-2.274C330.46,138.763,331.105,138.425,331.891,138.425z"/>
	<path fill="#0F97AD" d="M375.086,121.671c0.729,1.289,1.234,2.708,1.516,4.25c0.28,1.546,0.309,3.074,0.085,4.59
		c-0.226,1.516-0.689,2.946-1.391,4.293c-0.703,1.348-1.698,2.442-2.99,3.284c1.18,1.012,2.077,2.205,2.694,3.58
		c0.617,1.376,0.997,2.793,1.137,4.251c0.139,1.461,0.07,2.948-0.209,4.465c-0.282,1.515-0.759,2.918-1.433,4.208
		c-1.178,2.415-2.892,4.31-5.137,5.685c-2.245,1.374-4.687,2.203-7.325,2.482c-1.629,0.169-3.27,0.114-4.926-0.168
		c-1.656-0.28-3.229-0.771-4.716-1.473c-1.487-0.702-2.836-1.626-4.042-2.778c-1.208-1.149-2.177-2.485-2.904-4.001
		c-0.619-1.177-1.025-2.496-1.221-3.955c-0.197-1.461-0.183-2.877,0.042-4.253c0.225-1.375,0.701-2.653,1.432-3.833
		c0.729-1.178,1.768-2.105,3.114-2.777c-1.124-1.067-1.993-2.287-2.61-3.664c-0.619-1.375-1.024-2.792-1.22-4.253
		c-0.197-1.457-0.184-2.947,0.042-4.462c0.223-1.515,0.618-2.974,1.178-4.378c1.18-2.863,3.075-5.094,5.685-6.693
		c2.61-1.6,5.432-2.4,8.461-2.4c2.92,0,5.74,0.687,8.463,2.062C371.535,117.11,373.626,119.089,375.086,121.671z"/>
	<path fill="#CA4D20" d="M372.56,132.701c0.954-2.077,1.234-4.069,0.843-5.978c-0.393-1.908-1.222-3.579-2.485-5.011
		c-1.263-1.432-2.821-2.568-4.673-3.409c-1.852-0.841-3.788-1.265-5.811-1.265c-2.917,0-5.459,0.83-7.621,2.485
		c-2.16,1.656-3.55,3.916-4.167,6.779c-0.45,2.189-0.435,4.322,0.042,6.399c0.476,2.076,1.613,3.845,3.41,5.304
		c0.786,0.674,1.685,1.263,2.695,1.768c1.011,0.506,2.021,1.04,3.031,1.601c1.01,0.561,1.937,1.178,2.78,1.851
		c0.841,0.674,1.485,1.516,1.938,2.527c0.222,0.505,0.321,1.166,0.293,1.978c-0.029,0.815-0.183,1.559-0.464,2.231
		c-0.282,0.675-0.688,1.166-1.22,1.475c-0.535,0.308-1.194,0.209-1.979-0.294c-0.563-0.394-0.786-0.843-0.673-1.348
		c0.111-0.505,0.252-0.982,0.421-1.432c0.279-0.898,0.252-1.769-0.085-2.61c-0.336-0.897-0.884-1.627-1.642-2.19
		c-0.757-0.56-1.585-0.98-2.482-1.264c-2.022-0.615-3.705-0.349-5.054,0.801c-1.346,1.15-2.077,2.709-2.188,4.672
		c-0.114,1.965,0.294,3.79,1.221,5.474c0.927,1.683,2.203,3.031,3.832,4.042c1.459,0.954,3.087,1.598,4.884,1.935
		c1.794,0.339,3.577,0.367,5.345,0.085c1.77-0.281,3.397-0.896,4.885-1.853c1.487-0.953,2.68-2.244,3.579-3.874
		c0.842-1.516,1.36-3.254,1.557-5.22c0.196-1.964-0.098-3.76-0.883-5.389c-0.62-1.235-1.475-2.217-2.568-2.948
		c-1.095-0.727-2.231-1.401-3.411-2.02c-1.123-0.56-2.273-1.122-3.451-1.684c-1.18-0.561-2.189-1.348-3.031-2.358
		c-0.395-0.448-0.731-1.079-1.012-1.894c-0.279-0.813-0.419-1.614-0.419-2.401c0-0.784,0.181-1.472,0.546-2.062
		c0.364-0.589,1.024-0.883,1.979-0.883c1.012,0,1.698,0.463,2.064,1.389c0.363,0.926,0.491,1.782,0.378,2.568
		c-0.114,0.955,0,1.839,0.336,2.651c0.337,0.814,0.897,1.473,1.684,1.98c0.729,0.504,1.475,0.786,2.232,0.841
		c0.757,0.059,1.473-0.042,2.146-0.294c0.674-0.252,1.291-0.659,1.854-1.223C371.774,134.077,372.223,133.43,372.56,132.701z"/>
	<path fill="#0F97AD" d="M395.21,116.786c2.131,0.451,4.166,1.167,6.104,2.148c1.936,0.981,3.633,2.313,5.094,3.998
		c1.627,1.853,2.736,3.93,3.326,6.232c0.589,2.303,0.73,4.588,0.42,6.862c-0.308,2.273-1.053,4.449-2.23,6.526
		c-1.178,2.077-2.723,3.845-4.63,5.303c-2.022,1.516-4.211,2.611-6.569,3.286c-1.18,0.336-2.357,0.589-3.537,0.758l0.337,3.453
		c0.223,2.356,0.336,4.811,0.336,7.366c0,2.555-0.533,4.925-1.599,7.114c-1.011,2.077-2.583,3.508-4.717,4.295
		c-2.134,0.785-4.293,0.869-6.482,0.252c-2.136-0.563-3.762-1.713-4.884-3.453c-1.124-1.741-1.853-3.621-2.188-5.642
		c-0.451-2.582-0.604-5.194-0.463-7.831c0.138-2.637,0.266-5.276,0.378-7.917c0.167-2.692,0.238-5.372,0.211-8.039
		c-0.029-2.666-0.098-5.375-0.211-8.125c0-1.347-0.013-2.863-0.043-4.548c-0.028-1.685,0.03-3.41,0.168-5.178
		c0.141-1.768,0.408-3.493,0.802-5.177c0.392-1.685,0.996-3.172,1.81-4.463c0.812-1.291,1.865-2.343,3.157-3.157
		c1.291-0.813,2.918-1.222,4.885-1.222c2.525,0,4.63,1.011,6.314,3.03c0.335,0.452,0.631,0.915,0.883,1.389
		c0.253,0.479,0.491,0.97,0.718,1.475c0.109,0.393,0.166,0.646,0.166,0.758c0,0.113,0.225,0.197,0.675,0.252L395.21,116.786z"/>
	<path fill="#A1BF35" d="M403.461,143.142c1.516-1.798,2.554-3.844,3.116-6.147c0.56-2.301,0.533-4.602-0.085-6.904
		c-0.729-2.582-2.076-4.703-4.042-6.359c-1.964-1.654-4.209-2.792-6.735-3.409c-1.573-0.394-3.313-0.59-5.221-0.59
		c-0.393-0.055-0.576-0.237-0.546-0.547c0.027-0.309-0.015-0.632-0.128-0.968c-0.281-1.348-0.827-2.553-1.643-3.62
		c-0.814-1.067-1.978-1.602-3.492-1.602c-1.181,0-2.176,0.253-2.991,0.758c-0.814,0.505-1.502,1.167-2.063,1.979
		c-0.562,0.814-0.981,1.728-1.261,2.738c-0.283,1.01-0.507,2.02-0.675,3.031c-0.282,2.02-0.436,4.056-0.463,6.104
		c-0.029,2.049-0.015,4.099,0.042,6.147c0.055,2.05,0.126,4.099,0.209,6.146c0.085,2.051,0.098,4.084,0.043,6.106
		c-0.114,1.965-0.225,3.944-0.338,5.936c-0.112,1.994-0.198,4.001-0.252,6.021c-0.056,1.571-0.042,3.185,0.043,4.841
		c0.083,1.655,0.433,3.212,1.052,4.672c0.561,1.292,1.39,2.26,2.483,2.906c1.095,0.645,2.244,0.968,3.452,0.968
		s2.344-0.337,3.413-1.011c1.063-0.674,1.851-1.684,2.355-3.03c0.506-1.404,0.786-2.835,0.842-4.295
		c0.056-1.46,0.027-2.933-0.084-4.42c-0.114-1.487-0.267-2.961-0.463-4.421c-0.198-1.458-0.295-2.917-0.295-4.377
		c0-0.505,0.014-0.801,0.043-0.885c0.027-0.085,0.295-0.127,0.799-0.127c0.393-0.054,0.771-0.083,1.138-0.083
		c0.364,0,0.77-0.057,1.221-0.168c1.402-0.168,2.778-0.506,4.125-1.01C399.531,146.567,401.663,145.106,403.461,143.142z"/>
	<path fill="#0F97AD" d="M392.431,125.543c1.122,0,1.893,0.477,2.314,1.431c0.421,0.956,0.548,1.994,0.38,3.117
		c-0.17,1.122-0.576,2.161-1.222,3.114c-0.645,0.956-1.473,1.43-2.483,1.43c-1.124,0-1.882-0.474-2.274-1.43
		c-0.394-0.953-0.505-1.993-0.337-3.114c0.169-1.123,0.576-2.162,1.221-3.117C390.676,126.021,391.475,125.543,392.431,125.543z"/>
	<path fill="#0F97AD" d="M439.163,122.176c0.84,1.176,1.403,2.455,1.684,3.83c0.28,1.376,0.338,2.737,0.169,4.085
		c-0.169,1.347-0.577,2.638-1.223,3.872c-0.645,1.236-1.473,2.33-2.484,3.284c1.797,1.292,2.878,2.893,3.243,4.8
		c0.365,1.909,0.28,3.846-0.251,5.809c-0.536,1.967-1.432,3.818-2.695,5.558c-1.264,1.742-2.598,3.116-4,4.127
		c-1.684,1.123-3.523,1.881-5.515,2.273c-1.995,0.391-3.972,0.436-5.938,0.126c-1.965-0.309-3.845-0.955-5.641-1.938
		c-1.795-0.981-3.313-2.257-4.546-3.831c-1.63-2.02-2.85-4.364-3.662-7.03c-0.815-2.666-1.222-5.432-1.222-8.295
		c0-2.862,0.38-5.654,1.138-8.376c0.758-2.723,1.894-5.179,3.409-7.368c1.518-2.188,3.424-3.942,5.726-5.263
		c2.301-1.318,4.997-1.978,8.084-1.978c1.291,0,2.595,0.125,3.916,0.378c1.318,0.252,2.582,0.631,3.789,1.136
		c1.207,0.506,2.329,1.152,3.37,1.937C437.548,120.098,438.431,121.053,439.163,122.176z"/>
	<path fill="#CA4D20" d="M423.754,146.847c-0.674-0.955-1.026-2.106-1.053-3.454c-0.031-1.347,0.011-2.581,0.126-3.704
		c0.055-0.729,0.153-1.124,0.295-1.178c0.139-0.058,0.601-0.086,1.389-0.086c1.683,0,3.368-0.223,5.052-0.672
		c1.179-0.338,2.301-0.829,3.368-1.475c1.066-0.646,1.992-1.417,2.778-2.316c0.786-0.896,1.361-1.922,1.728-3.073
		c0.363-1.15,0.434-2.373,0.208-3.662c-0.28-1.405-0.83-2.625-1.642-3.664c-0.814-1.038-1.783-1.865-2.907-2.485
		c-1.122-0.616-2.355-1.08-3.702-1.387c-1.349-0.309-2.667-0.463-3.958-0.463c-1.683,0-3.396,0.366-5.136,1.095
		c-1.909,0.841-3.508,2.006-4.8,3.493c-1.291,1.488-2.331,3.131-3.115,4.927c-0.788,1.797-1.334,3.703-1.643,5.725
		c-0.31,2.021-0.379,3.986-0.211,5.895c0.168,1.798,0.506,3.593,1.013,5.389c0.503,1.796,1.233,3.451,2.188,4.966
		c0.954,1.517,2.147,2.793,3.578,3.832c1.434,1.04,3.129,1.727,5.095,2.063c1.572,0.283,3.116,0.267,4.631-0.044
		c1.517-0.307,2.905-0.839,4.168-1.599c1.264-0.756,2.371-1.739,3.327-2.945c0.954-1.207,1.684-2.569,2.188-4.085
		c0.338-1.008,0.534-2.104,0.589-3.282c0.057-1.18-0.197-2.275-0.757-3.284c-0.617-1.011-1.486-1.672-2.61-1.979
		s-2.246-0.294-3.368,0.041c-1.236,0.452-2.035,1.237-2.4,2.359c-0.365,1.124-0.688,2.245-0.968,3.368
		c-0.114,0.393-0.281,0.814-0.505,1.264c-0.226,0.45-0.492,0.8-0.801,1.052c-0.307,0.252-0.646,0.351-1.01,0.294
		C424.523,147.718,424.146,147.407,423.754,146.847z"/>
	<path fill="#0F97AD" d="M424.848,133.626c-0.842,0-1.388-0.308-1.642-0.926c-0.251-0.617-0.281-1.292-0.083-2.021
		c0.196-0.729,0.573-1.404,1.134-2.023c0.56-0.616,1.18-0.925,1.853-0.925c0.843,0,1.376,0.309,1.6,0.925
		c0.225,0.619,0.24,1.293,0.044,2.023c-0.199,0.729-0.564,1.404-1.095,2.021C426.125,133.318,425.522,133.626,424.848,133.626z"/>
	<path fill="#0F97AD" d="M459.96,119.229c2.245,0.393,4.07,1.432,5.473,3.115c1.404,1.686,2.358,3.594,2.864,5.726
		c0.503,2.189,0.729,4.546,0.673,7.073c-0.056,2.525-0.729,4.772-2.022,6.735c-0.673,1.011-1.501,1.81-2.484,2.4
		c-0.981,0.59-2.02,0.955-3.116,1.095c-1.092,0.142-2.204,0.042-3.324-0.296c-1.124-0.335-2.135-0.926-3.033-1.766
		c0,1.458,0.055,3.087,0.169,4.883c0.111,1.798,0.041,3.551-0.211,5.262c-0.252,1.714-0.77,3.271-1.558,4.672
		c-0.786,1.404-2.049,2.415-3.789,3.033c-1.515,0.56-3.073,0.672-4.672,0.338c-1.601-0.338-2.934-1.152-4-2.442
		c-1.124-1.292-1.851-2.779-2.189-4.464c-0.337-1.683-0.563-3.338-0.673-4.967c-0.28-3.537-0.322-7.144-0.128-10.82
		c0.198-3.676,0.464-7.284,0.801-10.821c0.111-1.459,0.338-2.96,0.673-4.504c0.338-1.544,0.871-2.96,1.601-4.252
		c0.729-1.291,1.669-2.358,2.821-3.201c1.149-0.84,2.621-1.262,4.419-1.262c1.18,0,2.274,0.281,3.285,0.843
		c1.009,0.561,1.851,1.32,2.524,2.273c0.225,0.28,0.408,0.575,0.547,0.884c0.141,0.309,0.268,0.631,0.379,0.968
		c0.28-0.112,0.562-0.197,0.842-0.252c0.28-0.056,0.56-0.112,0.843-0.169c0.56-0.111,1.107-0.181,1.642-0.21
		C458.851,119.074,459.398,119.117,459.96,119.229z"/>
	<path fill="#E7B040" d="M461.223,142.047c0.896-0.169,1.627-0.547,2.191-1.135c0.56-0.59,0.993-1.293,1.304-2.106
		c0.308-0.815,0.518-1.656,0.631-2.527c0.112-0.87,0.169-1.669,0.169-2.399c0-1.74-0.21-3.579-0.632-5.517
		c-0.421-1.937-1.361-3.495-2.82-4.672c-0.785-0.561-1.599-0.913-2.442-1.054c-0.841-0.139-1.699-0.125-2.568,0.042
		c-0.871,0.169-1.713,0.464-2.526,0.885c-0.814,0.42-1.558,0.913-2.231,1.473c0.055-0.672,0.041-1.417-0.042-2.231
		c-0.083-0.813-0.282-1.559-0.591-2.231c-0.308-0.674-0.743-1.249-1.304-1.727c-0.561-0.475-1.263-0.715-2.105-0.715
		c-1.629,0-2.862,0.562-3.705,1.683c-0.841,1.125-1.43,2.387-1.768,3.791c-0.562,2.135-0.872,4.323-0.926,6.567
		c-0.058,2.247-0.141,4.491-0.253,6.737c-0.113,2.357-0.21,4.757-0.293,7.198c-0.086,2.442,0.011,4.843,0.293,7.2
		c0.054,0.729,0.181,1.488,0.378,2.273c0.198,0.787,0.463,1.516,0.801,2.19c0.337,0.673,0.784,1.249,1.346,1.726
		c0.562,0.478,1.264,0.745,2.106,0.801c1.853,0.113,3.185-0.422,3.998-1.6c0.814-1.18,1.319-2.624,1.517-4.338
		c0.196-1.712,0.224-3.465,0.084-5.262c-0.142-1.796-0.211-3.256-0.211-4.377c0-0.956,0-1.993,0-3.117
		c0-1.123,0.055-2.258,0.167-3.409c0.114-1.15,0.31-2.246,0.59-3.285c0.28-1.038,0.729-1.979,1.346-2.819
		c0.282-0.394,0.647-0.675,1.095-0.843c0.449-0.169,0.843,0.028,1.18,0.589c0.507,0.786,0.644,1.67,0.42,2.654
		c-0.225,0.982-0.42,1.893-0.589,2.734c-0.225,0.843-0.252,1.7-0.084,2.569c0.17,0.872,0.504,1.657,1.011,2.358
		c0.504,0.702,1.136,1.251,1.894,1.642C459.412,142.187,460.267,142.271,461.223,142.047z"/>
	<path fill="#0F97AD" d="M475.958,95.904c2.019-0.054,3.647,0.422,4.88,1.43c1.235,1.012,2.176,2.29,2.822,3.832
		c0.645,1.545,1.081,3.229,1.305,5.051c0.224,1.827,0.364,3.495,0.421,5.011c0.112,4.21,0,8.42-0.337,12.63
		c-0.338,4.21-0.451,8.42-0.338,12.63c0.058,2.582,0.155,5.164,0.295,7.746c0.141,2.583,0.156,5.194,0.042,7.83
		c-0.056,1.011-0.143,2.051-0.253,3.117c-0.112,1.065-0.336,2.091-0.673,3.072c-0.335,0.983-0.787,1.908-1.346,2.779
		c-0.561,0.869-1.291,1.614-2.19,2.231c-0.955,0.619-1.963,1.011-3.029,1.179c-1.069,0.168-2.106,0.154-3.116-0.042
		c-1.013-0.197-1.98-0.589-2.905-1.178c-0.926-0.59-1.698-1.361-2.316-2.314c-1.291-1.908-2.119-4.071-2.483-6.483
		c-0.367-2.414-0.604-4.743-0.717-6.99c-0.282-5.109-0.364-10.216-0.252-15.324c0.112-5.108,0.225-10.216,0.336-15.325
		c0.057-1.74,0.156-3.79,0.295-6.146c0.141-2.357,0.518-4.617,1.137-6.778c0.617-2.161,1.57-4,2.862-5.515
		C471.69,96.831,473.542,96.017,475.958,95.904z"/>
	<path fill="#69A840" d="M482.02,111.649c0-0.953-0.041-2.147-0.127-3.577c-0.082-1.432-0.308-2.821-0.672-4.168
		c-0.367-1.348-0.941-2.485-1.725-3.411c-0.789-0.926-1.911-1.36-3.369-1.306c-1.629,0.114-2.85,0.801-3.664,2.063
		c-0.813,1.264-1.388,2.567-1.727,3.916c-0.56,2.189-0.896,4.435-1.009,6.737c-0.113,2.303-0.198,4.575-0.252,6.82l-0.254,16.923
		c0,2.583,0,5.151,0,7.704c0,2.557,0.168,5.125,0.506,7.704c0.169,1.462,0.433,3.033,0.799,4.717
		c0.365,1.684,1.108,3.088,2.232,4.21c0.841,0.784,1.879,1.192,3.114,1.221c1.235,0.027,2.3-0.326,3.2-1.052
		c1.009-0.843,1.668-1.951,1.979-3.328c0.307-1.375,0.518-2.679,0.633-3.914c0.111-2.021,0.126-4.055,0.039-6.105
		c-0.083-2.048-0.181-4.082-0.293-6.104c-0.167-4.884-0.097-9.739,0.211-14.567C481.947,121.306,482.074,116.478,482.02,111.649z"/>
	<path fill="#0F97AD" d="M517.888,137.585c0,1.571,0.016,3.269,0.043,5.094c0.03,1.824-0.07,3.649-0.294,5.472
		c-0.224,1.825-0.631,3.551-1.22,5.179c-0.591,1.628-1.475,3.06-2.654,4.293c-1.122,1.124-2.512,1.924-4.169,2.4
		c-1.653,0.478-3.269,0.492-4.84,0.043c-1.796-0.45-3.13-1.403-4-2.864c-0.871-1.457-1.445-3.031-1.726-4.713
		c-0.336,1.571-0.828,3.128-1.475,4.672c-0.645,1.545-1.613,2.848-2.904,3.915c-1.123,0.898-2.414,1.404-3.874,1.516
		c-1.459,0.113-2.808-0.225-4.042-1.01c-1.123-0.731-1.991-1.684-2.61-2.862c-0.619-1.179-1.067-2.442-1.346-3.791
		c-0.283-1.347-0.452-2.721-0.506-4.125c-0.054-1.403-0.084-2.693-0.084-3.872c-0.057-3.65-0.029-7.285,0.084-10.905
		c0.112-3.62,0.309-7.228,0.588-10.821c0.057-1.346,0.296-2.735,0.715-4.167c0.422-1.432,1.042-2.722,1.855-3.874
		c0.812-1.15,1.794-2.091,2.945-2.821c1.15-0.729,2.54-1.095,4.169-1.095c1.963,0,3.676,0.561,5.136,1.683
		c0.787,0.507,1.432,1.151,1.938,1.938c0.167,0.226,0.321,0.436,0.463,0.632c0.139,0.196,0.266,0.408,0.378,0.631l1.264-0.42
		c1.627-0.506,3.323-0.702,5.095-0.59c1.767,0.114,3.41,0.647,4.925,1.601c1.569,1.01,2.792,2.246,3.664,3.705
		c0.869,1.459,1.485,3.029,1.852,4.713c0.366,1.685,0.56,3.425,0.59,5.221C517.874,134.162,517.888,135.9,517.888,137.585z"/>
	<path fill="#A1BF35" d="M514.437,143.142c0.112-2.301,0.212-4.645,0.295-7.031c0.082-2.387-0.07-4.702-0.463-6.946
		c-0.282-1.573-0.8-3.086-1.559-4.548c-0.757-1.459-1.866-2.582-3.325-3.369c-0.898-0.448-1.84-0.7-2.822-0.757
		c-0.984-0.055-1.951,0.03-2.904,0.252c-0.957,0.226-1.896,0.546-2.822,0.968c-0.925,0.421-1.782,0.883-2.567,1.39
		c0-1.627-0.504-3.115-1.515-4.461c-1.01-1.348-2.415-2.022-4.21-2.022c-1.63,0-2.934,0.632-3.914,1.895
		c-0.985,1.263-1.644,2.624-1.98,4.082c-0.336,1.293-0.505,2.569-0.505,3.832c0,1.264-0.028,2.542-0.084,3.832l-0.336,7.41
		c-0.113,2.247-0.184,4.477-0.212,6.695c-0.028,2.217,0.045,4.419,0.212,6.61c0.055,0.617,0.111,1.276,0.169,1.978
		c0.054,0.702,0.18,1.404,0.378,2.104c0.196,0.702,0.448,1.362,0.756,1.978c0.31,0.621,0.745,1.124,1.307,1.516
		c0.842,0.673,1.769,0.856,2.777,0.549c1.011-0.309,1.825-0.885,2.442-1.727c0.842-1.124,1.432-2.427,1.769-3.916
		c0.336-1.487,0.617-2.933,0.84-4.335c0.281-1.74,0.465-3.481,0.548-5.221c0.084-1.739,0.153-3.48,0.211-5.221
		c0-0.728-0.03-1.558-0.084-2.483c-0.056-0.928-0.056-1.825,0-2.695c0.055-0.872,0.211-1.713,0.464-2.527
		c0.251-0.813,0.687-1.53,1.304-2.147c0.729-0.729,1.375-0.981,1.938-0.757c0.56,0.225,1.037,0.66,1.431,1.304
		c0.392,0.648,0.702,1.39,0.927,2.231c0.223,0.842,0.364,1.517,0.42,2.022c0.111,1.516,0.071,3.045-0.126,4.589
		c-0.196,1.546-0.393,3.089-0.588,4.631c-0.198,1.545-0.353,3.088-0.464,4.631c-0.113,1.544-0.056,3.072,0.168,4.588
		c0.169,1.124,0.56,2.176,1.179,3.157c0.617,0.985,1.571,1.559,2.862,1.728c1.403,0.112,2.654-0.154,3.748-0.801
		c1.096-0.644,1.95-1.585,2.567-2.82c0.787-1.571,1.264-3.242,1.433-5.011C514.269,146.551,514.379,144.826,514.437,143.142z"/>
</g>
</svg>
